<?xml version="1.0" encoding="UTF-8" standalone="no"?>
<!DOCTYPE svg PUBLIC "-//W3C//DTD SVG 1.1//EN" "http://www.w3.org/Graphics/SVG/1.1/DTD/svg11.dtd">
<svg width="100%" height="100%" viewBox="0 0 713 5" version="1.1" xmlns="http://www.w3.org/2000/svg" xmlns:xlink="http://www.w3.org/1999/xlink" xml:space="preserve" xmlns:serif="http://www.serif.com/" style="fill-rule:evenodd;clip-rule:evenodd;stroke-linecap:round;stroke-linejoin:round;stroke-miterlimit:2;">
    <g transform="matrix(1,0,0,1,-391.306,-384.857)">
        <g transform="matrix(0.0588253,0,0,0.0588287,0,0)">
            <path d="M18772,6542L18497,6544" style="fill:none;stroke:rgb(51,51,51);stroke-width:11.16px;"/>
        </g>
        <g transform="matrix(0.0588253,0,0,0.0588287,0,0)">
            <path d="M18314,6546L18130,6547" style="fill:none;stroke:rgb(51,51,51);stroke-width:11.16px;"/>
        </g>
        <g transform="matrix(0.0588253,0,0,0.0588287,0,0)">
            <path d="M17946,6548L17763,6549" style="fill:none;stroke:rgb(51,51,51);stroke-width:11.16px;"/>
        </g>
        <g transform="matrix(0.0588253,0,0,0.0588287,0,0)">
            <path d="M17579,6550L17395,6552" style="fill:none;stroke:rgb(51,51,51);stroke-width:11.16px;"/>
        </g>
        <g transform="matrix(0.0588253,0,0,0.0588287,0,0)">
            <path d="M17212,6553L17028,6554" style="fill:none;stroke:rgb(51,51,51);stroke-width:11.16px;"/>
        </g>
        <g transform="matrix(0.0588253,0,0,0.0588287,0,0)">
            <path d="M16844,6555L16661,6557" style="fill:none;stroke:rgb(51,51,51);stroke-width:11.16px;"/>
        </g>
        <g transform="matrix(0.0588253,0,0,0.0588287,0,0)">
            <path d="M16477,6558L16293,6559" style="fill:none;stroke:rgb(51,51,51);stroke-width:11.16px;"/>
        </g>
        <g transform="matrix(0.0588253,0,0,0.0588287,0,0)">
            <path d="M16110,6560L15926,6562" style="fill:none;stroke:rgb(51,51,51);stroke-width:11.16px;"/>
        </g>
        <g transform="matrix(0.0588253,0,0,0.0588287,0,0)">
            <path d="M15742,6563L15559,6564" style="fill:none;stroke:rgb(51,51,51);stroke-width:11.16px;"/>
        </g>
        <g transform="matrix(0.0588253,0,0,0.0588287,0,0)">
            <path d="M15375,6565L15191,6566" style="fill:none;stroke:rgb(51,51,51);stroke-width:11.16px;"/>
        </g>
        <g transform="matrix(0.0588253,0,0,0.0588287,0,0)">
            <path d="M15008,6568L14824,6569" style="fill:none;stroke:rgb(51,51,51);stroke-width:11.16px;"/>
        </g>
        <g transform="matrix(0.0588253,0,0,0.0588287,0,0)">
            <path d="M14640,6570L14457,6571" style="fill:none;stroke:rgb(51,51,51);stroke-width:11.16px;"/>
        </g>
        <g transform="matrix(0.0588253,0,0,0.0588287,0,0)">
            <path d="M14273,6573L14089,6574" style="fill:none;stroke:rgb(51,51,51);stroke-width:11.16px;"/>
        </g>
        <g transform="matrix(0.0588253,0,0,0.0588287,0,0)">
            <path d="M13906,6575L13722,6576" style="fill:none;stroke:rgb(51,51,51);stroke-width:11.16px;"/>
        </g>
        <g transform="matrix(0.0588253,0,0,0.0588287,0,0)">
            <path d="M13539,6577L13355,6579" style="fill:none;stroke:rgb(51,51,51);stroke-width:11.16px;"/>
        </g>
        <g transform="matrix(0.0588253,0,0,0.0588287,0,0)">
            <path d="M13171,6580L12988,6581" style="fill:none;stroke:rgb(51,51,51);stroke-width:11.16px;"/>
        </g>
        <g transform="matrix(0.0588253,0,0,0.0588287,0,0)">
            <path d="M12804,6582L12620,6584" style="fill:none;stroke:rgb(51,51,51);stroke-width:11.16px;"/>
        </g>
        <g transform="matrix(0.0588253,0,0,0.0588287,0,0)">
            <path d="M12437,6585L12253,6586" style="fill:none;stroke:rgb(51,51,51);stroke-width:11.16px;"/>
        </g>
        <g transform="matrix(0.0588253,0,0,0.0588287,0,0)">
            <path d="M12069,6587L11886,6589" style="fill:none;stroke:rgb(51,51,51);stroke-width:11.16px;"/>
        </g>
        <g transform="matrix(0.0588253,0,0,0.0588287,0,0)">
            <path d="M11702,6590L11518,6591" style="fill:none;stroke:rgb(51,51,51);stroke-width:11.16px;"/>
        </g>
        <g transform="matrix(0.0588253,0,0,0.0588287,0,0)">
            <path d="M11335,6592L11151,6593" style="fill:none;stroke:rgb(51,51,51);stroke-width:11.16px;"/>
        </g>
        <g transform="matrix(0.0588253,0,0,0.0588287,0,0)">
            <path d="M10967,6595L10784,6596" style="fill:none;stroke:rgb(51,51,51);stroke-width:11.16px;"/>
        </g>
        <g transform="matrix(0.0588253,0,0,0.0588287,0,0)">
            <path d="M10600,6597L10416,6598" style="fill:none;stroke:rgb(51,51,51);stroke-width:11.16px;"/>
        </g>
        <g transform="matrix(0.0588253,0,0,0.0588287,0,0)">
            <path d="M10233,6600L10049,6601" style="fill:none;stroke:rgb(51,51,51);stroke-width:11.16px;"/>
        </g>
        <g transform="matrix(0.0588253,0,0,0.0588287,0,0)">
            <path d="M9865,6602L9682,6603" style="fill:none;stroke:rgb(51,51,51);stroke-width:11.16px;"/>
        </g>
        <g transform="matrix(0.0588253,0,0,0.0588287,0,0)">
            <path d="M9498,6604L9314,6606" style="fill:none;stroke:rgb(51,51,51);stroke-width:11.16px;"/>
        </g>
        <g transform="matrix(0.0588253,0,0,0.0588287,0,0)">
            <path d="M9131,6607L8947,6608" style="fill:none;stroke:rgb(51,51,51);stroke-width:11.16px;"/>
        </g>
        <g transform="matrix(0.0588253,0,0,0.0588287,0,0)">
            <path d="M8763,6609L8580,6611" style="fill:none;stroke:rgb(51,51,51);stroke-width:11.16px;"/>
        </g>
        <g transform="matrix(0.0588253,0,0,0.0588287,0,0)">
            <path d="M8396,6612L8212,6613" style="fill:none;stroke:rgb(51,51,51);stroke-width:11.16px;"/>
        </g>
        <g transform="matrix(0.0588253,0,0,0.0588287,0,0)">
            <path d="M8029,6614L7845,6616" style="fill:none;stroke:rgb(51,51,51);stroke-width:11.16px;"/>
        </g>
        <g transform="matrix(0.0588253,0,0,0.0588287,0,0)">
            <path d="M7661,6617L7478,6618" style="fill:none;stroke:rgb(51,51,51);stroke-width:11.16px;"/>
        </g>
        <g transform="matrix(0.0588253,0,0,0.0588287,0,0)">
            <path d="M7294,6619L7111,6620" style="fill:none;stroke:rgb(51,51,51);stroke-width:11.16px;"/>
        </g>
        <g transform="matrix(0.0588253,0,0,0.0588287,0,0)">
            <path d="M6927,6622L6652,6623" style="fill:none;stroke:rgb(51,51,51);stroke-width:11.16px;"/>
        </g>
    </g>
</svg>
