<?xml version="1.0" standalone="no"?>
<!DOCTYPE svg PUBLIC "-//W3C//DTD SVG 20010904//EN"
 "http://www.w3.org/TR/2001/REC-SVG-20010904/DTD/svg10.dtd">
<svg version="1.0" xmlns="http://www.w3.org/2000/svg"
 width="1269.000000pt" height="1280.000000pt" viewBox="0 0 1269.000000 1280.000000"
 preserveAspectRatio="xMidYMid meet">
<metadata>
Created by potrace 1.15, written by Peter Selinger 2001-2017
</metadata>
<g transform="translate(0.000000,1280.000000) scale(0.100000,-0.100000)"
fill="#000000" stroke="none">
<path d="M6340 12510 c-61 -23 -72 -24 -50 -9 22 16 -17 4 -140 -41 -58 -22
-145 -53 -194 -69 -168 -58 -205 -86 -536 -406 -152 -146 -538 -515 -675 -645
-55 -52 -138 -131 -185 -175 -811 -775 -855 -818 -845 -835 2 -4 -5 -16 -16
-26 -14 -12 -19 -26 -15 -44 3 -14 3 -19 0 -12 -4 7 -21 -11 -43 -45 -35 -55
-239 -256 -616 -610 -140 -131 -197 -192 -219 -232 -5 -9 4 -5 20 9 28 24 28
23 -3 -10 -17 -19 -33 -46 -36 -60 l-4 -25 -2 25 c-1 24 -2 24 -18 -7 -39 -71
-110 -137 -506 -466 -438 -365 -489 -404 -536 -413 -22 -5 -28 -11 -24 -23 3
-10 2 -12 -4 -5 -4 6 -76 30 -160 53 l-152 42 -42 -21 c-22 -12 -38 -17 -34
-11 9 16 -69 -17 -140 -58 -84 -48 -137 -88 -400 -300 -245 -197 -358 -298
-349 -312 3 -5 0 -9 -5 -9 -23 0 -130 -258 -116 -281 4 -5 -1 -32 -10 -59
l-17 -50 323 -655 c177 -360 326 -655 331 -655 4 0 78 20 164 45 153 44 192
53 167 37 -9 -5 -10 -17 -4 -37 8 -27 9 -28 10 -6 1 13 3 22 5 20 4 -4 13 -99
57 -599 10 -124 24 -268 29 -320 38 -391 54 -614 42 -618 -6 -2 -12 -15 -12
-28 0 -41 -75 -106 -148 -128 -41 -13 -58 -22 -50 -28 9 -5 4 -8 -14 -8 -17 0
-39 -12 -59 -33 -18 -17 -24 -22 -14 -9 10 12 16 24 13 27 -9 9 -162 -158
-217 -236 -72 -101 -138 -230 -108 -212 6 4 4 -5 -5 -20 -10 -14 -18 -37 -18
-50 0 -12 47 -257 105 -542 58 -286 123 -608 145 -715 93 -464 193 -950 205
-1004 13 -54 22 -68 89 -135 l75 -74 547 37 547 38 199 120 199 120 84 169 85
169 0 332 -1 333 -82 73 -82 73 -100 -6 c-91 -5 -102 -8 -128 -33 -23 -22 -27
-23 -21 -7 6 16 0 13 -32 -12 -69 -54 -170 -168 -232 -261 -107 -158 -142
-176 -349 -176 -104 -1 -129 -4 -121 -13 6 -7 18 -13 27 -14 10 0 12 -2 3 -6
-11 -4 -63 37 -213 167 -29 25 -30 31 -80 348 -28 178 -49 326 -47 328 3 2
184 40 404 85 219 44 399 82 400 82 0 1 22 30 47 64 26 34 47 64 47 67 0 4 51
79 114 168 62 88 112 168 110 177 -2 9 -34 171 -70 361 -36 190 -68 348 -72
351 -12 10 -187 82 -197 81 -44 -5 -255 -16 -317 -16 -62 -1 -78 -4 -79 -16
-2 -49 -35 117 -169 844 -82 446 -150 822 -152 836 -3 22 3 26 64 45 l67 20
105 166 c59 91 106 176 106 189 0 22 -217 1253 -225 1277 -2 7 221 186 518
413 l522 400 9 -52 c5 -29 10 -54 11 -55 0 -1 273 123 606 277 l604 279 12
-27 c7 -15 9 -36 6 -47 -3 -11 -2 -17 2 -13 5 4 13 1 19 -6 9 -11 69 10 336
121 578 239 814 333 821 325 7 -7 48 -161 350 -1307 221 -842 269 -1022 329
-1250 26 -99 71 -270 100 -380 29 -110 60 -229 70 -265 10 -36 41 -153 69
-260 28 -107 170 -647 315 -1200 145 -553 465 -1770 711 -2705 510 -1945 530
-2015 547 -2026 6 -4 24 -6 38 -3 14 2 113 18 220 33 195 29 303 61 323 97 4
7 15 10 23 7 13 -5 15 -15 10 -54 -8 -58 -14 -56 114 -28 90 19 110 29 110 56
0 7 12 19 28 27 76 39 1395 626 1407 626 8 0 43 -27 77 -61 35 -33 57 -58 51
-54 -10 4 -13 -6 -13 -37 0 -26 -18 -97 -45 -173 -25 -72 -43 -137 -40 -145 3
-8 -9 -51 -25 -95 -16 -44 -30 -83 -30 -88 0 -4 77 -6 171 -5 l171 3 43 138
c24 76 45 140 47 143 3 2 96 -81 209 -184 l204 -189 50 14 c78 21 195 26 209
9 15 -20 346 -36 346 -17 0 8 17 9 56 5 l55 -7 -16 39 c-28 65 -28 70 -1 39
31 -37 30 -45 10 176 -8 94 -13 173 -10 176 3 3 143 -78 313 -180 l308 -185
193 -6 193 -7 -5 78 c-3 43 -11 184 -17 313 -6 129 -12 236 -13 237 -1 2 -12
-28 -23 -65 -90 -285 -107 -332 -113 -322 -5 8 -19 10 -41 5 -47 -10 -52 -14
-37 -33 17 -21 -154 96 -512 351 l-285 202 -8 60 c-4 33 -18 175 -31 315 -18
189 -21 257 -12 262 6 4 247 147 536 316 l525 308 -3 105 c-2 57 -7 107 -11
112 -4 4 -45 -11 -91 -33 -46 -23 -90 -38 -97 -36 -8 3 -12 2 -9 -3 3 -4 -7
-13 -22 -20 -26 -11 -26 -11 -7 5 20 16 20 16 -3 9 -23 -7 -165 -74 -522 -247
-207 -100 -273 -125 -310 -115 -15 4 -20 0 -21 -16 -3 -56 -20 70 -43 318 -74
785 -87 927 -84 953 l3 29 595 -283 c327 -155 597 -283 600 -283 12 -2 44 111
34 117 -7 5 -5 64 6 178 9 94 15 186 12 204 -3 20 -141 248 -367 604 -199 314
-1310 2064 -2468 3889 -1634 2575 -2104 3322 -2097 3335 7 14 89 899 94 1015
l1 39 -60 19 c-68 22 -690 211 -987 300 -108 32 -205 59 -215 59 -10 -1 -43
-10 -73 -20z m339 -311 c44 2 49 -1 139 -79 50 -44 92 -83 92 -87 0 -4 -11 4
-24 16 -22 20 -29 22 -56 13 -20 -8 -39 -8 -56 -2 -40 16 -49 12 -28 -12 10
-12 13 -18 6 -14 -25 15 -92 108 -85 118 3 6 2 8 -4 5 -5 -3 -20 8 -33 25 -12
17 -17 27 -9 23 7 -5 33 -8 58 -6z m571 -117 c26 -7 29 -10 13 -11 -14 -1 -23
-7 -23 -16 0 -20 -60 -57 -83 -51 -18 4 -18 4 0 -17 23 -27 8 -17 -91 64 -43
35 -88 72 -100 81 -17 14 1 12 114 -12 74 -15 151 -32 170 -38z m-745 -267
c303 -117 311 -121 319 -140 3 -9 2 -14 -2 -12 -4 3 -8 -29 -8 -71 -2 -141
-87 -354 -147 -370 -15 -4 -16 -7 -5 -13 18 -12 -14 -11 -128 3 l-96 11 -139
278 -138 278 14 35 c8 20 22 52 30 72 18 43 -14 50 300 -71z m-632 24 c7 -1
15 -1 18 -1 3 1 13 -15 23 -34 9 -20 13 -33 9 -31 -5 3 -8 -23 -8 -56 0 -34
-3 -80 -8 -102 -7 -39 -7 -40 9 -15 19 30 15 16 -21 -73 -15 -38 -31 -64 -34
-58 -5 7 -22 4 -52 -11 -24 -11 -63 -21 -86 -22 -24 -1 -43 -5 -43 -10 0 -5
-2 -7 -5 -4 -7 7 13 61 101 269 43 101 80 176 82 167 2 -10 9 -19 15 -19z
m-365 -195 c-11 -11 -14 -27 -11 -54 9 -66 -70 -210 -141 -258 -19 -13 -61
-35 -93 -48 -44 -19 -50 -23 -23 -18 70 13 22 -5 -93 -35 -131 -34 -161 -39
-77 -11 30 11 47 19 38 19 -9 1 -21 8 -26 16 -7 14 -12 13 -35 -5 -116 -91
165 156 418 367 51 43 73 56 43 27z m23 -81 c-12 -20 -14 -14 -5 12 4 9 9 14
11 11 3 -2 0 -13 -6 -23z m-25 -60 c-8 -15 -15 -25 -16 -21 0 12 23 58 27 54
3 -2 -2 -17 -11 -33z m554 -13 c-8 -15 -6 -24 10 -40 49 -49 -1 -152 -57 -117
-7 4 -16 0 -22 -10 -17 -30 -12 -7 13 60 27 71 54 127 62 127 2 0 0 -9 -6 -20z
m44 -57 c14 -29 24 -53 21 -53 -5 0 -55 95 -55 106 0 12 6 2 34 -53z m-71
-150 c-7 -2 -19 -2 -25 0 -7 3 -2 5 12 5 14 0 19 -2 13 -5z m-1033 -87 c0 -2
-9 -6 -20 -9 -11 -3 -18 -1 -14 4 5 9 34 13 34 5z m611 -50 c-32 -6 -56 -17
-58 -26 -4 -12 -3 -13 5 -1 8 10 24 12 68 7 47 -5 64 -3 84 10 19 13 21 13 10
2 -29 -30 -249 -176 -243 -162 3 8 8 14 12 14 4 0 8 6 8 14 0 11 41 124 49
135 5 6 68 19 94 19 14 0 1 -5 -29 -12z m-332 -63 c-11 -3 -14 -12 -11 -33 7
-47 -17 -126 -57 -188 -62 -95 -197 -191 -274 -194 -22 -1 -34 -5 -31 -12 3
-6 -3 -1 -13 12 -27 35 -192 306 -189 310 3 2 455 93 526 105 33 6 70 6 49 0z
m975 -20 c-13 -53 -33 -79 -81 -105 -94 -50 -513 -150 -618 -147 -34 1 -72 -3
-85 -10 l-25 -12 24 18 c13 10 116 78 230 150 l206 133 178 0 177 0 -6 -27z
m1121 -412 c-3 -5 -1 -12 5 -16 5 -3 15 -25 21 -48 7 -23 15 -49 17 -57 11
-32 13 -303 3 -313 -6 -6 -11 -20 -11 -31 0 -33 -38 -86 -70 -100 -17 -7 -27
-16 -23 -21 5 -4 -41 18 -102 51 -60 32 -131 70 -157 84 -26 14 -48 27 -48 30
0 12 356 430 366 430 3 0 3 -4 -1 -9z m478 -323 c148 -230 450 -707 461 -728
4 -8 -2 -2 -14 13 l-22 28 -22 -23 -22 -23 25 -30 c37 -42 17 -25 -243 206
-127 112 -234 207 -240 211 -9 6 -67 341 -82 472 l-7 58 23 -12 c20 -11 22
-10 17 4 -4 9 -5 16 -3 16 3 0 60 -87 129 -192z m-2524 38 c-2 -2 -15 -9 -29
-16 -23 -12 -24 -12 -11 3 7 10 20 17 29 17 8 0 13 -2 11 -4z m276 -4 c-13 -5
-21 -18 -23 -36 -2 -16 -10 -43 -19 -60 -24 -49 -167 -237 -215 -283 -38 -37
-114 -80 -124 -71 -1 2 -4 66 -6 141 l-3 138 155 90 c141 81 159 89 205 88 30
-1 42 -4 30 -7z m506 -49 c-24 -35 -86 -103 -74 -83 15 25 84 110 89 110 3 0
-4 -12 -15 -27z m-1230 -20 c-5 -10 -17 -27 -26 -38 -16 -19 -17 -19 -3 5 26
46 29 50 34 50 3 0 0 -8 -5 -17z m187 -405 l-2 -103 -5 94 c-5 79 -8 92 -19
79 -9 -11 -10 -18 -2 -23 5 -3 10 -28 10 -54 0 -62 -39 -140 -93 -186 l-42
-36 37 16 c75 31 50 13 -42 -31 -52 -24 -100 -42 -108 -39 -7 2 -11 1 -8 -3 5
-9 -83 -56 -91 -48 -3 2 14 13 37 23 l42 18 -62 -2 c-34 -1 -67 -6 -73 -12 -6
-6 -14 -11 -19 -11 -4 0 52 58 125 128 128 125 308 292 314 292 2 0 2 -46 1
-102z m2046 -49 c-3 -5 1 -7 8 -4 7 3 71 -39 142 -92 l130 -98 -3 -71 c-3
-104 -15 -144 -54 -180 l-34 -33 -81 167 c-79 163 -142 300 -142 308 0 2 3 3
8 3 20 -3 23 3 11 19 -13 15 -12 16 3 3 10 -7 15 -17 12 -22z m-704 -61 c-4
-49 -5 -50 -8 -14 -3 34 2 66 10 66 2 0 1 -24 -2 -52z m-163 -40 c0 -7 10
-153 22 -325 21 -289 21 -314 6 -358 -23 -71 -34 -86 -66 -97 -18 -6 -26 -14
-22 -21 5 -9 3 -9 -8 -1 -8 6 -155 116 -327 244 l-314 234 49 24 c56 29 621
296 643 305 8 3 15 6 16 6 0 1 1 -5 1 -11z m1160 -215 c-2 -16 -4 -3 -4 27 0
30 2 43 4 28 2 -16 2 -40 0 -55z m-2737 12 c-14 -8 -29 -14 -35 -14 -5 0 1 6
15 14 14 8 30 14 35 14 6 0 -1 -6 -15 -14z m2958 -100 c-3 -36 -3 -65 1 -65
12 0 41 -68 42 -98 1 -20 4 -16 8 13 4 28 13 -36 29 -205 29 -306 36 -432 23
-405 -9 19 -10 19 -10 -3 -1 -13 -12 -29 -29 -40 -16 -9 -27 -24 -25 -32 2 -8
-16 23 -41 70 -55 103 -55 105 -26 520 11 157 20 291 20 298 0 6 3 12 6 12 4
0 4 -29 2 -65z m-231 -7 c-2 -13 -4 -3 -4 22 0 25 2 35 4 23 2 -13 2 -33 0
-45z m280 -65 c-2 -16 -4 -5 -4 22 0 28 2 40 4 28 2 -13 2 -35 0 -50z m716
-282 c114 -73 209 -136 211 -140 9 -14 -41 -96 -74 -123 -38 -29 -343 -175
-450 -214 -36 -13 -81 -24 -102 -24 -20 0 -38 -6 -41 -12 -2 -7 -7 12 -11 42
-7 62 -66 764 -66 792 0 18 38 -5 533 -321z m-1696 235 c11 -5 14 -2 9 11 -5
11 -4 14 2 8 14 -15 322 -716 322 -732 0 -4 -7 2 -15 13 -13 16 -14 16 -9 1 9
-24 -22 -67 -48 -67 -21 0 -21 0 -2 -22 10 -12 -19 7 -65 41 -71 54 -165 137
-284 251 l-29 27 36 199 c54 301 61 333 64 302 2 -14 10 -29 19 -32z m-1114
-299 c-3 -5 -1 -7 4 -4 6 4 28 -6 50 -22 22 -16 156 -106 296 -200 141 -95
260 -177 264 -184 4 -7 0 -7 -10 2 -10 8 -18 12 -20 10 -1 -2 1 -33 4 -69 4
-44 6 -54 8 -30 2 19 5 28 8 19 2 -9 -5 -112 -16 -230 -12 -118 -29 -302 -38
-409 -12 -130 -20 -183 -24 -160 -5 28 -7 30 -8 9 -2 -48 -33 -131 -57 -156
-13 -13 -24 -29 -25 -36 -1 -23 -42 105 -210 658 -259 854 -256 843 -233 824
7 -6 11 -16 7 -22z m2164 -409 c-3 -7 -5 -2 -5 12 0 14 2 19 5 13 2 -7 2 -19
0 -25z m1073 -13 c-10 -12 -10 -21 0 -46 8 -19 16 -26 20 -19 4 7 13 -17 20
-53 12 -66 12 -61 -27 -752 -5 -89 -9 -119 -14 -95 -3 19 -7 27 -8 18 -4 -53
-51 -98 -102 -98 -22 0 -22 0 -3 -15 15 -13 12 -13 -16 1 -30 14 -549 311
-558 320 -2 1 0 10 5 18 11 20 682 736 690 736 3 0 0 -7 -7 -15z m-2095 -238
c293 -200 545 -389 493 -371 -14 5 -18 1 -18 -21 0 -55 -25 -84 -218 -263
-510 -472 -618 -562 -667 -562 -13 0 -26 -6 -28 -12 -3 -7 -6 1 -6 19 -1 49
126 1378 134 1402 6 16 -14 29 310 -192z m2697 -562 c393 -665 492 -835 507
-865 l12 -25 -20 25 c-12 14 -19 18 -15 8 8 -24 -13 -58 -38 -58 -21 0 -21 0
-2 -22 26 -30 -6 -6 -324 237 -252 194 -261 201 -272 245 -36 142 -209 902
-219 962 -4 26 -4 45 1 42 4 -3 8 -11 8 -17 0 -7 9 -13 19 -13 15 0 17 4 10
17 -18 34 -9 33 14 -1 13 -19 157 -260 319 -535z m-9021 -62 c-12 -20 -14 -14
-5 12 4 9 9 14 11 11 3 -2 0 -13 -6 -23z m5706 -85 c-2 -13 -4 -5 -4 17 -1 22
1 32 4 23 2 -10 2 -28 0 -40z m2960 -150 c-3 -8 -6 -5 -6 6 -1 11 2 17 5 13 3
-3 4 -12 1 -19z m-40 -65 c-2 -16 -4 -3 -4 27 0 30 2 43 4 28 2 -16 2 -40 0
-55z m-1612 -123 c-3 -5 -2 -18 3 -27 6 -10 12 -115 15 -233 2 -118 1 -186 -3
-150 -5 47 -7 25 -5 -80 2 -102 0 -127 -5 -85 -5 39 -7 -2 -5 -115 1 -114 0
-152 -5 -110 -5 45 -7 19 -5 -85 2 -98 0 -129 -4 -90 l-8 60 -1 -71 c-4 -148
-35 -229 -93 -241 -25 -5 -27 -8 -17 -21 11 -13 11 -14 -2 -7 -15 8 -678 507
-813 611 l-67 52 97 86 c92 80 121 97 468 280 497 261 460 242 450 226z m32
-207 c-2 -21 -4 -6 -4 32 0 39 2 55 4 38 2 -18 2 -50 0 -70z m1175 -130 c53
-46 100 -87 103 -93 7 -11 35 -269 35 -323 0 -23 -4 -36 -10 -32 -5 3 -10 -2
-10 -13 0 -11 -11 -31 -25 -44 -16 -17 -23 -32 -20 -44 17 -54 -298 596 -349
722 -16 38 -16 39 2 15 15 -19 20 -20 25 -8 3 8 0 20 -6 28 -16 17 135 -106
255 -208z m408 -52 l95 -57 7 -74 c3 -41 11 -176 18 -300 6 -124 15 -301 20
-395 17 -304 23 -500 15 -493 -4 4 -16 -4 -27 -17 -11 -14 -26 -25 -34 -25
-11 0 -14 -7 -9 -22 3 -13 -11 8 -31 46 l-36 69 -58 611 c-63 658 -68 716 -60
715 3 0 48 -26 100 -58z m-1202 -105 c23 -20 23 -20 17 0 -20 63 52 -99 299
-672 152 -353 276 -645 276 -650 0 -5 -5 -2 -10 6 -7 11 -10 8 -10 -15 0 -36
-16 -55 -44 -55 -18 0 -18 -2 5 -27 29 -33 21 -28 -111 82 -73 61 -510 428
-553 465 -7 6 20 269 74 718 12 101 25 179 28 175 3 -4 16 -17 29 -27z m1952
-331 c519 -302 543 -317 532 -324 -5 -3 -12 -23 -16 -43 -9 -51 -80 -141 -168
-214 -63 -52 -361 -285 -540 -421 -63 -48 -131 -82 -165 -83 -13 0 -23 -5 -23
-12 0 -6 -2 -9 -5 -7 -2 3 -9 57 -15 120 -11 127 -90 1216 -90 1248 0 20 0 20
33 2 17 -11 223 -130 457 -266z m-1013 -22 c-3 -10 -5 -4 -5 12 0 17 2 24 5
18 2 -7 2 -21 0 -30z m-2401 -89 c-4 13 11 4 46 -26 485 -408 808 -687 783
-675 -6 3 -10 -40 -9 -121 0 -70 -3 -116 -6 -102 -9 36 -22 -65 -15 -122 3
-30 2 -35 -3 -18 -7 22 -9 18 -15 -27 -4 -28 -5 -71 -2 -95 3 -30 2 -35 -3
-18 -7 22 -9 18 -15 -27 -4 -28 -5 -71 -2 -95 3 -30 2 -35 -3 -18 -7 22 -9 18
-15 -27 -4 -28 -5 -71 -2 -95 3 -28 2 -35 -3 -18 -6 17 -17 -37 -38 -184 -16
-114 -26 -210 -22 -212 4 -3 8 -15 7 -27 -1 -20 -1 -20 -8 3 -5 19 -9 10 -20
-45 -15 -85 -45 -156 -76 -183 l-23 -20 -31 108 c-17 60 -53 192 -81 294 -27
102 -72 269 -100 371 -27 102 -72 267 -99 368 -27 100 -88 324 -135 497 -87
324 -136 513 -136 526 0 4 7 -1 16 -12 15 -18 15 -18 10 0z m4102 -641 c-1 -5
3 -18 10 -31 14 -25 33 -164 30 -227 -1 -40 -1 -40 -8 10 -7 49 -8 48 -8 -20
0 -38 -3 -78 -7 -88 -4 -10 -5 -53 -1 -95 6 -69 -2 -228 -34 -657 -5 -71 -10
-150 -11 -175 -1 -41 -2 -43 -9 -15 l-8 30 -1 -28 c-3 -66 -62 -137 -115 -137
-20 0 -20 0 0 -15 10 -8 -24 5 -76 29 -122 56 -621 305 -637 318 -9 7 -10 15
-2 30 6 11 172 235 369 497 315 420 365 482 426 528 66 51 86 62 82 46z m49
-150 c-3 -10 -5 -2 -5 17 0 19 2 27 5 18 2 -10 2 -26 0 -35z m-1320 -50 c-3
-10 -5 -2 -5 17 0 19 2 27 5 18 2 -10 2 -26 0 -35z m-1272 -195 c350 -211 760
-489 683 -462 -15 5 -18 0 -18 -23 0 -17 -13 -47 -30 -70 -31 -42 -1146 -1023
-1229 -1081 -25 -18 -64 -35 -86 -39 -22 -3 -44 -11 -48 -17 -9 -13 -12 -28
63 424 77 464 84 500 186 984 47 220 90 424 96 453 10 49 12 52 32 41 11 -6
169 -101 351 -210z m-728 165 c-3 -10 -5 -4 -5 12 0 17 2 24 5 18 2 -7 2 -21
0 -30z m-20 -140 c-3 -10 -5 -4 -5 12 0 17 2 24 5 18 2 -7 2 -21 0 -30z m3784
-100 c567 -876 1083 -1693 1086 -1721 3 -24 -3 -39 -21 -56 -18 -19 -21 -28
-12 -37 16 -19 24 -25 -402 296 -210 158 -387 295 -392 305 -16 31 -390 1301
-390 1324 0 8 3 8 8 1 4 -6 20 -19 35 -28 l28 -18 -16 30 c-32 62 -5 28 76
-96z m-464 40 c-2 -16 -4 -3 -4 27 0 30 2 43 4 28 2 -16 2 -40 0 -55z m-3340
-80 c-3 -10 -5 -4 -5 12 0 17 2 24 5 18 2 -7 2 -21 0 -30z m-20 -140 c-3 -10
-5 -4 -5 12 0 17 2 24 5 18 2 -7 2 -21 0 -30z m-20 -140 c-3 -10 -5 -4 -5 12
0 17 2 24 5 18 2 -7 2 -21 0 -30z m3589 -23 c8 0 18 -8 21 -17 6 -15 7 -15 13
1 5 15 65 -170 221 -688 27 -88 46 -162 44 -165 -3 -2 -5 1 -5 7 0 20 -18 13
-25 -9 -4 -11 -26 -29 -48 -40 -23 -10 -36 -19 -28 -19 8 0 12 -2 9 -6 -3 -3
-67 26 -143 63 l-137 68 7 115 c23 407 48 744 53 713 2 -13 10 -23 18 -23z
m-3609 -117 c-3 -10 -5 -4 -5 12 0 17 2 24 5 18 2 -7 2 -21 0 -30z m-10 -60
c-3 -10 -5 -4 -5 12 0 17 2 24 5 18 2 -7 2 -21 0 -30z m-10 -80 c-3 -10 -5 -4
-5 12 0 17 2 24 5 18 2 -7 2 -21 0 -30z m-10 -65 c-3 -7 -5 -2 -5 12 0 14 2
19 5 13 2 -7 2 -19 0 -25z m-4840 -4 c-3 -3 -12 -4 -19 -1 -8 3 -5 6 6 6 11 1
17 -2 13 -5z m4830 -71 c-3 -10 -5 -2 -5 17 0 19 2 27 5 18 2 -10 2 -26 0 -35z
m-5824 -110 c-7 -2 -19 -2 -25 0 -7 3 -2 5 12 5 14 0 19 -2 13 -5z m5804 -35
c-3 -7 -5 -2 -5 12 0 14 2 19 5 13 2 -7 2 -19 0 -25z m3390 -20 c-3 -7 -5 -2
-5 12 0 14 2 19 5 13 2 -7 2 -19 0 -25z m-107 -323 c25 -14 35 -23 23 -20 -16
4 -23 2 -23 -8 0 -22 -37 -50 -57 -43 -15 6 -14 4 3 -16 10 -12 -17 7 -60 43
-44 36 -77 67 -75 70 2 2 -4 15 -14 29 -20 29 -22 44 -4 35 6 -3 4 0 -6 7 -10
7 -26 19 -35 26 -22 16 188 -87 248 -123z m-1175 55 c30 -59 33 -80 4 -30 -11
19 -17 26 -14 15 25 -75 26 -91 10 -217 -9 -72 -14 -132 -11 -136 3 -3 6 8 7
24 0 16 3 24 5 17 5 -10 -132 -876 -141 -898 -3 -5 -3 17 0 50 l4 60 -14 -73
c-25 -129 -43 -178 -76 -206 -17 -14 -37 -26 -45 -26 -8 0 -14 -8 -15 -17 0
-10 -3 -13 -5 -7 -2 6 16 172 41 370 108 852 136 1068 141 1076 4 6 71 46 81
48 2 0 14 -22 28 -50z m970 -19 c-3 -3 -18 8 -33 23 l-27 29 32 -23 c18 -13
30 -26 28 -29z m-1275 -348 c-121 -928 -140 -1066 -146 -1072 -2 -2 -4 6 -4
19 l0 24 -29 -28 c-15 -15 -49 -33 -75 -41 -53 -16 32 -45 -796 270 -407 155
-550 212 -475 191 18 -5 18 -4 -3 13 l-23 20 62 36 c83 49 1130 635 1344 752
148 81 170 91 173 74 2 -11 -11 -127 -28 -258z m1218 19 c171 -151 152 -115
197 -373 28 -160 30 -187 10 -119 l-13 45 5 -56 c6 -58 -10 -129 -28 -129 -6
0 -7 -9 -4 -20 13 -41 -4 -18 -35 48 -162 341 -348 758 -327 731 6 -9 18 -14
25 -11 10 3 10 7 0 20 -30 36 26 -8 170 -136z m-901 46 c-3 -7 -5 -2 -5 12 0
14 2 19 5 13 2 -7 2 -19 0 -25z m1705 -260 l146 -70 11 -84 c6 -46 16 -123 21
-171 6 -49 15 -124 20 -168 6 -44 28 -237 50 -430 22 -192 44 -386 50 -430 15
-126 20 -203 11 -175 -7 23 -8 21 -14 -16 -14 -86 -155 -191 -272 -202 -27 -3
-53 -9 -56 -14 -6 -10 -64 105 -149 297 l-58 130 -57 605 c-49 524 -84 900
-85 907 0 3 182 -83 382 -179z m606 23 c83 -51 152 -95 152 -97 0 -3 -3 -3 -7
-1 -5 3 -51 31 -103 62 -52 31 -99 60 -105 63 -5 3 -4 -2 4 -11 19 -24 -2 -22
-51 5 -28 16 -38 27 -35 40 3 10 2 18 -1 18 -4 0 -18 10 -32 21 l-25 21 25
-14 c14 -8 94 -56 178 -107z m-231 72 c-3 -10 -5 -4 -5 12 0 17 2 24 5 18 2
-7 2 -21 0 -30z m-1877 -38 c8 0 25 -18 36 -40 52 -96 805 -1738 800 -1743 -3
-3 -6 1 -7 9 0 8 -5 -2 -12 -21 -7 -19 -22 -39 -34 -45 -21 -11 -21 -12 -5
-30 24 -25 -102 61 -568 393 -367 261 -405 290 -408 318 -3 28 150 1122 165
1181 l7 28 6 -25 c3 -14 12 -25 20 -25z m2095 -108 c6 -6 -21 7 -60 28 -38 21
-74 42 -80 48 -5 6 22 -7 60 -28 39 -21 75 -42 80 -48z m615 53 c6 -11 8 -20
6 -20 -3 0 -10 9 -16 20 -6 11 -8 20 -6 20 3 0 10 -9 16 -20z m-540 -96 c0 -2
-13 2 -30 11 -16 9 -30 18 -30 21 0 2 14 -2 30 -11 17 -9 30 -18 30 -21z m140
-10 c0 -2 -9 0 -20 6 -11 6 -20 13 -20 16 0 2 9 0 20 -6 11 -6 20 -13 20 -16z
m-70 -30 c0 -2 -9 0 -20 6 -11 6 -20 13 -20 16 0 2 9 0 20 -6 11 -6 20 -13 20
-16z m848 -450 c41 -46 23 -44 -65 7 -90 53 -133 84 -76 55 43 -21 50 -20 27
5 -15 17 -7 14 36 -10 30 -18 65 -43 78 -57z m-3451 -141 c-3 -10 -5 -2 -5 17
0 19 2 27 5 18 2 -10 2 -26 0 -35z m-10 -55 c-3 -7 -5 -2 -5 12 0 14 2 19 5
13 2 -7 2 -19 0 -25z m-1063 -376 c263 -158 475 -287 470 -289 -5 -2 -8 -33
-7 -70 2 -41 -14 -186 -40 -361 -24 -161 -39 -296 -35 -298 4 -3 8 -15 7 -27
-1 -20 -2 -20 -8 3 -5 20 -9 10 -17 -43 -6 -37 -7 -70 -2 -73 4 -3 7 -17 7
-32 -1 -27 -1 -27 -8 3 -6 28 -7 26 -14 -19 -4 -28 -5 -73 -2 -100 3 -36 2
-42 -4 -21 -6 27 -8 23 -15 -32 -4 -34 -5 -67 -1 -73 3 -5 -6 -101 -22 -212
-19 -139 -30 -193 -34 -173 -5 23 -7 25 -8 8 0 -12 -10 -46 -21 -74 -20 -51
-21 -79 -1 -79 5 0 12 10 15 23 2 12 2 -16 -1 -63 -3 -47 -7 -88 -10 -93 -2
-4 -35 82 -73 190 -37 109 -104 302 -148 428 -475 1362 -598 1721 -616 1799
l-7 28 58 -32 c32 -18 273 -161 537 -318z m-5746 -19 c-10 -2 -28 -2 -40 0
-13 2 -5 4 17 4 22 1 32 -1 23 -4z m-135 -10 c-13 -2 -33 -2 -45 0 -13 2 -3 4
22 4 25 0 35 -2 23 -4z m6364 -385 c-3 -8 -6 -5 -6 6 -1 11 2 17 5 13 3 -3 4
-12 1 -19z m966 -427 c307 -286 371 -347 338 -327 -5 3 -11 -9 -15 -26 -12
-63 -74 -104 -447 -297 -324 -168 -410 -215 -354 -195 29 11 15 -1 -25 -20
-32 -16 -34 -16 -15 0 23 18 20 18 -50 -16 -61 -29 -165 -38 -165 -14 0 16
239 1113 266 1219 24 95 20 93 72 43 26 -25 203 -190 395 -367z m-976 347 c-3
-7 -5 -2 -5 12 0 14 2 19 5 13 2 -7 2 -19 0 -25z m-10 -60 c-3 -7 -5 -2 -5 12
0 14 2 19 5 13 2 -7 2 -19 0 -25z m-10 -75 c-3 -10 -5 -4 -5 12 0 17 2 24 5
18 2 -7 2 -21 0 -30z m-10 -65 c-3 -7 -5 -2 -5 12 0 14 2 19 5 13 2 -7 2 -19
0 -25z m-10 -80 c-3 -7 -5 -2 -5 12 0 14 2 19 5 13 2 -7 2 -19 0 -25z m1656
-75 c120 -79 147 -100 112 -87 -9 4 -15 0 -15 -9 0 -19 -23 -38 -49 -40 -24
-1 -26 -8 -9 -25 7 -7 9 -12 6 -12 -3 0 -54 53 -114 118 -60 64 -97 107 -83
95 24 -22 25 -22 36 -3 11 16 8 22 -15 40 -43 34 -6 12 131 -77z m-1666 15
c-3 -7 -5 -2 -5 12 0 14 2 19 5 13 2 -7 2 -19 0 -25z m2875 -16 c-8 -5 -10
-16 -6 -27 7 -18 8 -18 14 1 5 12 10 -6 14 -51 12 -117 13 -141 9 -124 -3 13
-11 9 -37 -17 -19 -19 -44 -34 -56 -34 -13 0 -18 -4 -15 -11 4 -6 -24 10 -63
36 -66 44 -102 89 -85 106 14 14 217 129 228 129 5 0 4 -4 -3 -8z m-2885 -64
c-3 -7 -5 -2 -5 12 0 14 2 19 5 13 2 -7 2 -19 0 -25z m-10 -60 c-3 -7 -5 -2
-5 12 0 14 2 19 5 13 2 -7 2 -19 0 -25z m-20 -140 c-3 -7 -5 -2 -5 12 0 14 2
19 5 13 2 -7 2 -19 0 -25z m-20 -140 c-3 -7 -5 -2 -5 12 0 14 2 19 5 13 2 -7
2 -19 0 -25z m-20 -145 c-3 -10 -5 -4 -5 12 0 17 2 24 5 18 2 -7 2 -21 0 -30z
m2269 -3 c-3 -17 -2 -29 3 -26 11 7 26 -11 35 -42 9 -28 -18 -41 -48 -22 -20
12 -20 12 -7 -6 8 -10 26 -32 40 -49 15 -17 7 -13 -18 11 l-43 41 18 62 c20
65 31 82 20 31z m-1336 -135 c0 -3 -45 -27 -100 -55 -55 -28 -100 -48 -100
-45 0 4 186 102 198 104 1 1 2 -1 2 -4z m-211 -109 c-10 -9 -69 -36 -69 -32 0
7 52 35 64 36 5 0 7 -2 5 -4z m-179 -91 c0 -6 -76 -45 -87 -45 -4 1 12 12 37
25 50 27 50 27 50 20z m-613 -162 c-3 -10 -5 -2 -5 17 0 19 2 27 5 18 2 -10 2
-26 0 -35z m3242 -80 c12 -24 20 -43 18 -43 -9 0 -55 78 -50 84 8 7 6 9 32
-41z m-3129 -48 c0 -16 -9 -19 -36 -8 -16 6 -16 7 2 14 29 11 34 10 34 -6z"/>
<path d="M6645 12180 c3 -5 12 -7 20 -3 21 7 19 13 -6 13 -11 0 -18 -4 -14
-10z"/>
<path d="M5522 11053 c-22 -50 -21 -67 2 -42 12 12 30 89 22 89 -2 0 -13 -21
-24 -47z"/>
<path d="M7412 10400 c0 -19 2 -27 5 -17 2 9 2 25 0 35 -3 9 -5 1 -5 -18z"/>
<path d="M6271 9144 c0 -11 3 -14 6 -6 3 7 2 16 -1 19 -3 4 -6 -2 -5 -13z"/>
<path d="M8832 8005 c0 -16 2 -22 5 -12 2 9 2 23 0 30 -3 6 -5 -1 -5 -18z"/>
<path d="M8821 7774 c0 -11 3 -14 6 -6 3 7 2 16 -1 19 -3 4 -6 -2 -5 -13z"/>
<path d="M9111 6844 c0 -11 3 -14 6 -6 3 7 2 16 -1 19 -3 4 -6 -2 -5 -13z"/>
<path d="M10472 5195 c0 -16 2 -22 5 -12 2 9 2 23 0 30 -3 6 -5 -1 -5 -18z"/>
<path d="M9110 4121 c0 -6 4 -13 10 -16 6 -3 7 1 4 9 -7 18 -14 21 -14 7z"/>
<path d="M9122 3680 c0 -14 2 -19 5 -12 2 6 2 18 0 25 -3 6 -5 1 -5 -13z"/>
<path d="M9071 3374 c0 -11 3 -14 6 -6 3 7 2 16 -1 19 -3 4 -6 -2 -5 -13z"/>
<path d="M9062 3310 c0 -14 2 -19 5 -12 2 6 2 18 0 25 -3 6 -5 1 -5 -13z"/>
<path d="M9052 3250 c0 -14 2 -19 5 -12 2 6 2 18 0 25 -3 6 -5 1 -5 -13z"/>
<path d="M9042 3180 c0 -14 2 -19 5 -12 2 6 2 18 0 25 -3 6 -5 1 -5 -13z"/>
<path d="M9032 3130 c0 -14 2 -19 5 -12 2 6 2 18 0 25 -3 6 -5 1 -5 -13z"/>
<path d="M9022 3065 c0 -16 2 -22 5 -12 2 9 2 23 0 30 -3 6 -5 -1 -5 -18z"/>
<path d="M9012 3005 c0 -16 2 -22 5 -12 2 9 2 23 0 30 -3 6 -5 -1 -5 -18z"/>
<path d="M11330 3616 c0 -3 14 -12 30 -21 17 -9 30 -13 30 -11 0 3 -13 12 -30
21 -16 9 -30 13 -30 11z"/>
<path d="M8242 905 c0 -16 2 -22 5 -12 2 9 2 23 0 30 -3 6 -5 -1 -5 -18z"/>
<path d="M8130 421 c0 -6 4 -13 10 -16 6 -3 7 1 4 9 -7 18 -14 21 -14 7z"/>
</g>
</svg>
