<?xml version="1.0" encoding="UTF-8" standalone="no"?>
<svg
   xmlns:dc="http://purl.org/dc/elements/1.1/"
   xmlns:cc="http://creativecommons.org/ns#"
   xmlns:rdf="http://www.w3.org/1999/02/22-rdf-syntax-ns#"
   xmlns:svg="http://www.w3.org/2000/svg"
   xmlns="http://www.w3.org/2000/svg"
   xmlns:sodipodi="http://sodipodi.sourceforge.net/DTD/sodipodi-0.dtd"
   xmlns:inkscape="http://www.inkscape.org/namespaces/inkscape"
   sodipodi:docname="AI_arbre_isolé.wmf"
   id="svg9"
   height="288.02541mm"
   width="287.51388mm"
   version="1.0">
  <metadata
     id="metadata13">
    <rdf:RDF>
      <cc:Work
         rdf:about="">
        <dc:format>image/svg+xml</dc:format>
        <dc:type
           rdf:resource="http://purl.org/dc/dcmitype/StillImage" />
      </cc:Work>
    </rdf:RDF>
  </metadata>
  <sodipodi:namedview
     id="namedview11"
     inkscape:window-height="480"
     inkscape:window-width="640"
     inkscape:pageshadow="2"
     inkscape:pageopacity="0"
     guidetolerance="10"
     gridtolerance="10"
     objecttolerance="10"
     borderopacity="1"
     inkscape:document-rotation="0"
     bordercolor="#666666"
     pagecolor="#ffffff" />
  <defs
     id="defs3">
    <pattern
       y="0"
       x="0"
       height="6"
       width="6"
       patternUnits="userSpaceOnUse"
       id="WMFhbasepattern" />
  </defs>
  <path
     id="path5"
     d="  M 708.4,955.8   L 889.66667,961.13333   L 986.73333,842.73333   L 976.06667,719   L 1076.3333,641.13333   L 1004.8667,389.46667   L 854.53333,305.2   L 852.4,108.93333   L 633.73333,10.8   L 370.26667,115.33333   L 239.06667,86.533333   L 51.333333,311.6   L 145.2,499.26667   L 9.7333333,681.66667   L 129.2,908.86667   L 313.73333,915.26667   L 431.06667,1046.4667   L 639.06667,1077.4  z "
     style="fill:none;stroke:#000000;stroke-width:4.2666669px;stroke-linecap:round;stroke-linejoin:round;stroke-miterlimit:4;stroke-dasharray:none;stroke-opacity:1;" />
  <path
     id="path7"
     d="  M 534.73333,1059.2   L 432.6,1043.9333   L 374.26667,978.6   L 315.86667,913.33333   L 305.8,912.53333   L 274.53333,911.2   L 213.53333,909.06667   L 155.4,907.06667   L 131.13333,906.2   L 71.866667,793.73333   L 13.866667,681.2   L 33.8,654   L 81,590.46667   L 128.06667,526.8   L 147.6,499.46667   L 134,471.06667   L 101.13333,405   L 54.666667,312.06667   L 147.46667,200.86667   L 240.26667,89.6   L 305.46667,103.93333   L 370.6,118.2   L 502.13333,66.066667   L 633.66667,13.866667   L 741.66667,62.333333   L 849.66667,110.8   L 850.6,206.73333   L 851.4,275.13333   L 852.06667,305.06667   L 869.53333,316.46667   L 927.13333,349.2   L 982.2,380.46667   L 1002.8,393.33333   L 1038.2,516.86667   L 1072.7333,639.53333   L 1058.2,651.4   L 1023.2,678.86667   L 984.4,709.53333   L 973.6,719.86667   L 975,738   L 978.4,778   L 981.86667,818.53333   L 983.26667,838   L 975.86667,850.8   L 935.93333,900.26667   L 902.46667,941.13333   L 888.46667,958.26667   L 861.93333,957.6   L 798.26667,955.66667   L 721.8,953.66667   L 706.2,954.93333   L 695,973.6   L 670.8,1015.8   L 647.06667,1057.4   L 637.06667,1074.6667   L 606.86667,1070.0667  z "
     style="fill:#00ff00;fill-rule:evenodd;fill-opacity:1;stroke:#ff0000;stroke-width:2.6666667px;stroke-linecap:round;stroke-linejoin:round;stroke-miterlimit:4;stroke-dasharray:none;stroke-opacity:1;" />
</svg>
