<?xml version="1.0" encoding="UTF-8" standalone="no"?>
<svg
   xmlns:dc="http://purl.org/dc/elements/1.1/"
   xmlns:cc="http://creativecommons.org/ns#"
   xmlns:rdf="http://www.w3.org/1999/02/22-rdf-syntax-ns#"
   xmlns:svg="http://www.w3.org/2000/svg"
   xmlns="http://www.w3.org/2000/svg"
   xmlns:sodipodi="http://sodipodi.sourceforge.net/DTD/sodipodi-0.dtd"
   xmlns:inkscape="http://www.inkscape.org/namespaces/inkscape"
   sodipodi:docname="HD1.wmf"
   id="svg225"
   height="235.65556mm"
   width="236.78445mm"
   version="1.0">
  <metadata
     id="metadata229">
    <rdf:RDF>
      <cc:Work
         rdf:about="">
        <dc:format>image/svg+xml</dc:format>
        <dc:type
           rdf:resource="http://purl.org/dc/dcmitype/StillImage" />
      </cc:Work>
    </rdf:RDF>
  </metadata>
  <sodipodi:namedview
     id="namedview227"
     inkscape:window-height="480"
     inkscape:window-width="640"
     inkscape:pageshadow="2"
     inkscape:pageopacity="0"
     guidetolerance="10"
     gridtolerance="10"
     objecttolerance="10"
     borderopacity="1"
     inkscape:document-rotation="0"
     bordercolor="#666666"
     pagecolor="#ffffff" />
  <defs
     id="defs221">
    <pattern
       y="0"
       x="0"
       height="6"
       width="6"
       patternUnits="userSpaceOnUse"
       id="WMFhbasepattern" />
  </defs>
  <path
     id="path223"
     d="  M 872.46667,445.8   L 863.93333,358.33333   L 836.2,273   L 792.46667,196.2   L 732.73333,130.06667   L 661.26667,77.8   L 580.2,41.533333   L 493.8,22.333333   L 404.2,22.333333   L 317.8,40.466667   L 236.73333,76.733333   L 164.2,129   L 104.46667,194.06667   L 59.666667,271.93333   L 31.933333,356.2   L 22.333333,443.66667   L 31.933333,532.2   L 59.666667,617.53333   L 103.4,694.33333   L 163.13333,760.46667   L 234.6,812.73333   L 315.66667,849   L 402.06667,868.2   L 491.66667,868.2   L 578.06667,850.06667   L 659.13333,813.8   L 731.66667,761.53333   L 791.4,696.46667   L 836.2,618.6   L 863.93333,534.33333  z "
     style="fill:none;stroke:#000000;stroke-width:4.2666669px;stroke-linecap:round;stroke-linejoin:round;stroke-miterlimit:4;stroke-dasharray:none;stroke-opacity:1;" />
</svg>
