<?xml version="1.0" encoding="UTF-8" standalone="no"?>
<svg
   xmlns:dc="http://purl.org/dc/elements/1.1/"
   xmlns:cc="http://creativecommons.org/ns#"
   xmlns:rdf="http://www.w3.org/1999/02/22-rdf-syntax-ns#"
   xmlns:svg="http://www.w3.org/2000/svg"
   xmlns="http://www.w3.org/2000/svg"
   xmlns:sodipodi="http://sodipodi.sourceforge.net/DTD/sodipodi-0.dtd"
   xmlns:inkscape="http://www.inkscape.org/namespaces/inkscape"
   sodipodi:docname="HE7.wmf"
   id="svg404"
   height="294.07556mm"
   width="294.07556mm"
   version="1.0">
  <metadata
     id="metadata408">
    <rdf:RDF>
      <cc:Work
         rdf:about="">
        <dc:format>image/svg+xml</dc:format>
        <dc:type
           rdf:resource="http://purl.org/dc/dcmitype/StillImage" />
      </cc:Work>
    </rdf:RDF>
  </metadata>
  <sodipodi:namedview
     id="namedview406"
     inkscape:window-height="480"
     inkscape:window-width="640"
     inkscape:pageshadow="2"
     inkscape:pageopacity="0"
     guidetolerance="10"
     gridtolerance="10"
     objecttolerance="10"
     borderopacity="1"
     inkscape:document-rotation="0"
     bordercolor="#666666"
     pagecolor="#ffffff" />
  <defs
     id="defs396">
    <pattern
       y="0"
       x="0"
       height="6"
       width="6"
       patternUnits="userSpaceOnUse"
       id="WMFhbasepattern" />
  </defs>
  <path
     id="path398"
     d="  M 22.333333,1089   L 22.333333,22.333333   L 1089,22.333333   L 1089,1089  z "
     style="fill:none;stroke:#000000;stroke-width:4.2666669px;stroke-linecap:round;stroke-linejoin:round;stroke-miterlimit:4;stroke-dasharray:none;stroke-opacity:1;" />
  <path
     id="path400"
     d="  M 370.06667,555.66667   L 373.26667,518.33333   L 385,482.06667   L 404.2,449   L 429.8,421.26667   L 460.73333,398.86667   L 494.86667,382.86667   L 532.2,375.4   L 570.6,375.4   L 607.93333,382.86667   L 642.06667,398.86667   L 673,421.26667   L 698.6,449   L 717.8,482.06667   L 729.53333,518.33333   L 733.8,555.66667   L 729.53333,594.06667   L 717.8,630.33333   L 698.6,663.4   L 673,691.13333   L 642.06667,713.53333   L 607.93333,729.53333   L 570.6,737   L 532.2,737   L 494.86667,729.53333   L 460.73333,713.53333   L 429.8,691.13333   L 404.2,663.4   L 385,630.33333   L 373.26667,594.06667  z "
     style="fill:none;stroke:#000000;stroke-width:4.2666669px;stroke-linecap:round;stroke-linejoin:round;stroke-miterlimit:4;stroke-dasharray:none;stroke-opacity:1;" />
  <path
     id="path402"
     d="  M 398.86667,742.33333   L 722.06667,370.06667  "
     style="fill:none;stroke:#000000;stroke-width:4.2666669px;stroke-linecap:round;stroke-linejoin:round;stroke-miterlimit:4;stroke-dasharray:none;stroke-opacity:1;" />
</svg>
