<?xml version="1.0" encoding="UTF-8" standalone="no"?>
<!DOCTYPE svg PUBLIC "-//W3C//DTD SVG 1.1//EN" "http://www.w3.org/Graphics/SVG/1.1/DTD/svg11.dtd">
<svg width="100%" height="100%" viewBox="0 0 580 580" version="1.1" xmlns="http://www.w3.org/2000/svg" xmlns:xlink="http://www.w3.org/1999/xlink" xml:space="preserve" xmlns:serif="http://www.serif.com/" style="fill-rule:evenodd;clip-rule:evenodd;stroke-linejoin:round;stroke-miterlimit:2;">
    <path d="M170.847,479.718c-36.582,-20.633 -58.877,-68.876 -42.415,-140.977c11.548,-50.58 45.201,-113.004 19.41,-164.982c31.286,21.625 63.813,73.047 96.618,131.125c2.262,-62.808 -30.329,-103.959 -6.901,-189.787c16.076,106.179 80.559,112.76 113.296,209.339c13.925,-45.408 42.891,-60.354 28.756,-173.107c142.343,194.397 61.214,263.454 32.781,332.988l9.201,-96.618c-44.644,129.05 -80.412,152.857 -112.721,181.734c18.057,-60.578 25.178,-121.156 -11.502,-181.734c-8.906,99.462 -34.04,78.764 -39.108,158.73c-50.254,-37.93 -60.576,-76.838 -69.588,-140.327c-6.836,7.431 -18.381,38.482 -17.827,73.616Z" style="fill:param(fill) black;stroke:param(outline) white;stroke-width:param(outline-width) 1mm;"/>
    <path d="M274.941,15.604c-37.226,151.158 30.739,149.83 68.438,238.67c26.443,-136.987 -52.662,-106.165 -68.438,-238.67Z" style="fill:param(fill) black;stroke:param(outline) white;param(outline-width) 1mm;"/>
</svg>
