<?xml version="1.0" encoding="UTF-8" standalone="no"?>
<svg
   xmlns:dc="http://purl.org/dc/elements/1.1/"
   xmlns:cc="http://creativecommons.org/ns#"
   xmlns:rdf="http://www.w3.org/1999/02/22-rdf-syntax-ns#"
   xmlns:svg="http://www.w3.org/2000/svg"
   xmlns="http://www.w3.org/2000/svg"
   xmlns:sodipodi="http://sodipodi.sourceforge.net/DTD/sodipodi-0.dtd"
   xmlns:inkscape="http://www.inkscape.org/namespaces/inkscape"
   sodipodi:docname="HI9.wmf"
   id="svg682"
   height="182.03333mm"
   width="182.88mm"
   version="1.0">
  <metadata
     id="metadata686">
    <rdf:RDF>
      <cc:Work
         rdf:about="">
        <dc:format>image/svg+xml</dc:format>
        <dc:type
           rdf:resource="http://purl.org/dc/dcmitype/StillImage" />
      </cc:Work>
    </rdf:RDF>
  </metadata>
  <sodipodi:namedview
     id="namedview684"
     inkscape:window-height="480"
     inkscape:window-width="640"
     inkscape:pageshadow="2"
     inkscape:pageopacity="0"
     guidetolerance="10"
     gridtolerance="10"
     objecttolerance="10"
     borderopacity="1"
     inkscape:document-rotation="0"
     bordercolor="#666666"
     pagecolor="#ffffff" />
  <defs
     id="defs678">
    <pattern
       y="0"
       x="0"
       height="6"
       width="6"
       patternUnits="userSpaceOnUse"
       id="WMFhbasepattern" />
  </defs>
  <path
     id="path680"
     d="  M 668.73333,343.4   L 662.33333,277.26667   L 641,212.2   L 607.93333,153.53333   L 562.06667,103.4   L 507.66667,63.933333   L 445.8,36.2   L 379.66667,22.333333   L 312.46667,22.333333   L 246.33333,36.2   L 184.46667,63.933333   L 130.06667,103.4   L 84.2,153.53333   L 51.133333,212.2   L 29.8,277.26667   L 22.333333,343.4   L 29.8,410.6   L 51.133333,475.66667   L 84.2,534.33333   L 130.06667,584.46667   L 184.46667,623.93333   L 246.33333,651.66667   L 312.46667,665.53333   L 379.66667,665.53333   L 445.8,651.66667   L 507.66667,623.93333   L 562.06667,584.46667   L 607.93333,534.33333   L 641,475.66667   L 662.33333,410.6  z "
     style="fill:none;stroke:#000000;stroke-width:4.2666669px;stroke-linecap:round;stroke-linejoin:round;stroke-miterlimit:4;stroke-dasharray:none;stroke-opacity:1;" />
</svg>
