<?xml version="1.0" encoding="UTF-8" standalone="no"?>
<svg
   xmlns:dc="http://purl.org/dc/elements/1.1/"
   xmlns:cc="http://creativecommons.org/ns#"
   xmlns:rdf="http://www.w3.org/1999/02/22-rdf-syntax-ns#"
   xmlns:svg="http://www.w3.org/2000/svg"
   xmlns="http://www.w3.org/2000/svg"
   xmlns:sodipodi="http://sodipodi.sourceforge.net/DTD/sodipodi-0.dtd"
   xmlns:inkscape="http://www.inkscape.org/namespaces/inkscape"
   sodipodi:docname="HID.wmf"
   id="svg721"
   height="181.18666mm"
   width="181.18666mm"
   version="1.0">
  <metadata
     id="metadata725">
    <rdf:RDF>
      <cc:Work
         rdf:about="">
        <dc:format>image/svg+xml</dc:format>
        <dc:type
           rdf:resource="http://purl.org/dc/dcmitype/StillImage" />
      </cc:Work>
    </rdf:RDF>
  </metadata>
  <sodipodi:namedview
     id="namedview723"
     inkscape:window-height="480"
     inkscape:window-width="640"
     inkscape:pageshadow="2"
     inkscape:pageopacity="0"
     guidetolerance="10"
     gridtolerance="10"
     objecttolerance="10"
     borderopacity="1"
     inkscape:document-rotation="0"
     bordercolor="#666666"
     pagecolor="#ffffff" />
  <defs
     id="defs715">
    <pattern
       y="0"
       x="0"
       height="6"
       width="6"
       patternUnits="userSpaceOnUse"
       id="WMFhbasepattern" />
  </defs>
  <path
     id="path717"
     d="  M 22.333333,342.33333   L 26.6,392.46667   L 38.333333,441.53333   L 57.533333,488.46667   L 84.2,531.13333   L 116.2,569.53333   L 154.6,601.53333   L 197.26667,628.2   L 244.2,647.4   L 293.26667,659.13333   L 342.33333,662.33333   L 392.46667,659.13333   L 441.53333,647.4   L 488.46667,628.2   L 531.13333,601.53333   L 569.53333,569.53333   L 601.53333,531.13333   L 628.2,488.46667   L 647.4,441.53333   L 659.13333,392.46667   L 662.33333,343.4  "
     style="fill:none;stroke:#000000;stroke-width:4.2666669px;stroke-linecap:round;stroke-linejoin:round;stroke-miterlimit:4;stroke-dasharray:none;stroke-opacity:1;" />
  <path
     id="path719"
     d="  M 662.33333,342.33333   L 659.13333,293.26667   L 647.4,244.2   L 628.2,197.26667   L 601.53333,154.6   L 569.53333,116.2   L 531.13333,84.2   L 488.46667,57.533333   L 441.53333,38.333333   L 392.46667,26.6   L 343.4,22.333333   L 293.26667,26.6   L 244.2,38.333333   L 197.26667,57.533333   L 154.6,84.2   L 116.2,116.2   L 84.2,154.6   L 57.533333,197.26667   L 38.333333,244.2   L 26.6,293.26667   L 23.4,342.33333  "
     style="fill:none;stroke:#000000;stroke-width:4.2666669px;stroke-linecap:round;stroke-linejoin:round;stroke-miterlimit:4;stroke-dasharray:none;stroke-opacity:1;" />
</svg>
