<?xml version="1.0" encoding="UTF-8" standalone="no"?>
<svg
   xmlns:dc="http://purl.org/dc/elements/1.1/"
   xmlns:cc="http://creativecommons.org/ns#"
   xmlns:rdf="http://www.w3.org/1999/02/22-rdf-syntax-ns#"
   xmlns:svg="http://www.w3.org/2000/svg"
   xmlns="http://www.w3.org/2000/svg"
   xmlns:sodipodi="http://sodipodi.sourceforge.net/DTD/sodipodi-0.dtd"
   xmlns:inkscape="http://www.inkscape.org/namespaces/inkscape"
   sodipodi:docname="HKA.wmf"
   id="svg883"
   height="116.84mm"
   width="117.12222mm"
   version="1.0">
  <metadata
     id="metadata887">
    <rdf:RDF>
      <cc:Work
         rdf:about="">
        <dc:format>image/svg+xml</dc:format>
        <dc:type
           rdf:resource="http://purl.org/dc/dcmitype/StillImage" />
      </cc:Work>
    </rdf:RDF>
  </metadata>
  <sodipodi:namedview
     id="namedview885"
     inkscape:window-height="480"
     inkscape:window-width="640"
     inkscape:pageshadow="2"
     inkscape:pageopacity="0"
     guidetolerance="10"
     gridtolerance="10"
     objecttolerance="10"
     borderopacity="1"
     inkscape:document-rotation="0"
     bordercolor="#666666"
     pagecolor="#ffffff" />
  <defs
     id="defs877">
    <pattern
       y="0"
       x="0"
       height="6"
       width="6"
       patternUnits="userSpaceOnUse"
       id="WMFhbasepattern" />
  </defs>
  <path
     id="path879"
     d="  M 420.2,219.66667   L 415.93333,179.13333   L 403.13333,139.66667   L 382.86667,103.4   L 354.06667,72.466667   L 321,47.933333   L 282.6,30.866667   L 242.06667,22.333333   L 200.46667,23.4   L 159.93333,31.933333   L 121.53333,49   L 88.466667,73.533333   L 60.733333,104.46667   L 39.4,140.73333   L 26.6,180.2   L 22.333333,221.8   L 27.666667,262.33333   L 40.466667,301.8   L 60.733333,338.06667   L 89.533333,369   L 122.6,393.53333   L 161,410.6   L 201.53333,419.13333   L 243.13333,418.06667   L 283.66667,409.53333   L 322.06667,392.46667   L 355.13333,367.93333   L 382.86667,337   L 404.2,300.73333   L 417,261.26667  z "
     style="fill:none;stroke:#000000;stroke-width:4.2666669px;stroke-linecap:round;stroke-linejoin:round;stroke-miterlimit:4;stroke-dasharray:none;stroke-opacity:1;" />
  <path
     id="path881"
     d="  M 219.66667,114.06667   L 198.33333,117.26667   L 177,124.73333   L 157.8,135.4   L 140.73333,150.33333   L 127.93333,169.53333   L 119.4,189.8   L 114.06667,211.13333   L 115.13333,233.53333   L 119.4,255.93333   L 129,276.2   L 141.8,294.33333   L 158.86667,309.26667   L 179.13333,319.93333   L 200.46667,327.4   L 221.8,328.46667   L 244.2,326.33333   L 265.53333,318.86667   L 284.73333,308.2   L 301.8,293.26667   L 314.6,274.06667   L 323.13333,253.8   L 328.46667,232.46667   L 327.4,210.06667   L 323.13333,187.66667   L 313.53333,167.4   L 300.73333,149.26667   L 283.66667,134.33333   L 263.4,123.66667   L 242.06667,116.2  z "
     style="fill:none;stroke:#000000;stroke-width:4.2666669px;stroke-linecap:round;stroke-linejoin:round;stroke-miterlimit:4;stroke-dasharray:none;stroke-opacity:1;" />
</svg>
