<?xml version="1.0" encoding="UTF-8" standalone="no"?>
<svg
   xmlns:dc="http://purl.org/dc/elements/1.1/"
   xmlns:cc="http://creativecommons.org/ns#"
   xmlns:rdf="http://www.w3.org/1999/02/22-rdf-syntax-ns#"
   xmlns:svg="http://www.w3.org/2000/svg"
   xmlns="http://www.w3.org/2000/svg"
   xmlns:sodipodi="http://sodipodi.sourceforge.net/DTD/sodipodi-0.dtd"
   xmlns:inkscape="http://www.inkscape.org/namespaces/inkscape"
   sodipodi:docname="HL4.wmf"
   id="svg950"
   height="152.68222mm"
   width="184.29111mm"
   version="1.0">
  <metadata
     id="metadata954">
    <rdf:RDF>
      <cc:Work
         rdf:about="">
        <dc:format>image/svg+xml</dc:format>
        <dc:type
           rdf:resource="http://purl.org/dc/dcmitype/StillImage" />
      </cc:Work>
    </rdf:RDF>
  </metadata>
  <sodipodi:namedview
     id="namedview952"
     inkscape:window-height="480"
     inkscape:window-width="640"
     inkscape:pageshadow="2"
     inkscape:pageopacity="0"
     guidetolerance="10"
     gridtolerance="10"
     objecttolerance="10"
     borderopacity="1"
     inkscape:document-rotation="0"
     bordercolor="#666666"
     pagecolor="#ffffff" />
  <defs
     id="defs940">
    <pattern
       y="0"
       x="0"
       height="6"
       width="6"
       patternUnits="userSpaceOnUse"
       id="WMFhbasepattern" />
  </defs>
  <path
     id="path942"
     d="  M 674.06667,340.2   L 22.333333,342.33333  "
     style="fill:none;stroke:#000000;stroke-width:4.2666669px;stroke-linecap:round;stroke-linejoin:round;stroke-miterlimit:4;stroke-dasharray:none;stroke-opacity:1;" />
  <path
     id="path944"
     d="  M 559.93333,554.6   L 345.53333,342.33333   L 134.33333,554.6  "
     style="fill:none;stroke:#000000;stroke-width:4.2666669px;stroke-linecap:round;stroke-linejoin:round;stroke-miterlimit:4;stroke-dasharray:none;stroke-opacity:1;" />
  <path
     id="path946"
     d="  M 31.933333,342.33333   L 670.86667,342.33333  "
     style="fill:none;stroke:#000000;stroke-width:4.2666669px;stroke-linecap:round;stroke-linejoin:round;stroke-miterlimit:4;stroke-dasharray:none;stroke-opacity:1;" />
  <path
     id="path948"
     d="  M 668.73333,340.2   L 663.4,316.73333   L 657,293.26667   L 650.6,269.8   L 644.2,247.4   L 636.73333,225   L 628.2,203.66667   L 618.6,183.4   L 607.93333,164.2   L 582.33333,129   L 565.26667,111.93333   L 546.06667,95.933333   L 523.66667,79.933333   L 500.2,66.066667   L 475.66667,53.266667   L 451.13333,42.6   L 424.46667,34.066667   L 397.8,27.666667   L 372.2,23.4   L 345.53333,22.333333   L 316.73333,25.533333   L 286.86667,30.866667   L 258.06667,38.333333   L 228.2,49   L 200.46667,62.866667   L 173.8,77.8   L 148.2,95.933333   L 124.73333,116.2   L 86.333333,161   L 76.733333,178.06667   L 68.2,195.13333   L 60.733333,213.26667   L 54.333333,231.4   L 49,249.53333   L 43.666667,268.73333   L 39.4,287.93333   L 35.133333,307.13333   L 31.933333,326.33333   L 27.666667,345.53333  "
     style="fill:none;stroke:#000000;stroke-width:4.2666669px;stroke-linecap:round;stroke-linejoin:round;stroke-miterlimit:4;stroke-dasharray:none;stroke-opacity:1;" />
</svg>
