<?xml version="1.0" encoding="UTF-8" standalone="no"?>
<svg
   xmlns:dc="http://purl.org/dc/elements/1.1/"
   xmlns:cc="http://creativecommons.org/ns#"
   xmlns:rdf="http://www.w3.org/1999/02/22-rdf-syntax-ns#"
   xmlns:svg="http://www.w3.org/2000/svg"
   xmlns="http://www.w3.org/2000/svg"
   xmlns:sodipodi="http://sodipodi.sourceforge.net/DTD/sodipodi-0.dtd"
   xmlns:inkscape="http://www.inkscape.org/namespaces/inkscape"
   inkscape:version="1.0 (4035a4fb49, 2020-05-01)"
   height="1005"
   width="1005"
   sodipodi:docname="HN2.svg"
   id="svg57"
   version="1.1">
  <metadata
     id="metadata63">
    <rdf:RDF>
      <cc:Work
         rdf:about="">
        <dc:format>image/svg+xml</dc:format>
        <dc:type
           rdf:resource="http://purl.org/dc/dcmitype/StillImage" />
        <dc:title></dc:title>
      </cc:Work>
    </rdf:RDF>
  </metadata>
  <defs
     id="defs61" />
  <sodipodi:namedview
     inkscape:current-layer="svg57"
     inkscape:window-maximized="1"
     inkscape:window-y="-8"
     inkscape:window-x="-8"
     inkscape:cy="577.5"
     inkscape:cx="652.5"
     inkscape:zoom="0.58727203"
     fit-margin-bottom="0"
     fit-margin-right="0"
     fit-margin-left="0"
     fit-margin-top="0"
     showgrid="false"
     id="namedview59"
     inkscape:window-height="1137"
     inkscape:window-width="1920"
     inkscape:pageshadow="2"
     inkscape:pageopacity="0"
     guidetolerance="10"
     gridtolerance="10"
     objecttolerance="10"
     borderopacity="1"
     bordercolor="#666666"
     pagecolor="#ffffff" />
  <g
     transform="translate(2.5,2.5)"
     id="-HN2">
    <g
       id="A104">
      <path
         id="path2"
         fill="none"
         stroke-width="5"
         stroke="#000000"
         d="M 0,0 V 1000 H 1000 V 0 Z" />
    </g>
    <g
       id="LA">
      <path
         id="path5"
         fill="none"
         stroke-width="5"
         stroke="#000000"
         d="m 118,871 q 0.79395,-14.62372 -2,-29 -0.11227,-9.66326 -5,-18 -0.4643,-12.53571 -13,-13 -8.861395,4.49543 -14,13 -3.334893,8.76809 -5,18 -0.999962,14.48276 -1,29 -2.262705,14.59527 1,29 1.290038,9.10352 6,17 -1.666651,14.58334 13,14 7.32282,-5.86616 12,-14 3.88146,-8.1889 6,-17 z" />
    </g>
    <g
       id="g10">
      <path
         id="path8"
         fill="none"
         stroke-width="5"
         stroke="#000000"
         d="m 519,872 q 0.79395,-14.62372 -2,-29 -0.11227,-9.66326 -5,-18 -0.4643,-12.53571 -13,-13 -8.8614,4.49543 -14,13 -3.33489,8.76809 -5,18 -0.99996,14.48276 -1,29 -2.2627,14.59527 1,29 1.29004,9.10352 6,17 -1.66665,14.58334 13,14 7.32282,-5.86616 12,-14 3.88146,-8.1889 6,-17 z" />
    </g>
    <g
       id="g14">
      <path
         id="path12"
         fill="none"
         stroke-width="5"
         stroke="#000000"
         d="m 921,871 q 0.79395,-14.62372 -2,-29 -0.11227,-9.66326 -5,-18 -0.4643,-12.53571 -13,-13 -8.8614,4.49543 -14,13 -3.33489,8.76809 -5,18 -0.99996,14.48276 -1,29 -2.2627,14.59527 1,29 1.29004,9.10352 6,17 -1.66665,14.58334 13,14 7.32282,-5.86616 12,-14 3.88146,-8.1889 6,-17 z" />
    </g>
    <g
       id="g18">
      <path
         id="path16"
         fill="none"
         stroke-width="5"
         stroke="#000000"
         d="m 720,672 q 0.79395,-14.62372 -2,-29 -0.11227,-9.66326 -5,-18 -0.4643,-12.53571 -13,-13 -8.8614,4.49543 -14,13 -3.33489,8.76809 -5,18 -0.99996,14.48276 -1,29 -2.2627,14.59527 1,29 1.29004,9.10352 6,17 -1.66665,14.58334 13,14 7.32282,-5.86616 12,-14 3.88146,-8.1889 6,-17 z" />
    </g>
    <g
       id="g22">
      <path
         id="path20"
         fill="none"
         stroke-width="5"
         stroke="#000000"
         d="m 320,669 q 0.79395,-14.62372 -2,-29 -0.11227,-9.66326 -5,-18 -0.4643,-12.53571 -13,-13 -8.8614,4.49543 -14,13 -3.33489,8.76809 -5,18 -0.99996,14.48276 -1,29 -2.2627,14.59527 1,29 1.29004,9.10352 6,17 -1.66665,14.58334 13,14 7.32282,-5.86616 12,-14 3.88146,-8.1889 6,-17 z" />
    </g>
    <g
       id="g26">
      <path
         id="path24"
         fill="none"
         stroke-width="5"
         stroke="#000000"
         d="m 118,503 q 0.79395,-14.62372 -2,-29 -0.11227,-9.66326 -5,-18 -0.4643,-12.53571 -13,-13 -8.861395,4.49543 -14,13 -3.334893,8.76809 -5,18 -0.999962,14.48276 -1,29 -2.262705,14.59527 1,29 1.09186,9.17346 6,17 -0.54165,13.54167 13,13 7.32523,-5.27672 12,-13 3.88146,-8.1889 6,-17 z" />
    </g>
    <g
       id="g30">
      <path
         id="path28"
         fill="none"
         stroke-width="5"
         stroke="#000000"
         d="m 519,500 q 0.79395,-14.62372 -2,-29 -0.11227,-9.66326 -5,-18 -0.4643,-12.53571 -13,-13 -8.8614,4.49543 -14,13 -3.33489,8.76809 -5,18 -0.99996,14.48276 -1,29 -2.2627,14.59527 1,29 1.09186,9.17346 6,17 -0.54165,13.54167 13,13 7.32523,-5.27672 12,-13 3.88146,-8.1889 6,-17 z" />
    </g>
    <g
       id="g34">
      <path
         id="path32"
         fill="none"
         stroke-width="5"
         stroke="#000000"
         d="m 921,505 q 0.79395,-14.62372 -2,-29 -0.11227,-9.66326 -5,-18 -0.4643,-12.53571 -13,-13 -8.8614,4.49543 -14,13 -3.33489,8.76809 -5,18 -0.99996,14.48276 -1,29 -2.2627,14.59527 1,29 1.09186,9.17346 6,17 -0.54165,13.54167 13,13 7.32523,-5.27672 12,-13 3.88146,-8.1889 6,-17 z" />
    </g>
    <g
       id="g38">
      <path
         id="path36"
         fill="none"
         stroke-width="5"
         stroke="#000000"
         d="m 919,131 q 0.6871,-14.12051 -2,-28 -0.11227,-9.663262 -5,-18 -0.4643,-12.535712 -13,-13 -8.8614,4.495426 -14,13 -3.34851,8.764304 -5,18 -0.96663,13.98334 -1,28 -2.40721,15.09691 1,30 1.09186,9.17346 6,17 -0.54165,13.54167 13,13 7.34683,-5.25677 12,-13 3.90063,-8.69979 6,-18 z" />
    </g>
    <g
       id="g42">
      <path
         id="path40"
         fill="none"
         stroke-width="5"
         stroke="#000000"
         d="m 519,130 q 0.6871,-14.12051 -2,-28 -0.11227,-9.663262 -5,-18 -0.4643,-12.535712 -13,-13 -8.8614,4.495426 -14,13 -3.34851,8.764304 -5,18 -0.96663,13.98334 -1,28 -2.40721,15.09691 1,30 1.09186,9.17346 6,17 -0.54165,13.54167 13,13 7.34683,-5.25677 12,-13 3.90063,-8.69979 6,-18 z" />
    </g>
    <g
       id="g46">
      <path
         id="path44"
         fill="none"
         stroke-width="5"
         stroke="#000000"
         d="m 120,134 q 0.6871,-14.12051 -2,-28 -0.11227,-9.663262 -5,-18 -0.4643,-12.535712 -13,-13 -8.861395,4.495426 -14,13 -3.348508,8.764304 -5,18 -0.96663,13.98334 -1,28 -2.407214,15.09691 1,30 1.09186,9.17346 6,17 -0.54165,13.54167 13,13 7.34683,-5.25677 12,-13 3.90063,-8.69979 6,-18 z" />
    </g>
    <g
       id="g50">
      <path
         id="path48"
         fill="none"
         stroke-width="5"
         stroke="#000000"
         d="m 318,332 q 0.6871,-14.12051 -2,-28 -0.11227,-9.66326 -5,-18 -0.4643,-12.53571 -13,-13 -8.8614,4.49543 -14,13 -3.34851,8.7643 -5,18 -0.96663,13.98334 -1,28 -2.40721,15.09691 1,30 1.09186,9.17346 6,17 -0.54165,13.54167 13,13 7.34683,-5.25677 12,-13 3.90063,-8.69979 6,-18 z" />
    </g>
    <g
       id="g54">
      <path
         id="path52"
         fill="none"
         stroke-width="5"
         stroke="#000000"
         d="m 720,332 q 0.6871,-14.12051 -2,-28 -0.11227,-9.66326 -5,-18 -0.4643,-12.53571 -13,-13 -8.8614,4.49543 -14,13 -3.34851,8.7643 -5,18 -0.96663,13.98334 -1,28 -2.40721,15.09691 1,30 1.09186,9.17346 6,17 -0.54165,13.54167 13,13 7.34683,-5.25677 12,-13 3.90063,-8.69979 6,-18 z" />
    </g>
  </g>
</svg>
