<?xml version="1.0" encoding="UTF-8" standalone="no"?>
<svg
   xmlns:dc="http://purl.org/dc/elements/1.1/"
   xmlns:cc="http://creativecommons.org/ns#"
   xmlns:rdf="http://www.w3.org/1999/02/22-rdf-syntax-ns#"
   xmlns:svg="http://www.w3.org/2000/svg"
   xmlns="http://www.w3.org/2000/svg"
   xmlns:sodipodi="http://sodipodi.sourceforge.net/DTD/sodipodi-0.dtd"
   xmlns:inkscape="http://www.inkscape.org/namespaces/inkscape"
   sodipodi:docname="HNC.wmf"
   id="svg1151"
   height="210.73181mm"
   width="210.73181mm"
   version="1.0">
  <metadata
     id="metadata1155">
    <rdf:RDF>
      <cc:Work
         rdf:about="">
        <dc:format>image/svg+xml</dc:format>
        <dc:type
           rdf:resource="http://purl.org/dc/dcmitype/StillImage" />
      </cc:Work>
    </rdf:RDF>
  </metadata>
  <sodipodi:namedview
     id="namedview1153"
     inkscape:window-height="480"
     inkscape:window-width="640"
     inkscape:pageshadow="2"
     inkscape:pageopacity="0"
     guidetolerance="10"
     gridtolerance="10"
     objecttolerance="10"
     borderopacity="1"
     inkscape:document-rotation="0"
     bordercolor="#666666"
     pagecolor="#ffffff" />
  <defs
     id="defs1133">
    <pattern
       y="0"
       x="0"
       height="6"
       width="6"
       patternUnits="userSpaceOnUse"
       id="WMFhbasepattern" />
  </defs>
  <path
     id="path1135"
     d="  M 239.73333,794.4   L 556.66667,794.4  "
     style="fill:none;stroke:#000000;stroke-width:0.40000001px;stroke-linecap:round;stroke-linejoin:round;stroke-miterlimit:4;stroke-dasharray:none;stroke-opacity:1;" />
  <path
     id="path1137"
     d="  M 239.73333,2   L 556.66667,2  "
     style="fill:none;stroke:#000000;stroke-width:0.40000001px;stroke-linecap:round;stroke-linejoin:round;stroke-miterlimit:4;stroke-dasharray:none;stroke-opacity:1;" />
  <path
     id="path1139"
     d="  M 794.4,239.73333   L 794.4,556.66667  "
     style="fill:none;stroke:#000000;stroke-width:0.40000001px;stroke-linecap:round;stroke-linejoin:round;stroke-miterlimit:4;stroke-dasharray:none;stroke-opacity:1;" />
  <path
     id="path1141"
     d="  M 2,239.73333   L 2,556.66667  "
     style="fill:none;stroke:#000000;stroke-width:0.40000001px;stroke-linecap:round;stroke-linejoin:round;stroke-miterlimit:4;stroke-dasharray:none;stroke-opacity:1;" />
  <path
     id="path1143"
     d="  M 794.4,239.73333   L 786.93333,239.6   L 779.46667,239.26667   L 772,238.66667   L 764.6,237.8   L 757.2,236.8   L 749.86667,235.46667   L 742.53333,234   L 735.26667,232.26667   L 728.06667,230.26667   L 720.93333,228.06667   L 713.86667,225.66667   L 706.86667,223   L 700,220.13333   L 693.2,217.06667   L 686.46667,213.8   L 679.86667,210.33333   L 673.4,206.6   L 667,202.66667   L 660.8,198.6   L 654.66667,194.33333   L 648.66667,189.8   L 642.86667,185.13333   L 637.2,180.33333   L 631.66667,175.26667   L 626.33333,170.06667   L 621.13333,164.73333   L 616.06667,159.2   L 611.2,153.53333   L 606.53333,147.66667   L 602.06667,141.73333   L 597.8,135.6   L 593.66667,129.33333   L 589.8,123   L 586.06667,116.53333   L 582.6,109.93333   L 579.26667,103.2   L 576.2,96.4   L 573.4,89.466667   L 570.73333,82.533333   L 568.33333,75.466667   L 566.13333,68.333333   L 564.13333,61.066667   L 562.4,53.866667   L 560.86667,46.533333   L 559.6,39.2   L 558.53333,31.8   L 557.73333,24.333333   L 557.13333,16.933333   L 556.8,9.4666667   L 556.66667,2  "
     style="fill:none;stroke:#000000;stroke-width:0.40000001px;stroke-linecap:round;stroke-linejoin:round;stroke-miterlimit:4;stroke-dasharray:none;stroke-opacity:1;" />
  <path
     id="path1145"
     d="  M 556.66667,794.4   L 556.8,786.93333   L 557.13333,779.46667   L 557.73333,772   L 558.53333,764.6   L 559.6,757.2   L 560.86667,749.86667   L 562.4,742.53333   L 564.13333,735.26667   L 566.13333,728.06667   L 568.33333,720.93333   L 570.73333,713.86667   L 573.4,706.86667   L 576.2,700   L 579.26667,693.2   L 582.6,686.46667   L 586.06667,679.86667   L 589.8,673.4   L 593.66667,667   L 597.8,660.8   L 602.06667,654.66667   L 606.53333,648.66667   L 611.2,642.86667   L 616.06667,637.2   L 621.13333,631.66667   L 626.33333,626.33333   L 631.66667,621.13333   L 637.2,616.06667   L 642.86667,611.2   L 648.66667,606.53333   L 654.66667,602.06667   L 660.8,597.8   L 667,593.66667   L 673.4,589.8   L 679.86667,586.06667   L 686.46667,582.6   L 693.2,579.26667   L 700,576.2   L 706.86667,573.4   L 713.86667,570.73333   L 720.93333,568.33333   L 728.06667,566.13333   L 735.26667,564.13333   L 742.53333,562.4   L 749.86667,560.86667   L 757.2,559.6   L 764.6,558.53333   L 772,557.73333   L 779.46667,557.13333   L 786.93333,556.8   L 794.4,556.8  "
     style="fill:none;stroke:#000000;stroke-width:0.40000001px;stroke-linecap:round;stroke-linejoin:round;stroke-miterlimit:4;stroke-dasharray:none;stroke-opacity:1;" />
  <path
     id="path1147"
     d="  M 2,556.66667   L 9.4666667,556.8   L 16.933333,557.13333   L 24.333333,557.73333   L 31.8,558.53333   L 39.2,559.6   L 46.533333,560.86667   L 53.866667,562.4   L 61.066667,564.13333   L 68.333333,566.13333   L 75.466667,568.33333   L 82.533333,570.73333   L 89.466667,573.4   L 96.4,576.2   L 103.2,579.26667   L 109.93333,582.6   L 116.53333,586.06667   L 123,589.8   L 129.33333,593.66667   L 135.6,597.8   L 141.73333,602.06667   L 147.66667,606.53333   L 153.53333,611.2   L 159.2,616.06667   L 164.73333,621.13333   L 170.06667,626.33333   L 175.26667,631.66667   L 180.33333,637.2   L 185.13333,642.86667   L 189.8,648.66667   L 194.33333,654.66667   L 198.6,660.8   L 202.66667,667   L 206.6,673.4   L 210.33333,679.86667   L 213.8,686.46667   L 217.06667,693.2   L 220.13333,700   L 223,706.86667   L 225.66667,713.86667   L 228.06667,720.93333   L 230.26667,728.06667   L 232.26667,735.26667   L 234,742.53333   L 235.46667,749.86667   L 236.8,757.2   L 237.8,764.6   L 238.66667,772   L 239.26667,779.46667   L 239.6,786.93333   L 239.73333,794.4  "
     style="fill:none;stroke:#000000;stroke-width:0.40000001px;stroke-linecap:round;stroke-linejoin:round;stroke-miterlimit:4;stroke-dasharray:none;stroke-opacity:1;" />
  <path
     id="path1149"
     d="  M 239.73333,2   L 239.73333,9.2   L 239.53333,17.333333   L 238.93333,24.8   L 238.13333,32.2   L 237.06667,39.6   L 235.73333,46.933333   L 234.2,54.266667   L 232.46667,61.533333   L 230.46667,68.733333   L 228.26667,75.866667   L 225.86667,82.933333   L 223.2,89.933333   L 220.33333,96.8   L 217.26667,103.6   L 214,110.33333   L 210.46667,116.86667   L 206.73333,123.4   L 202.86667,129.73333   L 198.73333,136   L 194.46667,142.06667   L 189.93333,148.06667   L 185.26667,153.86667   L 180.4,159.53333   L 175.4,165.06667   L 170.2,170.4   L 164.8,175.6   L 159.26667,180.6   L 153.6,185.46667   L 147.73333,190.13333   L 141.8,194.6   L 135.66667,198.86667   L 129.4,203   L 123.06667,206.86667   L 116.53333,210.6   L 109.93333,214.06667   L 103.2,217.33333   L 96.4,220.4   L 89.533333,223.26667   L 82.533333,225.86667   L 75.466667,228.26667   L 68.333333,230.46667   L 61.133333,232.4   L 53.866667,234.13333   L 46.533333,235.66667   L 39.2,236.93333   L 31.8,238   L 24.333333,238.8   L 16.933333,239.4   L 9.4666667,239.73333   L 2,239.73333  "
     style="fill:none;stroke:#000000;stroke-width:0.40000001px;stroke-linecap:round;stroke-linejoin:round;stroke-miterlimit:4;stroke-dasharray:none;stroke-opacity:1;" />
</svg>
