<?xml version="1.0" encoding="UTF-8" standalone="no"?>
<svg
   xmlns:dc="http://purl.org/dc/elements/1.1/"
   xmlns:cc="http://creativecommons.org/ns#"
   xmlns:rdf="http://www.w3.org/1999/02/22-rdf-syntax-ns#"
   xmlns:svg="http://www.w3.org/2000/svg"
   xmlns="http://www.w3.org/2000/svg"
   xmlns:sodipodi="http://sodipodi.sourceforge.net/DTD/sodipodi-0.dtd"
   xmlns:inkscape="http://www.inkscape.org/namespaces/inkscape"
   sodipodi:docname="HNC.svg"
   id="svg1151"
   height="212.76167mm"
   width="212.76167mm"
   version="1.0"
   inkscape:version="1.0 (4035a4fb49, 2020-05-01)">
  <metadata
     id="metadata1155">
    <rdf:RDF>
      <cc:Work
         rdf:about="">
        <dc:format>image/svg+xml</dc:format>
        <dc:type
           rdf:resource="http://purl.org/dc/dcmitype/StillImage" />
        <dc:title></dc:title>
      </cc:Work>
    </rdf:RDF>
  </metadata>
  <sodipodi:namedview
     id="namedview1153"
     inkscape:window-height="1017"
     inkscape:window-width="1920"
     inkscape:pageshadow="2"
     inkscape:pageopacity="0"
     guidetolerance="10"
     gridtolerance="10"
     objecttolerance="10"
     borderopacity="1"
     inkscape:document-rotation="0"
     bordercolor="#666666"
     pagecolor="#ffffff"
     showgrid="false"
     fit-margin-top="0"
     fit-margin-left="0"
     fit-margin-right="0"
     fit-margin-bottom="0"
     inkscape:zoom="0.74642639"
     inkscape:cx="396.43334"
     inkscape:cy="440.25789"
     inkscape:window-x="1912"
     inkscape:window-y="-8"
     inkscape:window-maximized="1"
     inkscape:current-layer="svg1151" />
  <defs
     id="defs1133">
    <pattern
       y="0"
       x="0"
       height="6"
       width="6"
       patternUnits="userSpaceOnUse"
       id="WMFhbasepattern" />
  </defs>
  <path
     id="path1135"
     d="M 244.63191,797.95887 H 561.56525"
     style="fill:none;stroke:#000000;stroke-width:2.3;stroke-linecap:round;stroke-linejoin:round;stroke-miterlimit:4;stroke-dasharray:none;stroke-opacity:1" />
  <path
     id="path1137"
     d="M 244.63191,5.5588673 H 561.56525"
     style="fill:none;stroke:#000000;stroke-width:2.3;stroke-linecap:round;stroke-linejoin:round;stroke-miterlimit:4;stroke-dasharray:none;stroke-opacity:1" />
  <path
     id="path1139"
     d="M 799.29858,243.2922 V 560.22554"
     style="fill:none;stroke:#000000;stroke-width:2.3;stroke-linecap:round;stroke-linejoin:round;stroke-miterlimit:4;stroke-dasharray:none;stroke-opacity:1" />
  <path
     id="path1141"
     d="M 6.8985841,243.2922 V 560.22554"
     style="fill:none;stroke:#000000;stroke-width:2.3;stroke-linecap:round;stroke-linejoin:round;stroke-miterlimit:4;stroke-dasharray:none;stroke-opacity:1" />
  <path
     id="path1143"
     d="m 799.29858,243.2922 -7.46667,-0.13333 -7.46666,-0.33333 -7.46667,-0.6 -7.4,-0.86667 -7.4,-1 -7.33333,-1.33333 -7.33334,-1.46667 -7.26666,-1.73333 -7.2,-2 -7.13334,-2.2 -7.06666,-2.4 -7,-2.66667 -6.86667,-2.86667 -6.8,-3.06666 -6.73333,-3.26667 -6.6,-3.46667 -6.46667,-3.73333 -6.4,-3.93333 -6.2,-4.06667 -6.13333,-4.26667 -6,-4.53333 -5.8,-4.66667 -5.66667,-4.8 -5.53333,-5.06666 -5.33334,-5.2 -5.2,-5.33334 -5.06666,-5.53333 -4.86667,-5.66667 -4.66667,-5.86666 -4.46666,-5.93334 -4.26667,-6.13333 -4.13333,-6.26667 -3.86667,-6.33333 -3.73333,-6.46667 -3.46667,-6.6 -3.33333,-6.73333 -3.06667,-6.800003 -2.8,-6.933333 -2.66667,-6.933334 -2.4,-7.066666 -2.2,-7.133334 -2,-7.266666 -1.73333,-7.2 -1.53333,-7.333334 -1.26667,-7.333333 -1.06667,-7.4 -0.8,-7.466667 -0.6,-7.4 -0.33333,-7.466666 -0.13333,-7.4666667"
     style="fill:none;stroke:#000000;stroke-width:2.3;stroke-linecap:round;stroke-linejoin:round;stroke-miterlimit:4;stroke-dasharray:none;stroke-opacity:1" />
  <path
     id="path1145"
     d="m 561.56525,797.95887 0.13333,-7.46667 0.33333,-7.46666 0.6,-7.46667 0.8,-7.4 1.06667,-7.4 1.26667,-7.33333 1.53333,-7.33334 1.73333,-7.26666 2,-7.2 2.2,-7.13334 2.4,-7.06666 2.66667,-7 2.8,-6.86667 3.06667,-6.8 3.33333,-6.73333 3.46667,-6.6 3.73333,-6.46667 3.86667,-6.4 4.13333,-6.2 4.26667,-6.13333 4.46666,-6 4.66667,-5.8 4.86667,-5.66667 5.06666,-5.53333 5.2,-5.33334 5.33334,-5.2 5.53333,-5.06666 5.66667,-4.86667 5.8,-4.66667 6,-4.46666 6.13333,-4.26667 6.2,-4.13333 6.4,-3.86667 6.46667,-3.73333 6.6,-3.46667 6.73333,-3.33333 6.8,-3.06667 6.86667,-2.8 7,-2.66667 7.06666,-2.4 7.13334,-2.2 7.2,-2 7.26666,-1.73333 7.33334,-1.53333 7.33333,-1.26667 7.4,-1.06667 7.4,-0.8 7.46667,-0.6 7.46666,-0.33333 h 7.46667"
     style="fill:none;stroke:#000000;stroke-width:2.3;stroke-linecap:round;stroke-linejoin:round;stroke-miterlimit:4;stroke-dasharray:none;stroke-opacity:1" />
  <path
     id="path1147"
     d="m 6.8985841,560.22554 7.4666669,0.13333 7.466666,0.33333 7.4,0.6 7.466667,0.8 7.4,1.06667 7.333333,1.26667 7.333334,1.53333 7.2,1.73333 7.266666,2 7.133334,2.2 7.066666,2.4 6.933334,2.66667 6.933329,2.8 6.8,3.06667 6.73333,3.33333 6.6,3.46667 6.46667,3.73333 6.33333,3.86667 6.26667,4.13333 6.13333,4.26667 5.93334,4.46666 5.86666,4.66667 5.66667,4.86667 5.53333,5.06666 5.33334,5.2 5.2,5.33334 5.06666,5.53333 4.8,5.66667 4.66667,5.8 4.53333,6 4.26667,6.13333 4.06667,6.2 3.93333,6.4 3.73333,6.46667 3.46667,6.6 3.26667,6.73333 3.06666,6.8 2.86667,6.86667 2.66667,7 2.4,7.06666 2.2,7.13334 2,7.2 1.73333,7.26666 1.46667,7.33334 1.33333,7.33333 1,7.4 0.86667,7.4 0.6,7.46667 0.33333,7.46666 0.13333,7.46667"
     style="fill:none;stroke:#000000;stroke-width:2.3;stroke-linecap:round;stroke-linejoin:round;stroke-miterlimit:4;stroke-dasharray:none;stroke-opacity:1" />
  <path
     id="path1149"
     d="m 244.63191,5.5588673 v 7.1999997 l -0.2,8.133333 -0.6,7.466667 -0.8,7.4 -1.06666,7.4 -1.33334,7.333333 -1.53333,7.333334 -1.73333,7.266666 -2,7.2 -2.2,7.133334 -2.4,7.066666 -2.66667,7 -2.86667,6.86667 -3.06666,6.8 -3.26667,6.73333 -3.53333,6.53334 -3.73334,6.53333 -3.86666,6.33333 -4.13334,6.26667 -4.26666,6.06667 -4.53334,6 -4.66666,5.8 -4.86667,5.66666 -5,5.53334 -5.2,5.33333 -5.4,5.2 -5.53333,5 -5.66667,4.86667 -5.86667,4.66666 -5.93333,4.46667 -6.13333,4.26667 -6.26667,4.13333 -6.33333,3.86667 -6.53334,3.73333 -6.6,3.46667 -6.73333,3.26666 -6.8,3.06667 -6.866663,2.86667 -7,2.6 -7.066666,2.4 -7.133334,2.2 -7.2,1.93333 -7.266666,1.73333 -7.333334,1.53334 -7.333333,1.26666 -7.4,1.06667 -7.466667,0.8 -7.4,0.6 -7.466666,0.33333 H 6.8985841"
     style="fill:none;stroke:#000000;stroke-width:2.3;stroke-linecap:round;stroke-linejoin:round;stroke-miterlimit:4;stroke-dasharray:none;stroke-opacity:1" />
</svg>
