<?xml version="1.0" encoding="UTF-8" standalone="no"?>
<svg
   xmlns:dc="http://purl.org/dc/elements/1.1/"
   xmlns:cc="http://creativecommons.org/ns#"
   xmlns:rdf="http://www.w3.org/1999/02/22-rdf-syntax-ns#"
   xmlns:svg="http://www.w3.org/2000/svg"
   xmlns="http://www.w3.org/2000/svg"
   xmlns:sodipodi="http://sodipodi.sourceforge.net/DTD/sodipodi-0.dtd"
   xmlns:inkscape="http://www.inkscape.org/namespaces/inkscape"
   width="100%"
   height="100%"
   viewBox="0 0 530 530"
   version="1.1"
   xml:space="preserve"
   style="fill-rule:evenodd;clip-rule:evenodd;stroke-linecap:round;stroke-linejoin:round;stroke-miterlimit:2;"
   id="svg24"
   sodipodi:docname="HND.svg"
   inkscape:version="1.0.2-2 (e86c870879, 2021-01-15)"><metadata
   id="metadata30"><rdf:RDF><cc:Work
       rdf:about=""><dc:format>image/svg+xml</dc:format><dc:type
         rdf:resource="http://purl.org/dc/dcmitype/StillImage" /></cc:Work></rdf:RDF></metadata><defs
   id="defs28" /><sodipodi:namedview
   pagecolor="#ffffff"
   bordercolor="#666666"
   borderopacity="1"
   objecttolerance="10"
   gridtolerance="10"
   guidetolerance="10"
   inkscape:pageopacity="0"
   inkscape:pageshadow="2"
   inkscape:window-width="1920"
   inkscape:window-height="986"
   id="namedview26"
   showgrid="false"
   inkscape:zoom="1.3155765"
   inkscape:cx="265"
   inkscape:cy="265"
   inkscape:window-x="2869"
   inkscape:window-y="178"
   inkscape:window-maximized="1"
   inkscape:current-layer="svg24" />
    <g
   transform="matrix(0.97561788,0,0,0.9785,-729.62026,-201.88005)"
   id="g22"
   style="stroke:#000000;stroke-width:8.28098334;stroke-miterlimit:4;stroke-dasharray:none;stroke-dashoffset:0;stroke-opacity:1">
        <g
   transform="scale(0.0588253,0.0588287)"
   id="g4"
   style="stroke:#000000;stroke-width:140.76841143;stroke-miterlimit:4;stroke-dasharray:none;stroke-dashoffset:0;stroke-opacity:1">
            <rect
   x="12819"
   y="3573"
   width="9002"
   height="9007"
   style="fill:none;stroke:#000000;stroke-width:140.76841143;stroke-miterlimit:4;stroke-dasharray:none;stroke-dashoffset:0;stroke-opacity:1"
   id="rect2" />
        </g>
        <g
   transform="scale(0.0588253,0.0588287)"
   id="g8"
   style="stroke:#000000;stroke-width:140.76841143;stroke-miterlimit:4;stroke-dasharray:none;stroke-dashoffset:0;stroke-opacity:1">
            <path
   d="m 14042,8342 h -506 v 496 h 7567 v -496 h -506"
   style="fill:none;stroke:#000000;stroke-width:140.76841143;stroke-miterlimit:4;stroke-dasharray:none;stroke-dashoffset:0;stroke-opacity:1"
   id="path6" />
        </g>
        <g
   transform="scale(0.0588253,0.0588287)"
   id="g12"
   style="stroke:#000000;stroke-width:140.76841143;stroke-miterlimit:4;stroke-dasharray:none;stroke-dashoffset:0;stroke-opacity:1">
            <path
   d="m 20169,8208 38,24 40,23 41,20 42,18 43,15 43,12 45,10 45,6 45,5 46,1"
   style="fill:none;stroke:#000000;stroke-width:140.76841143;stroke-miterlimit:4;stroke-dasharray:none;stroke-dashoffset:0;stroke-opacity:1"
   id="path10" />
        </g>
        <g
   transform="scale(0.0588253,0.0588287)"
   id="g16"
   style="stroke:#000000;stroke-width:140.76841143;stroke-miterlimit:4;stroke-dasharray:none;stroke-dashoffset:0;stroke-opacity:1">
            <path
   d="m 20168,8209 -93,-63 -95,-61 -95,-59 -97,-57 -98,-54 -100,-53 -100,-50 -102,-47 -103,-46 -103,-43 -105,-41 -106,-38 -106,-36 -107,-34 -108,-31 -108,-29 -110,-26 -109,-24 -111,-21 -110,-19 -111,-17 -112,-13 -111,-12 -112,-9 -113,-6 -112,-4 -112,-1 -112,1 -112,4 -113,6 -112,9 -111,12 -112,13 -111,17 -110,19 -111,21 -109,24 -110,26 -108,29 -108,31 -107,34 -106,36 -106,38 -105,41 -103,43 -103,46 -102,47 -100,50 -100,53 -98,54 -97,57 -95,59 -95,61 -93,63"
   style="fill:none;stroke:#000000;stroke-width:140.76841143;stroke-miterlimit:4;stroke-dasharray:none;stroke-dashoffset:0;stroke-opacity:1"
   id="path14" />
        </g>
        <g
   transform="scale(0.0588253,0.0588287)"
   id="g20"
   style="stroke:#000000;stroke-width:140.76841143;stroke-miterlimit:4;stroke-dasharray:none;stroke-dashoffset:0;stroke-opacity:1">
            <path
   d="m 14042,8342 46,-1 45,-5 45,-6 45,-10 43,-12 43,-15 42,-18 41,-20 40,-23 38,-24"
   style="fill:none;stroke:#000000;stroke-width:140.76841143;stroke-miterlimit:4;stroke-dasharray:none;stroke-dashoffset:0;stroke-opacity:1"
   id="path18" />
        </g>
    </g>
<ellipse
   style="fill:none;stroke:none;stroke-width:0.4;stroke-miterlimit:4;stroke-dasharray:none"
   id="path855"
   cx="204.09303"
   cy="162.66632"
   rx="137.96233"
   ry="101.09636" /><ellipse
   style="fill:none;stroke:none;stroke-width:0.4;stroke-miterlimit:4;stroke-dasharray:none"
   id="path857"
   cx="200.67249"
   cy="171.02768"
   rx="66.890823"
   ry="49.407997" /><ellipse
   style="fill:none;stroke:none;stroke-width:0.4;stroke-miterlimit:4;stroke-dasharray:none"
   id="path859"
   cx="226.51666"
   cy="130.3611"
   rx="109.45772"
   ry="70.311378" /></svg>
