<?xml version="1.0" encoding="UTF-8" standalone="no"?>
<!DOCTYPE svg PUBLIC "-//W3C//DTD SVG 1.1//EN" "http://www.w3.org/Graphics/SVG/1.1/DTD/svg11.dtd">
<svg width="100%" height="100%" viewBox="0 0 530 530" version="1.1" xmlns="http://www.w3.org/2000/svg" xmlns:xlink="http://www.w3.org/1999/xlink" xml:space="preserve" xmlns:serif="http://www.serif.com/" style="fill-rule:evenodd;clip-rule:evenodd;stroke-linecap:round;stroke-linejoin:round;stroke-miterlimit:2;">
    <g transform="matrix(1,0,0,1,-754.082,-210.195)">
        <g transform="matrix(0.0588253,0,0,0.0588287,0,0)">
            <rect x="12819" y="3573" width="9002" height="9007" style="fill:none;stroke:black;stroke-width:11.16px;"/>
        </g>
        <g transform="matrix(0.0588253,0,0,0.0588287,0,0)">
            <path d="M14042,8342L13536,8342L13536,8838L21103,8838L21103,8342L20597,8342" style="fill:none;stroke:black;stroke-width:11.16px;"/>
        </g>
        <g transform="matrix(0.0588253,0,0,0.0588287,0,0)">
            <path d="M20169,8208L20207,8232L20247,8255L20288,8275L20330,8293L20373,8308L20416,8320L20461,8330L20506,8336L20551,8341L20597,8342" style="fill:none;stroke:black;stroke-width:11.16px;"/>
        </g>
        <g transform="matrix(0.0588253,0,0,0.0588287,0,0)">
            <path d="M20168,8209L20075,8146L19980,8085L19885,8026L19788,7969L19690,7915L19590,7862L19490,7812L19388,7765L19285,7719L19182,7676L19077,7635L18971,7597L18865,7561L18758,7527L18650,7496L18542,7467L18432,7441L18323,7417L18212,7396L18102,7377L17991,7360L17879,7347L17768,7335L17656,7326L17543,7320L17431,7316L17319,7315L17207,7316L17095,7320L16982,7326L16870,7335L16759,7347L16647,7360L16536,7377L16426,7396L16315,7417L16206,7441L16096,7467L15988,7496L15880,7527L15773,7561L15667,7597L15561,7635L15456,7676L15353,7719L15250,7765L15148,7812L15048,7862L14948,7915L14850,7969L14753,8026L14658,8085L14563,8146L14470,8209" style="fill:none;stroke:black;stroke-width:11.16px;"/>
        </g>
        <g transform="matrix(0.0588253,0,0,0.0588287,0,0)">
            <path d="M14042,8342L14088,8341L14133,8336L14178,8330L14223,8320L14266,8308L14309,8293L14351,8275L14392,8255L14432,8232L14470,8208" style="fill:none;stroke:black;stroke-width:11.16px;"/>
        </g>
    </g>
</svg>
