<?xml version="1.0" encoding="UTF-8" standalone="no"?>
<svg
   xmlns:dc="http://purl.org/dc/elements/1.1/"
   xmlns:cc="http://creativecommons.org/ns#"
   xmlns:rdf="http://www.w3.org/1999/02/22-rdf-syntax-ns#"
   xmlns:svg="http://www.w3.org/2000/svg"
   xmlns="http://www.w3.org/2000/svg"
   xmlns:sodipodi="http://sodipodi.sourceforge.net/DTD/sodipodi-0.dtd"
   xmlns:inkscape="http://www.inkscape.org/namespaces/inkscape"
   sodipodi:docname="HR4.wmf"
   id="svg1205"
   height="350.52001mm"
   width="350.52001mm"
   version="1.0">
  <metadata
     id="metadata1209">
    <rdf:RDF>
      <cc:Work
         rdf:about="">
        <dc:format>image/svg+xml</dc:format>
        <dc:type
           rdf:resource="http://purl.org/dc/dcmitype/StillImage" />
      </cc:Work>
    </rdf:RDF>
  </metadata>
  <sodipodi:namedview
     id="namedview1207"
     inkscape:window-height="480"
     inkscape:window-width="640"
     inkscape:pageshadow="2"
     inkscape:pageopacity="0"
     guidetolerance="10"
     gridtolerance="10"
     objecttolerance="10"
     borderopacity="1"
     inkscape:document-rotation="0"
     bordercolor="#666666"
     pagecolor="#ffffff" />
  <defs
     id="defs1193">
    <pattern
       y="0"
       x="0"
       height="6"
       width="6"
       patternUnits="userSpaceOnUse"
       id="WMFhbasepattern" />
  </defs>
  <path
     id="path1195"
     d="  M 929,662.33333   L 923.66667,607.93333   L 906.6,554.6   L 878.86667,506.6   L 841.53333,465   L 795.66667,431.93333   L 745.53333,409.53333   L 691.13333,397.8   L 634.6,397.8   L 580.2,409.53333   L 529,431.93333   L 484.2,465   L 446.86667,506.6   L 419.13333,554.6   L 402.06667,607.93333   L 395.66667,662.33333   L 402.06667,717.8   L 419.13333,771.13333   L 446.86667,819.13333   L 484.2,860.73333   L 529,893.8   L 580.2,916.2   L 634.6,927.93333   L 691.13333,927.93333   L 745.53333,916.2   L 795.66667,893.8   L 841.53333,860.73333   L 878.86667,819.13333   L 906.6,771.13333   L 923.66667,717.8  z "
     style="fill:none;stroke:#000000;stroke-width:4.2666669px;stroke-linecap:round;stroke-linejoin:round;stroke-miterlimit:4;stroke-dasharray:none;stroke-opacity:1;" />
  <path
     id="path1197"
     d="  M 769,662.33333   L 1302.3333,662.33333  "
     style="fill:none;stroke:#000000;stroke-width:4.2666669px;stroke-linecap:round;stroke-linejoin:round;stroke-miterlimit:4;stroke-dasharray:none;stroke-opacity:1;" />
  <path
     id="path1199"
     d="  M 662.33333,769   L 662.33333,1302.3333  "
     style="fill:none;stroke:#000000;stroke-width:4.2666669px;stroke-linecap:round;stroke-linejoin:round;stroke-miterlimit:4;stroke-dasharray:none;stroke-opacity:1;" />
  <path
     id="path1201"
     d="  M 555.66667,662.33333   L 22.333333,662.33333  "
     style="fill:none;stroke:#000000;stroke-width:4.2666669px;stroke-linecap:round;stroke-linejoin:round;stroke-miterlimit:4;stroke-dasharray:none;stroke-opacity:1;" />
  <path
     id="path1203"
     d="  M 662.33333,555.66667   L 662.33333,22.333333  "
     style="fill:none;stroke:#000000;stroke-width:4.2666669px;stroke-linecap:round;stroke-linejoin:round;stroke-miterlimit:4;stroke-dasharray:none;stroke-opacity:1;" />
</svg>
