<?xml version="1.0" encoding="UTF-8" standalone="no"?>
<svg
   xmlns:dc="http://purl.org/dc/elements/1.1/"
   xmlns:cc="http://creativecommons.org/ns#"
   xmlns:rdf="http://www.w3.org/1999/02/22-rdf-syntax-ns#"
   xmlns:svg="http://www.w3.org/2000/svg"
   xmlns="http://www.w3.org/2000/svg"
   xmlns:sodipodi="http://sodipodi.sourceforge.net/DTD/sodipodi-0.dtd"
   xmlns:inkscape="http://www.inkscape.org/namespaces/inkscape"
   sodipodi:docname="HS5.wmf"
   id="svg1270"
   height="204.61111mm"
   width="294.07556mm"
   version="1.0">
  <metadata
     id="metadata1274">
    <rdf:RDF>
      <cc:Work
         rdf:about="">
        <dc:format>image/svg+xml</dc:format>
        <dc:type
           rdf:resource="http://purl.org/dc/dcmitype/StillImage" />
      </cc:Work>
    </rdf:RDF>
  </metadata>
  <sodipodi:namedview
     id="namedview1272"
     inkscape:window-height="480"
     inkscape:window-width="640"
     inkscape:pageshadow="2"
     inkscape:pageopacity="0"
     guidetolerance="10"
     gridtolerance="10"
     objecttolerance="10"
     borderopacity="1"
     inkscape:document-rotation="0"
     bordercolor="#666666"
     pagecolor="#ffffff" />
  <defs
     id="defs1260">
    <pattern
       y="0"
       x="0"
       height="6"
       width="6"
       patternUnits="userSpaceOnUse"
       id="WMFhbasepattern" />
  </defs>
  <path
     id="path1262"
     d="  M 235.66667,389.26667   L 244.2,456.46667   L 264.46667,519.4   L 298.6,577   L 343.4,626.06667   L 397.8,665.53333   L 459.66667,692.2   L 524.73333,705   L 591.93333,705   L 657,690.06667   L 717.8,662.33333   L 771.13333,622.86667   L 815.93333,572.73333   L 849,515.13333   L 868.2,451.13333   L 874.6,383.93333   L 867.13333,317.8   L 846.86667,254.86667   L 812.73333,197.26667   L 767.93333,148.2   L 713.53333,108.73333   L 651.66667,82.066667   L 586.6,69.266667   L 519.4,69.266667   L 454.33333,84.2   L 393.53333,111.93333   L 340.2,151.4   L 295.4,201.53333   L 262.33333,259.13333   L 243.13333,323.13333  z "
     style="fill:none;stroke:#000000;stroke-width:4.2666669px;stroke-linecap:round;stroke-linejoin:round;stroke-miterlimit:4;stroke-dasharray:none;stroke-opacity:1;" />
  <path
     id="path1264"
     d="  M 920.46667,750.86667   L 191.93333,22.333333  "
     style="fill:none;stroke:#000000;stroke-width:4.2666669px;stroke-linecap:round;stroke-linejoin:round;stroke-miterlimit:4;stroke-dasharray:none;stroke-opacity:1;" />
  <path
     id="path1266"
     d="  M 920.46667,22.333333   L 191.93333,750.86667  "
     style="fill:none;stroke:#000000;stroke-width:4.2666669px;stroke-linecap:round;stroke-linejoin:round;stroke-miterlimit:4;stroke-dasharray:none;stroke-opacity:1;" />
  <path
     id="path1268"
     d="  M 1089,386.06667   L 22.333333,386.06667  "
     style="fill:none;stroke:#000000;stroke-width:4.2666669px;stroke-linecap:round;stroke-linejoin:round;stroke-miterlimit:4;stroke-dasharray:none;stroke-opacity:1;" />
</svg>
