<?xml version="1.0" encoding="UTF-8" standalone="no"?>
<svg
   xmlns:dc="http://purl.org/dc/elements/1.1/"
   xmlns:cc="http://creativecommons.org/ns#"
   xmlns:rdf="http://www.w3.org/1999/02/22-rdf-syntax-ns#"
   xmlns:svg="http://www.w3.org/2000/svg"
   xmlns="http://www.w3.org/2000/svg"
   xmlns:sodipodi="http://sodipodi.sourceforge.net/DTD/sodipodi-0.dtd"
   xmlns:inkscape="http://www.inkscape.org/namespaces/inkscape"
   sodipodi:docname="HS9.wmf"
   id="svg1313"
   height="294.07556mm"
   width="294.07556mm"
   version="1.0">
  <metadata
     id="metadata1317">
    <rdf:RDF>
      <cc:Work
         rdf:about="">
        <dc:format>image/svg+xml</dc:format>
        <dc:type
           rdf:resource="http://purl.org/dc/dcmitype/StillImage" />
      </cc:Work>
    </rdf:RDF>
  </metadata>
  <sodipodi:namedview
     id="namedview1315"
     inkscape:window-height="480"
     inkscape:window-width="640"
     inkscape:pageshadow="2"
     inkscape:pageopacity="0"
     guidetolerance="10"
     gridtolerance="10"
     objecttolerance="10"
     borderopacity="1"
     inkscape:document-rotation="0"
     bordercolor="#666666"
     pagecolor="#ffffff" />
  <defs
     id="defs1305">
    <pattern
       y="0"
       x="0"
       height="6"
       width="6"
       patternUnits="userSpaceOnUse"
       id="WMFhbasepattern" />
  </defs>
  <path
     id="path1307"
     d="  M 1089,1089   L 1089,22.333333   L 22.333333,22.333333   L 22.333333,1089  z "
     style="fill:none;stroke:#000000;stroke-width:4.2666669px;stroke-linecap:round;stroke-linejoin:round;stroke-miterlimit:4;stroke-dasharray:none;stroke-opacity:1;" />
  <path
     id="path1309"
     d="  M 767.93333,446.86667   L 763.66667,403.13333   L 748.73333,360.46667   L 726.33333,322.06667   L 696.46667,289   L 660.2,263.4   L 618.6,245.26667   L 574.86667,236.73333   L 530.06667,236.73333   L 486.33333,246.33333   L 445.8,265.53333   L 409.53333,292.2   L 380.73333,325.26667   L 358.33333,364.73333   L 344.46667,407.4   L 340.2,452.2   L 345.53333,495.93333   L 360.46667,538.6   L 382.86667,577   L 412.73333,610.06667   L 449,635.66667   L 490.6,653.8   L 534.33333,662.33333   L 579.13333,662.33333   L 622.86667,652.73333   L 663.4,633.53333   L 699.66667,606.86667   L 728.46667,573.8   L 750.86667,534.33333   L 764.73333,491.66667  z "
     style="fill:none;stroke:#000000;stroke-width:4.2666669px;stroke-linecap:round;stroke-linejoin:round;stroke-miterlimit:4;stroke-dasharray:none;stroke-opacity:1;" />
  <path
     id="path1311"
     d="  M 553.53333,449   L 872.46667,770.06667   L 230.33333,770.06667  z "
     style="fill:none;stroke:#000000;stroke-width:4.2666669px;stroke-linecap:round;stroke-linejoin:round;stroke-miterlimit:4;stroke-dasharray:none;stroke-opacity:1;" />
</svg>
