<?xml version="1.0" encoding="UTF-8" standalone="no"?>
<svg
   xmlns:dc="http://purl.org/dc/elements/1.1/"
   xmlns:cc="http://creativecommons.org/ns#"
   xmlns:rdf="http://www.w3.org/1999/02/22-rdf-syntax-ns#"
   xmlns:svg="http://www.w3.org/2000/svg"
   xmlns="http://www.w3.org/2000/svg"
   xmlns:sodipodi="http://sodipodi.sourceforge.net/DTD/sodipodi-0.dtd"
   xmlns:inkscape="http://www.inkscape.org/namespaces/inkscape"
   sodipodi:docname="HSA.wmf"
   id="svg1328"
   height="294.07556mm"
   width="294.07556mm"
   version="1.0">
  <metadata
     id="metadata1332">
    <rdf:RDF>
      <cc:Work
         rdf:about="">
        <dc:format>image/svg+xml</dc:format>
        <dc:type
           rdf:resource="http://purl.org/dc/dcmitype/StillImage" />
      </cc:Work>
    </rdf:RDF>
  </metadata>
  <sodipodi:namedview
     id="namedview1330"
     inkscape:window-height="480"
     inkscape:window-width="640"
     inkscape:pageshadow="2"
     inkscape:pageopacity="0"
     guidetolerance="10"
     gridtolerance="10"
     objecttolerance="10"
     borderopacity="1"
     inkscape:document-rotation="0"
     bordercolor="#666666"
     pagecolor="#ffffff" />
  <defs
     id="defs1320">
    <pattern
       y="0"
       x="0"
       height="6"
       width="6"
       patternUnits="userSpaceOnUse"
       id="WMFhbasepattern" />
  </defs>
  <path
     id="path1322"
     d="  M 1089,1089   L 1089,22.333333   L 22.333333,22.333333   L 22.333333,1089  z "
     style="fill:none;stroke:#000000;stroke-width:4.2666669px;stroke-linecap:round;stroke-linejoin:round;stroke-miterlimit:4;stroke-dasharray:none;stroke-opacity:1;" />
  <path
     id="path1324"
     d="  M 742.33333,555.66667   L 739.13333,517.26667   L 726.33333,478.86667   L 706.06667,444.73333   L 679.4,414.86667   L 647.4,392.46667   L 611.13333,376.46667   L 572.73333,367.93333   L 532.2,367.93333   L 493.8,376.46667   L 457.53333,392.46667   L 425.53333,415.93333   L 398.86667,445.8   L 379.66667,479.93333   L 366.86667,517.26667   L 362.6,557.8   L 366.86667,596.2   L 379.66667,634.6   L 399.93333,668.73333   L 426.6,698.6   L 458.6,721   L 494.86667,737   L 533.26667,745.53333   L 573.8,745.53333   L 612.2,737   L 648.46667,721   L 680.46667,697.53333   L 707.13333,667.66667   L 726.33333,633.53333   L 739.13333,596.2  z "
     style="fill:none;stroke:#000000;stroke-width:4.2666669px;stroke-linecap:round;stroke-linejoin:round;stroke-miterlimit:4;stroke-dasharray:none;stroke-opacity:1;" />
  <path
     id="path1326"
     d="  M 554.6,367.93333   L 710.33333,663.4   L 395.66667,661.26667  z "
     style="fill:none;stroke:#000000;stroke-width:4.2666669px;stroke-linecap:round;stroke-linejoin:round;stroke-miterlimit:4;stroke-dasharray:none;stroke-opacity:1;" />
</svg>
