<?xml version="1.0" encoding="UTF-8" standalone="no"?>
<svg
   xmlns:dc="http://purl.org/dc/elements/1.1/"
   xmlns:cc="http://creativecommons.org/ns#"
   xmlns:rdf="http://www.w3.org/1999/02/22-rdf-syntax-ns#"
   xmlns:svg="http://www.w3.org/2000/svg"
   xmlns="http://www.w3.org/2000/svg"
   xmlns:sodipodi="http://sodipodi.sourceforge.net/DTD/sodipodi-0.dtd"
   xmlns:inkscape="http://www.inkscape.org/namespaces/inkscape"
   sodipodi:docname="HSB.wmf"
   id="svg1341"
   height="132.08mm"
   width="134.33778mm"
   version="1.0">
  <metadata
     id="metadata1345">
    <rdf:RDF>
      <cc:Work
         rdf:about="">
        <dc:format>image/svg+xml</dc:format>
        <dc:type
           rdf:resource="http://purl.org/dc/dcmitype/StillImage" />
      </cc:Work>
    </rdf:RDF>
  </metadata>
  <sodipodi:namedview
     id="namedview1343"
     inkscape:window-height="480"
     inkscape:window-width="640"
     inkscape:pageshadow="2"
     inkscape:pageopacity="0"
     guidetolerance="10"
     gridtolerance="10"
     objecttolerance="10"
     borderopacity="1"
     inkscape:document-rotation="0"
     bordercolor="#666666"
     pagecolor="#ffffff" />
  <defs
     id="defs1335">
    <pattern
       y="0"
       x="0"
       height="6"
       width="6"
       patternUnits="userSpaceOnUse"
       id="WMFhbasepattern" />
  </defs>
  <path
     id="path1337"
     d="  M 253.8,468.2   L 207.93333,463.93333   L 163.13333,449   L 123.66667,425.53333   L 88.466667,394.6   L 61.8,357.26667   L 42.6,314.6   L 33,268.73333   L 33,221.8   L 42.6,175.93333   L 61.8,134.33333   L 89.533333,95.933333   L 123.66667,65   L 164.2,41.533333   L 209,27.666667   L 254.86667,22.333333   L 300.73333,27.666667   L 345.53333,42.6   L 386.06667,66.066667   L 420.2,97   L 447.93333,134.33333   L 466.06667,177   L 475.66667,222.86667   L 475.66667,269.8   L 466.06667,314.6   L 446.86667,357.26667   L 420.2,394.6   L 385,426.6   L 344.46667,449   L 300.73333,463.93333  z "
     style="fill:none;stroke:#000000;stroke-width:4.2666669px;stroke-linecap:round;stroke-linejoin:round;stroke-miterlimit:4;stroke-dasharray:none;stroke-opacity:1;" />
  <path
     id="path1339"
     d="  M 485.26667,476.73333   L 22.333333,22.333333  "
     style="fill:none;stroke:#000000;stroke-width:4.2666669px;stroke-linecap:round;stroke-linejoin:round;stroke-miterlimit:4;stroke-dasharray:none;stroke-opacity:1;" />
</svg>
