<?xml version="1.0" encoding="UTF-8" standalone="no"?>
<svg
   xmlns:dc="http://purl.org/dc/elements/1.1/"
   xmlns:cc="http://creativecommons.org/ns#"
   xmlns:rdf="http://www.w3.org/1999/02/22-rdf-syntax-ns#"
   xmlns:svg="http://www.w3.org/2000/svg"
   xmlns="http://www.w3.org/2000/svg"
   xmlns:sodipodi="http://sodipodi.sourceforge.net/DTD/sodipodi-0.dtd"
   xmlns:inkscape="http://www.inkscape.org/namespaces/inkscape"
   sodipodi:docname="HSQ.wmf"
   id="svg1412"
   height="294.07556mm"
   width="294.07556mm"
   version="1.0">
  <metadata
     id="metadata1416">
    <rdf:RDF>
      <cc:Work
         rdf:about="">
        <dc:format>image/svg+xml</dc:format>
        <dc:type
           rdf:resource="http://purl.org/dc/dcmitype/StillImage" />
      </cc:Work>
    </rdf:RDF>
  </metadata>
  <sodipodi:namedview
     id="namedview1414"
     inkscape:window-height="480"
     inkscape:window-width="640"
     inkscape:pageshadow="2"
     inkscape:pageopacity="0"
     guidetolerance="10"
     gridtolerance="10"
     objecttolerance="10"
     borderopacity="1"
     inkscape:document-rotation="0"
     bordercolor="#666666"
     pagecolor="#ffffff" />
  <defs
     id="defs1406">
    <pattern
       y="0"
       x="0"
       height="6"
       width="6"
       patternUnits="userSpaceOnUse"
       id="WMFhbasepattern" />
  </defs>
  <path
     id="path1408"
     d="  M 1089,1089   L 1089,22.333333   L 22.333333,22.333333   L 22.333333,1089  z "
     style="fill:none;stroke:#000000;stroke-width:4.2666669px;stroke-linecap:round;stroke-linejoin:round;stroke-miterlimit:4;stroke-dasharray:none;stroke-opacity:1;" />
  <path
     id="path1410"
     d="  M 984.46667,558.86667   L 975.93333,470.33333   L 948.2,385   L 903.4,308.2   L 843.66667,241   L 771.13333,188.73333   L 689,152.46667   L 601.53333,133.26667   L 511.93333,133.26667   L 424.46667,152.46667   L 342.33333,188.73333   L 269.8,241   L 210.06667,308.2   L 165.26667,385   L 137.53333,470.33333   L 127.93333,558.86667   L 137.53333,648.46667   L 165.26667,733.8   L 210.06667,810.6   L 269.8,877.8   L 342.33333,930.06667   L 424.46667,966.33333   L 511.93333,985.53333   L 601.53333,985.53333   L 689,966.33333   L 771.13333,930.06667   L 843.66667,877.8   L 903.4,810.6   L 948.2,733.8   L 975.93333,648.46667  z "
     style="fill:none;stroke:#000000;stroke-width:4.2666669px;stroke-linecap:round;stroke-linejoin:round;stroke-miterlimit:4;stroke-dasharray:none;stroke-opacity:1;" />
</svg>
