<?xml version="1.0" encoding="UTF-8" standalone="no"?>
<svg
   xmlns:dc="http://purl.org/dc/elements/1.1/"
   xmlns:cc="http://creativecommons.org/ns#"
   xmlns:rdf="http://www.w3.org/1999/02/22-rdf-syntax-ns#"
   xmlns:svg="http://www.w3.org/2000/svg"
   xmlns="http://www.w3.org/2000/svg"
   xmlns:sodipodi="http://sodipodi.sourceforge.net/DTD/sodipodi-0.dtd"
   xmlns:inkscape="http://www.inkscape.org/namespaces/inkscape"
   sodipodi:docname="HT5.wmf"
   id="svg1462"
   height="208.84444mm"
   width="208.56222mm"
   version="1.0">
  <metadata
     id="metadata1466">
    <rdf:RDF>
      <cc:Work
         rdf:about="">
        <dc:format>image/svg+xml</dc:format>
        <dc:type
           rdf:resource="http://purl.org/dc/dcmitype/StillImage" />
      </cc:Work>
    </rdf:RDF>
  </metadata>
  <sodipodi:namedview
     id="namedview1464"
     inkscape:window-height="480"
     inkscape:window-width="640"
     inkscape:pageshadow="2"
     inkscape:pageopacity="0"
     guidetolerance="10"
     gridtolerance="10"
     objecttolerance="10"
     borderopacity="1"
     inkscape:document-rotation="0"
     bordercolor="#666666"
     pagecolor="#ffffff" />
  <defs
     id="defs1458">
    <pattern
       y="0"
       x="0"
       height="6"
       width="6"
       patternUnits="userSpaceOnUse"
       id="WMFhbasepattern" />
  </defs>
  <path
     id="path1460"
     d="  M 657,659.13333   L 706.06667,598.33333   L 741.26667,529   L 761.53333,454.33333   L 765.8,376.46667   L 754.06667,299.66667   L 726.33333,226.06667   L 684.73333,161   L 629.26667,105.53333   L 564.2,62.866667   L 491.66667,35.133333   L 414.86667,22.333333   L 337,26.6   L 261.26667,46.866667   L 191.93333,82.066667   L 131.13333,130.06667   L 82.066667,190.86667   L 46.866667,260.2   L 26.6,334.86667   L 22.333333,412.73333   L 34.066667,489.53333   L 61.8,563.13333   L 104.46667,628.2   L 158.86667,683.66667   L 223.93333,726.33333   L 296.46667,754.06667   L 373.26667,766.86667   L 451.13333,762.6   L 526.86667,742.33333   L 596.2,707.13333  z "
     style="fill:none;stroke:#000000;stroke-width:4.2666669px;stroke-linecap:round;stroke-linejoin:round;stroke-miterlimit:4;stroke-dasharray:none;stroke-opacity:1;" />
</svg>
