<?xml version="1.0" encoding="UTF-8" standalone="no"?>
<svg
   xmlns:dc="http://purl.org/dc/elements/1.1/"
   xmlns:cc="http://creativecommons.org/ns#"
   xmlns:rdf="http://www.w3.org/1999/02/22-rdf-syntax-ns#"
   xmlns:svg="http://www.w3.org/2000/svg"
   xmlns="http://www.w3.org/2000/svg"
   xmlns:sodipodi="http://sodipodi.sourceforge.net/DTD/sodipodi-0.dtd"
   xmlns:inkscape="http://www.inkscape.org/namespaces/inkscape"
   sodipodi:docname="HT9.wmf"
   id="svg1516"
   height="123.04889mm"
   width="89.464444mm"
   version="1.0">
  <metadata
     id="metadata1520">
    <rdf:RDF>
      <cc:Work
         rdf:about="">
        <dc:format>image/svg+xml</dc:format>
        <dc:type
           rdf:resource="http://purl.org/dc/dcmitype/StillImage" />
      </cc:Work>
    </rdf:RDF>
  </metadata>
  <sodipodi:namedview
     id="namedview1518"
     inkscape:window-height="480"
     inkscape:window-width="640"
     inkscape:pageshadow="2"
     inkscape:pageopacity="0"
     guidetolerance="10"
     gridtolerance="10"
     objecttolerance="10"
     borderopacity="1"
     inkscape:document-rotation="0"
     bordercolor="#666666"
     pagecolor="#ffffff" />
  <defs
     id="defs1510">
    <pattern
       y="0"
       x="0"
       height="6"
       width="6"
       patternUnits="userSpaceOnUse"
       id="WMFhbasepattern" />
  </defs>
  <path
     id="path1512"
     d="  M 270.86667,333.8   L 291.13333,310.33333   L 305,282.6   L 313.53333,253.8   L 315.66667,222.86667   L 310.33333,191.93333   L 299.66667,163.13333   L 283.66667,137.53333   L 262.33333,116.2   L 236.73333,99.133333   L 207.93333,87.4   L 178.06667,82.066667   L 147.13333,83.133333   L 117.26667,90.6   L 90.6,104.46667   L 66.066667,123.66667   L 46.866667,147.13333   L 31.933333,174.86667   L 24.466667,203.66667   L 22.333333,234.6   L 26.6,264.46667   L 37.266667,293.26667   L 53.266667,319.93333   L 74.6,341.26667   L 100.2,358.33333   L 129,370.06667   L 158.86667,375.4   L 189.8,374.33333   L 219.66667,365.8   L 247.4,353  z "
     style="fill:none;stroke:#000000;stroke-width:4.2666669px;stroke-linecap:round;stroke-linejoin:round;stroke-miterlimit:4;stroke-dasharray:none;stroke-opacity:1;" />
  <path
     id="path1514"
     d="  M 170.6,442.6   L 178.06667,22.333333  "
     style="fill:none;stroke:#000000;stroke-width:4.2666669px;stroke-linecap:round;stroke-linejoin:round;stroke-miterlimit:4;stroke-dasharray:none;stroke-opacity:1;" />
</svg>
