<?xml version="1.0" encoding="UTF-8" standalone="no"?>
<svg
   xmlns:dc="http://purl.org/dc/elements/1.1/"
   xmlns:cc="http://creativecommons.org/ns#"
   xmlns:rdf="http://www.w3.org/1999/02/22-rdf-syntax-ns#"
   xmlns:svg="http://www.w3.org/2000/svg"
   xmlns="http://www.w3.org/2000/svg"
   xmlns:sodipodi="http://sodipodi.sourceforge.net/DTD/sodipodi-0.dtd"
   xmlns:inkscape="http://www.inkscape.org/namespaces/inkscape"
   sodipodi:docname="HUA.wmf"
   id="svg1753"
   height="248.28501mm"
   width="259.29167mm"
   version="1.0">
  <metadata
     id="metadata1757">
    <rdf:RDF>
      <cc:Work
         rdf:about="">
        <dc:format>image/svg+xml</dc:format>
        <dc:type
           rdf:resource="http://purl.org/dc/dcmitype/StillImage" />
      </cc:Work>
    </rdf:RDF>
  </metadata>
  <sodipodi:namedview
     id="namedview1755"
     inkscape:window-height="480"
     inkscape:window-width="640"
     inkscape:pageshadow="2"
     inkscape:pageopacity="0"
     guidetolerance="10"
     gridtolerance="10"
     objecttolerance="10"
     borderopacity="1"
     inkscape:document-rotation="0"
     bordercolor="#666666"
     pagecolor="#ffffff" />
  <defs
     id="defs1729">
    <pattern
       y="0"
       x="0"
       height="6"
       width="6"
       patternUnits="userSpaceOnUse"
       id="WMFhbasepattern" />
  </defs>
  <path
     id="path1731"
     d="  M 187.26667,450.13333   L 176.6,450.13333   L 139.86667,504.93333   L 143.73333,515.53333   L 191.93333,548.4   L 201.13333,551.13333   L 210.06667,552.46667   L 219.06667,552   L 226.86667,549   L 234.53333,544.46667   L 240.93333,537.6   L 245.26667,532.06667   L 248.13333,523.8   L 249.4,514.6   L 249.13333,505.73333   L 247,498.13333   L 243.66667,491   L 238.86667,484.66667   L 232.8,479.53333  z "
     style="fill:#000000;fill-rule:evenodd;fill-opacity:1;stroke:none;" />
  <path
     id="path1733"
     d="  M 709.06667,524.8   L 709.06667,524.8   L 709.06667,524.8   L 709.06667,524.8  z "
     style="fill:none;stroke:#000000;stroke-width:0.40000001px;stroke-linecap:round;stroke-linejoin:round;stroke-miterlimit:4;stroke-dasharray:none;stroke-opacity:1;" />
  <path
     id="path1735"
     d="  M 709.06667,524.8   L 709.06667,524.8  z "
     style="fill:none;stroke:#000000;stroke-width:0.40000001px;stroke-linecap:round;stroke-linejoin:round;stroke-miterlimit:4;stroke-dasharray:none;stroke-opacity:1;" />
  <path
     id="path1737"
     d="  M 671,545.4   L 672.66667,543   L 674.33333,540.93333   L 676.2,538.8   L 678.26667,536.86667   L 682.6,533.26667   L 687.4,530.33333   L 692.53333,527.93333   L 697.93333,526.2   L 703.46667,525.13333   L 709.13333,524.8   L 713.46667,525   L 718.26667,525.73333   L 721.93333,526.8   L 726.06667,528.13333   L 729.93333,530.06667   L 733.8,532.06667   L 737.33333,534.6   L 740.6,537.46667   L 743.6,540.66667   L 746.26667,544.06667   L 748.6,547.73333   L 750.6,551.6   L 752.2,555.66667   L 753.4,559.86667   L 754.2,564.13333   L 754.6,568.46667   L 754.53333,573.4   L 753.93333,578.33333   L 752.8,583.2   L 751.13333,587.86667   L 748.6,593.06667   L 745.33333,597.93333   L 741.53333,602.33333   L 737.2,606.26667   L 734.13333,608.46667   L 730.86667,610.4   L 727.53333,612.06667   L 724,613.4   L 720.4,614.53333   L 716.66667,615.26667   L 712.93333,615.73333   L 709.2,615.93333   L 704.26667,615.66667   L 699.46667,614.86667   L 694.73333,613.6   L 690.13333,611.8   L 685.8,609.53333   L 681.73333,606.8   L 678,603.66667   L 674.6,600.13333   L 671.93333,596.73333   L 669.86667,593.53333   L 668,590   L 666.4,586.26667   L 665.13333,582.4   L 664.26667,578.4   L 663.73333,574.4   L 663.53333,570.4   L 663.66667,567.06667   L 664,563.8   L 664.6,560.53333   L 665.4,557.33333   L 666.46667,554.26667   L 667.8,551.2   L 669.26667,548.26667   L 671,545.4  z "
     style="fill:none;stroke:#000000;stroke-width:32px;stroke-linecap:round;stroke-linejoin:round;stroke-miterlimit:4;stroke-dasharray:none;stroke-opacity:1;" />
  <path
     id="path1739"
     d="  M 341.13333,545.8   L 342.8,543.46667   L 344.46667,541.33333   L 346.33333,539.26667   L 348.4,537.26667   L 352.73333,533.73333   L 357.53333,530.73333   L 362.66667,528.4   L 368.06667,526.66667   L 373.6,525.6   L 379.26667,525.26667   L 383.6,525.46667   L 388.4,526.2   L 392.06667,527.2   L 396.2,528.53333   L 400.06667,530.53333   L 403.93333,532.53333   L 407.46667,535.06667   L 410.73333,537.93333   L 413.73333,541.06667   L 416.4,544.53333   L 418.73333,548.2   L 420.73333,552.06667   L 422.33333,556.13333   L 423.53333,560.26667   L 424.33333,564.6   L 424.73333,568.93333   L 424.66667,573.86667   L 424.06667,578.8   L 422.93333,583.6   L 421.26667,588.33333   L 418.73333,593.53333   L 415.46667,598.4   L 411.66667,602.8   L 407.33333,606.66667   L 404.26667,608.86667   L 401,610.8   L 397.66667,612.46667   L 394.13333,613.86667   L 390.53333,614.93333   L 386.8,615.73333   L 383.06667,616.2   L 379.33333,616.4   L 374.4,616.13333   L 369.6,615.33333   L 364.86667,614.06667   L 360.26667,612.26667   L 355.93333,610   L 351.86667,607.26667   L 348.13333,604.06667   L 344.73333,600.53333   L 342.06667,597.2   L 340,594   L 338.13333,590.4   L 336.53333,586.66667   L 335.26667,582.8   L 334.4,578.86667   L 333.86667,574.86667   L 333.66667,570.8   L 333.8,567.53333   L 334.13333,564.26667   L 334.73333,561   L 335.6,557.8   L 336.6,554.66667   L 337.93333,551.66667   L 339.4,548.73333   L 341.13333,545.8  z "
     style="fill:none;stroke:#000000;stroke-width:32px;stroke-linecap:round;stroke-linejoin:round;stroke-miterlimit:4;stroke-dasharray:none;stroke-opacity:1;" />
  <path
     id="path1741"
     d="  M 83.866667,469.26667   L 87.733333,429.53333   L 91.6,389.8   L 104,350.93333   L 116.8,312.2   L 136.73333,277.26667   L 156.6,242.4   L 183.6,212.2   L 210.86667,182.26667   L 243.4,158.46667   L 276.93333,136.13333   L 312.73333,118.26667   L 357.26667,100.93333   L 403.66667,89.733333   L 436,85.4   L 468.6,83.866667   L 509.4,85.8   L 548.86667,92.533333   L 587.73333,102   L 625.4,116.26667   L 661.8,133.73333   L 695.66667,156.26667   L 727.73333,181.26667   L 754.93333,210.86667   L 782.06667,240.4   L 803.66667,275.13333   L 822.8,311.2   L 835.4,349.53333   L 848,387.8   L 853.86667,427.4   L 856.73333,467.33333   L 854.2,507.8   L 848,547.8   L 837.53333,587.33333   L 822.8,625.4   L 804.73333,661.4   L 783,695.2   L 757.46667,726.66667   L 728.73333,755.33333   L 697.46667,780.8   L 663.73333,802.86667   L 627.66667,821.13333   L 590.06667,835.86667   L 551.06667,846.06667   L 511.53333,853.26667   L 475.6,854.53333   L 430.06667,853.26667   L 390.53333,846.06667   L 351.46667,836.8   L 314.2,821.33333   L 277.8,803.86667   L 244.2,780.93333   L 211.86667,756.33333   L 184.4,727   L 157.53333,697.2   L 137.06667,661.86667   L 116.8,626.4   L 105.26667,591.2   L 91.6,549.8   L 87.533333,509.53333   L 83.866667,469.26667  z "
     style="fill:none;stroke:#000000;stroke-width:16px;stroke-linecap:round;stroke-linejoin:round;stroke-miterlimit:4;stroke-dasharray:none;stroke-opacity:1;" />
  <path
     id="path1743"
     d="  M 139.86667,504.93333   L 176.6,450.13333   L 187.26667,450.13333   L 232.8,479.53333   L 238.86667,484.66667   L 243.66667,491   L 247,498.13333   L 249.13333,505.73333   L 249.4,514.6   L 248.13333,523.8   L 245.26667,532.06667   L 240.93333,537.6   L 234.53333,544.46667   L 226.86667,549   L 219.06667,552   L 210.06667,552.46667   L 201.13333,551.13333   L 191.93333,548.4   L 143.73333,515.53333   L 139.86667,504.93333   L 139.86667,504.93333   L 139.86667,504.93333  z "
     style="fill:none;stroke:#000000;stroke-width:0.40000001px;stroke-linecap:round;stroke-linejoin:round;stroke-miterlimit:4;stroke-dasharray:none;stroke-opacity:1;" />
  <path
     id="path1745"
     d="  M 240.93333,533.13333   L 260.46667,545.26667   L 272.6,554.4   L 277.8,556.66667   L 283.46667,557.4   L 288.86667,557.33333   L 294.33333,555.6   L 299.66667,552.73333   L 302.86667,548.2   L 304.33333,543.46667   L 305.6,538.73333   L 306.2,533.86667   L 306.53333,529   L 305.73333,523.73333   L 304.86667,518.6   L 303.66667,513.4   L 302.06667,508.6   L 292.8,494.93333   L 283.46667,481.26667   L 275.06667,467.8   L 269.8,452.66667   L 269.8,431.86667   L 273,412.6   L 280.33333,393.33333   L 291.06667,373.73333   L 303.26667,357.66667   L 319.46667,341.66667   L 341.66667,325.66667   L 366.86667,315.26667   L 393,307.06667   L 422.53333,301.06667   L 452.66667,299.33333   L 483.46667,301.06667   L 513.13333,306.6   L 526.66667,310.53333   L 539.46667,316.4   L 568.73333,333.6   L 600.26667,354.46667   L 623.8,368.66667   L 646.6,383.73333   L 669.26667,400   L 691.13333,417.13333   L 708.73333,428.73333   L 726.4,440.33333   L 743.73333,450.26667   L 759.86667,459.8   L 777.46667,472.66667   L 795.33333,488.26667   L 809.66667,504.6   L 811.73333,512.6   L 812.2,520.8   L 811.13333,528.86667   L 807.93333,536.26667   L 804.73333,541.26667   L 800.66667,545.06667   L 796,549.4   L 790.93333,552.8   L 783.8,558.33333   L 775.46667,562.2   L 765.06667,566.66667   L 754.33333,568.53333  "
     style="fill:none;stroke:#000000;stroke-width:32px;stroke-linecap:round;stroke-linejoin:round;stroke-miterlimit:4;stroke-dasharray:none;stroke-opacity:1;" />
  <path
     id="path1747"
     d="  M 663.53333,570.4   L 437.93333,570.53333  z "
     style="fill:none;stroke:#000000;stroke-width:32px;stroke-linecap:round;stroke-linejoin:round;stroke-miterlimit:4;stroke-dasharray:none;stroke-opacity:1;" />
  <path
     id="path1749"
     d="  M 108.73333,466.66667   L 148,493.06667  z "
     style="fill:none;stroke:#000000;stroke-width:10.666667px;stroke-linecap:round;stroke-linejoin:round;stroke-miterlimit:4;stroke-dasharray:none;stroke-opacity:1;" />
  <path
     id="path1751"
     d="  M 129.06667,436.13333   L 168.33333,462.53333  z "
     style="fill:none;stroke:#000000;stroke-width:10.666667px;stroke-linecap:round;stroke-linejoin:round;stroke-miterlimit:4;stroke-dasharray:none;stroke-opacity:1;" />
</svg>
