<?xml version="1.0" encoding="UTF-8" standalone="no"?>
<svg
   xmlns:dc="http://purl.org/dc/elements/1.1/"
   xmlns:cc="http://creativecommons.org/ns#"
   xmlns:rdf="http://www.w3.org/1999/02/22-rdf-syntax-ns#"
   xmlns:svg="http://www.w3.org/2000/svg"
   xmlns="http://www.w3.org/2000/svg"
   xmlns:sodipodi="http://sodipodi.sourceforge.net/DTD/sodipodi-0.dtd"
   xmlns:inkscape="http://www.inkscape.org/namespaces/inkscape"
   sodipodi:docname="HV2.wmf"
   id="svg1824"
   height="294.07556mm"
   width="294.07556mm"
   version="1.0">
  <metadata
     id="metadata1828">
    <rdf:RDF>
      <cc:Work
         rdf:about="">
        <dc:format>image/svg+xml</dc:format>
        <dc:type
           rdf:resource="http://purl.org/dc/dcmitype/StillImage" />
      </cc:Work>
    </rdf:RDF>
  </metadata>
  <sodipodi:namedview
     id="namedview1826"
     inkscape:window-height="480"
     inkscape:window-width="640"
     inkscape:pageshadow="2"
     inkscape:pageopacity="0"
     guidetolerance="10"
     gridtolerance="10"
     objecttolerance="10"
     borderopacity="1"
     inkscape:document-rotation="0"
     bordercolor="#666666"
     pagecolor="#ffffff" />
  <defs
     id="defs1818">
    <pattern
       y="0"
       x="0"
       height="6"
       width="6"
       patternUnits="userSpaceOnUse"
       id="WMFhbasepattern" />
  </defs>
  <path
     id="path1820"
     d="  M 1089,1089   L 1089,22.333333   L 22.333333,22.333333   L 22.333333,1089  z "
     style="fill:none;stroke:#000000;stroke-width:4.2666669px;stroke-linecap:round;stroke-linejoin:round;stroke-miterlimit:4;stroke-dasharray:none;stroke-opacity:1;" />
  <path
     id="path1822"
     d="  M 878.86667,661.26667   L 872.46667,634.6   L 865,606.86667   L 856.46667,580.2   L 847.93333,554.6   L 839.4,529   L 828.73333,505.53333   L 817,483.13333   L 804.2,461.8   L 772.2,425.53333   L 753,410.6   L 730.6,395.66667   L 706.06667,382.86667   L 680.46667,371.13333   L 652.73333,361.53333   L 625,354.06667   L 596.2,348.73333   L 568.46667,346.6   L 511.93333,348.73333   L 487.4,354.06667   L 461.8,361.53333   L 437.26667,371.13333   L 412.73333,381.8   L 389.26667,394.6   L 366.86667,408.46667   L 345.53333,424.46667   L 326.33333,442.6   L 293.26667,481   L 283.66667,497   L 276.2,514.06667   L 268.73333,531.13333   L 262.33333,549.26667   L 257,567.4   L 251.66667,585.53333   L 247.4,604.73333   L 243.13333,623.93333   L 239.93333,642.06667   L 235.66667,661.26667  "
     style="fill:none;stroke:#000000;stroke-width:4.2666669px;stroke-linecap:round;stroke-linejoin:round;stroke-miterlimit:4;stroke-dasharray:none;stroke-opacity:1;" />
</svg>
