<?xml version="1.0" encoding="UTF-8" standalone="no"?>
<svg
   xmlns:dc="http://purl.org/dc/elements/1.1/"
   xmlns:cc="http://creativecommons.org/ns#"
   xmlns:rdf="http://www.w3.org/1999/02/22-rdf-syntax-ns#"
   xmlns:svg="http://www.w3.org/2000/svg"
   xmlns="http://www.w3.org/2000/svg"
   xmlns:sodipodi="http://sodipodi.sourceforge.net/DTD/sodipodi-0.dtd"
   xmlns:inkscape="http://www.inkscape.org/namespaces/inkscape"
   sodipodi:docname="HV5.wmf"
   id="svg1869"
   height="294.07556mm"
   width="294.07556mm"
   version="1.0">
  <metadata
     id="metadata1873">
    <rdf:RDF>
      <cc:Work
         rdf:about="">
        <dc:format>image/svg+xml</dc:format>
        <dc:type
           rdf:resource="http://purl.org/dc/dcmitype/StillImage" />
      </cc:Work>
    </rdf:RDF>
  </metadata>
  <sodipodi:namedview
     id="namedview1871"
     inkscape:window-height="480"
     inkscape:window-width="640"
     inkscape:pageshadow="2"
     inkscape:pageopacity="0"
     guidetolerance="10"
     gridtolerance="10"
     objecttolerance="10"
     borderopacity="1"
     inkscape:document-rotation="0"
     bordercolor="#666666"
     pagecolor="#ffffff" />
  <defs
     id="defs1861">
    <pattern
       y="0"
       x="0"
       height="6"
       width="6"
       patternUnits="userSpaceOnUse"
       id="WMFhbasepattern" />
  </defs>
  <path
     id="path1863"
     d="  M 22.333333,1089   L 22.333333,22.333333   L 1089,22.333333   L 1089,1089  z "
     style="fill:none;stroke:#000000;stroke-width:4.2666669px;stroke-linecap:round;stroke-linejoin:round;stroke-miterlimit:4;stroke-dasharray:none;stroke-opacity:1;" />
  <path
     id="path1865"
     d="  M 343.4,555.66667   L 347.66667,511.93333   L 361.53333,469.26667   L 383.93333,430.86667   L 413.8,397.8   L 449,372.2   L 489.53333,354.06667   L 533.26667,344.46667   L 578.06667,344.46667   L 621.8,354.06667   L 662.33333,372.2   L 697.53333,397.8   L 727.4,430.86667   L 749.8,469.26667   L 763.66667,511.93333   L 769,555.66667   L 763.66667,600.46667   L 749.8,643.13333   L 727.4,681.53333   L 697.53333,714.6   L 662.33333,740.2   L 621.8,758.33333   L 578.06667,767.93333   L 533.26667,767.93333   L 489.53333,758.33333   L 449,740.2   L 413.8,714.6   L 383.93333,681.53333   L 361.53333,643.13333   L 347.66667,600.46667  z "
     style="fill:none;stroke:#000000;stroke-width:4.2666669px;stroke-linecap:round;stroke-linejoin:round;stroke-miterlimit:4;stroke-dasharray:none;stroke-opacity:1;" />
  <path
     id="path1867"
     d="  M 341.26667,769   L 767.93333,342.33333  "
     style="fill:none;stroke:#000000;stroke-width:4.2666669px;stroke-linecap:round;stroke-linejoin:round;stroke-miterlimit:4;stroke-dasharray:none;stroke-opacity:1;" />
</svg>
