<?xml version="1.0" encoding="UTF-8" standalone="no"?>
<svg
   xmlns:dc="http://purl.org/dc/elements/1.1/"
   xmlns:cc="http://creativecommons.org/ns#"
   xmlns:rdf="http://www.w3.org/1999/02/22-rdf-syntax-ns#"
   xmlns:svg="http://www.w3.org/2000/svg"
   xmlns="http://www.w3.org/2000/svg"
   xmlns:sodipodi="http://sodipodi.sourceforge.net/DTD/sodipodi-0.dtd"
   xmlns:inkscape="http://www.inkscape.org/namespaces/inkscape"
   sodipodi:docname="HV9.wmf"
   id="svg1910"
   height="294.07556mm"
   width="294.07556mm"
   version="1.0">
  <metadata
     id="metadata1914">
    <rdf:RDF>
      <cc:Work
         rdf:about="">
        <dc:format>image/svg+xml</dc:format>
        <dc:type
           rdf:resource="http://purl.org/dc/dcmitype/StillImage" />
      </cc:Work>
    </rdf:RDF>
  </metadata>
  <sodipodi:namedview
     id="namedview1912"
     inkscape:window-height="480"
     inkscape:window-width="640"
     inkscape:pageshadow="2"
     inkscape:pageopacity="0"
     guidetolerance="10"
     gridtolerance="10"
     objecttolerance="10"
     borderopacity="1"
     inkscape:document-rotation="0"
     bordercolor="#666666"
     pagecolor="#ffffff" />
  <defs
     id="defs1902">
    <pattern
       y="0"
       x="0"
       height="6"
       width="6"
       patternUnits="userSpaceOnUse"
       id="WMFhbasepattern" />
  </defs>
  <path
     id="path1904"
     d="  M 22.333333,1089   L 22.333333,22.333333   L 1089,22.333333   L 1089,1089  z "
     style="fill:none;stroke:#000000;stroke-width:4.2666669px;stroke-linecap:round;stroke-linejoin:round;stroke-miterlimit:4;stroke-dasharray:none;stroke-opacity:1;" />
  <path
     id="path1906"
     d="  M 232.46667,558.86667   L 238.86667,492.73333   L 259.13333,427.66667   L 292.2,369   L 337,318.86667   L 391.4,279.4   L 453.26667,251.66667   L 519.4,236.73333   L 586.6,236.73333   L 652.73333,250.6   L 714.6,277.26667   L 769,316.73333   L 814.86667,366.86667   L 849,425.53333   L 870.33333,489.53333   L 877.8,555.66667   L 870.33333,622.86667   L 850.06667,687.93333   L 817,746.6   L 772.2,796.73333   L 717.8,836.2   L 655.93333,863.93333   L 589.8,878.86667   L 522.6,878.86667   L 456.46667,865   L 394.6,838.33333   L 340.2,798.86667   L 294.33333,748.73333   L 260.2,690.06667   L 238.86667,626.06667  z "
     style="fill:none;stroke:#000000;stroke-width:4.2666669px;stroke-linecap:round;stroke-linejoin:round;stroke-miterlimit:4;stroke-dasharray:none;stroke-opacity:1;" />
  <path
     id="path1908"
     d="  M 447.93333,724.2   L 450.06667,396.73333   L 664.46667,412.73333   L 664.46667,519.4   L 453.26667,555.66667  "
     style="fill:none;stroke:#000000;stroke-width:4.2666669px;stroke-linecap:round;stroke-linejoin:round;stroke-miterlimit:4;stroke-dasharray:none;stroke-opacity:1;" />
</svg>
