<?xml version="1.0" encoding="UTF-8" standalone="no"?>
<!DOCTYPE svg PUBLIC "-//W3C//DTD SVG 1.1//EN" "http://www.w3.org/Graphics/SVG/1.1/DTD/svg11.dtd">
<svg width="100%" height="100%" viewBox="0 0 503 192" version="1.1" xmlns="http://www.w3.org/2000/svg" xmlns:xlink="http://www.w3.org/1999/xlink" xml:space="preserve" xmlns:serif="http://www.serif.com/" style="fill-rule:evenodd;clip-rule:evenodd;">
    <g transform="matrix(1,0,0,1,-0.352986,-1.44101)">
        <g transform="matrix(0.921245,0,0,0.798354,-31.3223,-157.276)">
            <g id="HVA" transform="matrix(1.08549,0,0,1.25258,-25.2518,-64.1592)">
                <g id="GGG">
                    <path id="path2" d="M445,341L226,336L222,348C219.939,351.212 217.606,354.212 215,357C211.148,360.511 207.148,363.844 203,367C198.84,370.25 194.507,373.25 190,376C185.921,378.806 181.588,381.139 177,383C172.477,384.835 167.81,386.168 163,387L149,392L448,399C451.927,398.955 455.594,397.955 459,396C461.296,394.688 463.296,393.022 465,391C466.811,388.94 468.145,386.606 469,384C469.849,382.086 470.182,380.086 470,378C469.768,375.338 468.768,373.004 467,371L445,341Z" style="fill:rgb(1,1,1);stroke:black;stroke-width:1px;"/>
                </g>
                <g id="g7">
                    <path id="path5" d="M227,322L555,330L57,213L171,262C176.984,264.793 182.651,268.127 188,272C195.624,277.326 202.291,283.659 208,291C211.384,296.302 214.717,301.635 218,307L227,322Z" style="fill:rgb(1,1,1);stroke:black;stroke-width:1px;"/>
                </g>
                <g id="g11">
                    <path id="path9" d="M108,212L401,281L364,231C361.987,228.346 359.654,226.013 357,224C353.375,221.25 349.375,219.25 345,218L108,212Z" style="fill:rgb(1,1,1);stroke:black;stroke-width:1px;"/>
                </g>
            </g>
        </g>
    </g>
</svg>
