<?xml version="1.0" encoding="UTF-8" standalone="no"?>
<svg
   xmlns:dc="http://purl.org/dc/elements/1.1/"
   xmlns:cc="http://creativecommons.org/ns#"
   xmlns:rdf="http://www.w3.org/1999/02/22-rdf-syntax-ns#"
   xmlns:svg="http://www.w3.org/2000/svg"
   xmlns="http://www.w3.org/2000/svg"
   xmlns:sodipodi="http://sodipodi.sourceforge.net/DTD/sodipodi-0.dtd"
   xmlns:inkscape="http://www.inkscape.org/namespaces/inkscape"
   inkscape:version="1.0 (4035a4fb49, 2020-05-01)"
   height="617.323"
   width="598.74109"
   sodipodi:docname="HVA.svg"
   id="svg20"
   version="1.1">
  <metadata
     id="metadata26">
    <rdf:RDF>
      <cc:Work
         rdf:about="">
        <dc:format>image/svg+xml</dc:format>
        <dc:type
           rdf:resource="http://purl.org/dc/dcmitype/StillImage" />
        <dc:title></dc:title>
      </cc:Work>
    </rdf:RDF>
  </metadata>
  <defs
     id="defs24" />
  <sodipodi:namedview
     inkscape:current-layer="svg20"
     inkscape:window-maximized="1"
     inkscape:window-y="-8"
     inkscape:window-x="-8"
     inkscape:cy="399.75062"
     inkscape:cx="385.80085"
     inkscape:zoom="1.0225"
     fit-margin-bottom="0"
     fit-margin-right="0"
     fit-margin-left="0"
     fit-margin-top="0"
     showgrid="false"
     id="namedview22"
     inkscape:window-height="1137"
     inkscape:window-width="1920"
     inkscape:pageshadow="2"
     inkscape:pageopacity="0"
     guidetolerance="10"
     gridtolerance="10"
     objecttolerance="10"
     borderopacity="1"
     bordercolor="#666666"
     pagecolor="#ffffff" />
  <g
     transform="translate(-2.585461,-4.497439)"
     id="HVA">
    <g
       id="GGG">
      <path
         id="path2"
         fill-rule="evenodd"
         fill-opacity="1"
         fill="#010101"
         stroke-width="1"
         stroke="#000000"
         d="m 445,341 -219,-5 -4,12 q -3.0909,4.81819 -7,9 -5.77821,5.26614 -12,10 -6.23999,4.87557 -13,9 -6.11847,4.20855 -13,7 -6.78503,2.75239 -14,4 l -14,5 299,7 q 5.89084,-0.0669 11,-3 3.44354,-1.96775 6,-5 2.71686,-3.09037 4,-7 1.27319,-2.87114 1,-6 -0.34871,-3.99341 -3,-7 z" />
    </g>
    <g
       id="g7">
      <path
         id="path5"
         fill-rule="evenodd"
         fill-opacity="1"
         fill="#010101"
         stroke-width="1"
         stroke="#000000"
         d="m 227,322 328,8 -498,-117 114,49 q 8.97639,4.19014 17,10 11.43607,7.98834 20,19 5.07549,7.95282 10,16 z" />
    </g>
    <g
       id="g11">
      <path
         id="path9"
         fill-rule="evenodd"
         fill-opacity="1"
         fill="#010101"
         stroke-width="1"
         stroke="#000000"
         d="m 108,212 293,69 -37,-50 q -3.01962,-3.98038 -7,-7 -5.43752,-4.12496 -12,-6 z" />
    </g>
    <g
       id="I679" />
    <g
       id="I678" />
  </g>
  <ellipse
     ry="301.71149"
     rx="292.42053"
     cy="308.6615"
     cx="299.37054"
     id="path851"
     style="fill:none;stroke:#000000;stroke-width:13.9;stroke-miterlimit:4;stroke-dasharray:none" />
</svg>
