<?xml version="1.0" encoding="UTF-8" standalone="no"?>
<svg
   xmlns:dc="http://purl.org/dc/elements/1.1/"
   xmlns:cc="http://creativecommons.org/ns#"
   xmlns:rdf="http://www.w3.org/1999/02/22-rdf-syntax-ns#"
   xmlns:svg="http://www.w3.org/2000/svg"
   xmlns="http://www.w3.org/2000/svg"
   xmlns:sodipodi="http://sodipodi.sourceforge.net/DTD/sodipodi-0.dtd"
   xmlns:inkscape="http://www.inkscape.org/namespaces/inkscape"
   sodipodi:docname="HVA.wmf"
   id="svg1923"
   height="292.66444mm"
   width="293.79334mm"
   version="1.0">
  <metadata
     id="metadata1927">
    <rdf:RDF>
      <cc:Work
         rdf:about="">
        <dc:format>image/svg+xml</dc:format>
        <dc:type
           rdf:resource="http://purl.org/dc/dcmitype/StillImage" />
      </cc:Work>
    </rdf:RDF>
  </metadata>
  <sodipodi:namedview
     id="namedview1925"
     inkscape:window-height="480"
     inkscape:window-width="640"
     inkscape:pageshadow="2"
     inkscape:pageopacity="0"
     guidetolerance="10"
     gridtolerance="10"
     objecttolerance="10"
     borderopacity="1"
     inkscape:document-rotation="0"
     bordercolor="#666666"
     pagecolor="#ffffff" />
  <defs
     id="defs1917">
    <pattern
       y="0"
       x="0"
       height="6"
       width="6"
       patternUnits="userSpaceOnUse"
       id="WMFhbasepattern" />
  </defs>
  <path
     id="path1919"
     d="  M 22.333333,557.8   L 31.933333,446.86667   L 65,340.2   L 120.46667,243.13333   L 194.06667,159.93333   L 283.66667,93.8   L 385,47.933333   L 494.86667,23.4   L 605.8,22.333333   L 715.66667,44.733333   L 817,89.533333   L 907.66667,154.6   L 983.4,236.73333   L 1039.9333,332.73333   L 1075.1333,438.33333   L 1087.9333,549.26667   L 1077.2667,660.2   L 1043.1333,766.86667   L 988.73333,863.93333   L 914.06667,947.13333   L 824.46667,1013.2667   L 723.13333,1059.1333   L 614.33333,1083.6667   L 502.33333,1083.6667   L 393.53333,1062.3333   L 291.13333,1017.5333   L 200.46667,952.46667   L 124.73333,870.33333   L 68.2,774.33333   L 33,668.73333  z "
     style="fill:none;stroke:#000000;stroke-width:4.2666669px;stroke-linecap:round;stroke-linejoin:round;stroke-miterlimit:4;stroke-dasharray:none;stroke-opacity:1;" />
  <path
     id="path1921"
     d="  M 377.53333,829.8   L 379.66667,289   L 734.86667,313.53333   L 734.86667,490.6   L 386.06667,551.4  "
     style="fill:none;stroke:#000000;stroke-width:4.2666669px;stroke-linecap:round;stroke-linejoin:round;stroke-miterlimit:4;stroke-dasharray:none;stroke-opacity:1;" />
</svg>
