<?xml version="1.0" encoding="UTF-8" standalone="no"?>
<svg
   xmlns:dc="http://purl.org/dc/elements/1.1/"
   xmlns:cc="http://creativecommons.org/ns#"
   xmlns:rdf="http://www.w3.org/1999/02/22-rdf-syntax-ns#"
   xmlns:svg="http://www.w3.org/2000/svg"
   xmlns="http://www.w3.org/2000/svg"
   xmlns:sodipodi="http://sodipodi.sourceforge.net/DTD/sodipodi-0.dtd"
   xmlns:inkscape="http://www.inkscape.org/namespaces/inkscape"
   inkscape:version="1.0 (4035a4fb49, 2020-05-01)"
   version="1.0"
   width="283.3511mm"
   height="283.3511mm"
   id="svg1938"
   sodipodi:docname="HVB.svg">
  <metadata
     id="metadata1942">
    <rdf:RDF>
      <cc:Work
         rdf:about="">
        <dc:format>image/svg+xml</dc:format>
        <dc:type
           rdf:resource="http://purl.org/dc/dcmitype/StillImage" />
        <dc:title></dc:title>
      </cc:Work>
    </rdf:RDF>
  </metadata>
  <sodipodi:namedview
     inkscape:current-layer="svg1938"
     inkscape:window-maximized="1"
     inkscape:window-y="-8"
     inkscape:window-x="-8"
     inkscape:cy="535.53335"
     inkscape:cx="535.53335"
     inkscape:zoom="0.87272071"
     fit-margin-bottom="0"
     fit-margin-right="0"
     fit-margin-left="0"
     fit-margin-top="0"
     showgrid="false"
     pagecolor="#ffffff"
     bordercolor="#666666"
     inkscape:document-rotation="0"
     borderopacity="1"
     objecttolerance="10"
     gridtolerance="10"
     guidetolerance="10"
     inkscape:pageopacity="0"
     inkscape:pageshadow="2"
     inkscape:window-width="1920"
     inkscape:window-height="1137"
     id="namedview1940" />
  <defs
     id="defs1930">
    <pattern
       id="WMFhbasepattern"
       patternUnits="userSpaceOnUse"
       width="6"
       height="6"
       x="0"
       y="0" />
  </defs>
  <path
     style="fill:none;stroke:#000000;stroke-width:4.26667px;stroke-linecap:round;stroke-linejoin:round;stroke-miterlimit:4;stroke-dasharray:none;stroke-opacity:1"
     d="M 1068.8,1068.8 V 2.1333334 H 2.1333334 V 1068.8 Z"
     id="path1932" />
  <path
     style="fill:none;stroke:#000000;stroke-width:4.26667px;stroke-linecap:round;stroke-linejoin:round;stroke-miterlimit:4;stroke-dasharray:none;stroke-opacity:1"
     d="M 644.26667,323.2 428.8,322.13333 l 1.06667,425.6 L 643.2,748.8 Z"
     id="path1934" />
  <path
     style="fill:none;stroke:#000000;stroke-width:4.26667px;stroke-linecap:round;stroke-linejoin:round;stroke-miterlimit:4;stroke-dasharray:none;stroke-opacity:1"
     d="M 643.2,642.13333 641.06667,620.8 l -6.4,-21.33333 -11.73334,-19.2 L 608,563.2 589.86667,550.4 569.6,540.8 548.26667,536.53333 h -22.4 L 504.53333,540.8 483.2,550.4 466.13333,563.2 451.2,580.26667 l -11.73333,19.2 -6.4,21.33333 -3.2,21.33333 3.2,22.4 6.4,21.33334 11.73333,19.2 14.93333,17.06666 17.06667,12.8 21.33333,9.6 21.33334,4.26667 h 22.4 l 21.33333,-4.26667 20.26667,-9.6 18.13333,-12.8 14.93333,-17.06666 11.73334,-19.2 6.4,-21.33334 z"
     id="path1936" />
</svg>
