<?xml version="1.0" encoding="UTF-8" standalone="no"?>
<svg
   xmlns:dc="http://purl.org/dc/elements/1.1/"
   xmlns:cc="http://creativecommons.org/ns#"
   xmlns:rdf="http://www.w3.org/1999/02/22-rdf-syntax-ns#"
   xmlns:svg="http://www.w3.org/2000/svg"
   xmlns="http://www.w3.org/2000/svg"
   xmlns:sodipodi="http://sodipodi.sourceforge.net/DTD/sodipodi-0.dtd"
   xmlns:inkscape="http://www.inkscape.org/namespaces/inkscape"
   sodipodi:docname="HVB.wmf"
   id="svg1938"
   height="294.07556mm"
   width="294.07556mm"
   version="1.0">
  <metadata
     id="metadata1942">
    <rdf:RDF>
      <cc:Work
         rdf:about="">
        <dc:format>image/svg+xml</dc:format>
        <dc:type
           rdf:resource="http://purl.org/dc/dcmitype/StillImage" />
      </cc:Work>
    </rdf:RDF>
  </metadata>
  <sodipodi:namedview
     id="namedview1940"
     inkscape:window-height="480"
     inkscape:window-width="640"
     inkscape:pageshadow="2"
     inkscape:pageopacity="0"
     guidetolerance="10"
     gridtolerance="10"
     objecttolerance="10"
     borderopacity="1"
     inkscape:document-rotation="0"
     bordercolor="#666666"
     pagecolor="#ffffff" />
  <defs
     id="defs1930">
    <pattern
       y="0"
       x="0"
       height="6"
       width="6"
       patternUnits="userSpaceOnUse"
       id="WMFhbasepattern" />
  </defs>
  <path
     id="path1932"
     d="  M 1089,1089   L 1089,22.333333   L 22.333333,22.333333   L 22.333333,1089  z "
     style="fill:none;stroke:#000000;stroke-width:4.2666669px;stroke-linecap:round;stroke-linejoin:round;stroke-miterlimit:4;stroke-dasharray:none;stroke-opacity:1;" />
  <path
     id="path1934"
     d="  M 664.46667,343.4   L 449,342.33333   L 450.06667,767.93333   L 663.4,769  z "
     style="fill:none;stroke:#000000;stroke-width:4.2666669px;stroke-linecap:round;stroke-linejoin:round;stroke-miterlimit:4;stroke-dasharray:none;stroke-opacity:1;" />
  <path
     id="path1936"
     d="  M 663.4,662.33333   L 661.26667,641   L 654.86667,619.66667   L 643.13333,600.46667   L 628.2,583.4   L 610.06667,570.6   L 589.8,561   L 568.46667,556.73333   L 546.06667,556.73333   L 524.73333,561   L 503.4,570.6   L 486.33333,583.4   L 471.4,600.46667   L 459.66667,619.66667   L 453.26667,641   L 450.06667,662.33333   L 453.26667,684.73333   L 459.66667,706.06667   L 471.4,725.26667   L 486.33333,742.33333   L 503.4,755.13333   L 524.73333,764.73333   L 546.06667,769   L 568.46667,769   L 589.8,764.73333   L 610.06667,755.13333   L 628.2,742.33333   L 643.13333,725.26667   L 654.86667,706.06667   L 661.26667,684.73333  z "
     style="fill:none;stroke:#000000;stroke-width:4.2666669px;stroke-linecap:round;stroke-linejoin:round;stroke-miterlimit:4;stroke-dasharray:none;stroke-opacity:1;" />
</svg>
