<?xml version="1.0" encoding="UTF-8" standalone="no"?>
<svg
   xmlns:dc="http://purl.org/dc/elements/1.1/"
   xmlns:cc="http://creativecommons.org/ns#"
   xmlns:rdf="http://www.w3.org/1999/02/22-rdf-syntax-ns#"
   xmlns:svg="http://www.w3.org/2000/svg"
   xmlns="http://www.w3.org/2000/svg"
   xmlns:sodipodi="http://sodipodi.sourceforge.net/DTD/sodipodi-0.dtd"
   xmlns:inkscape="http://www.inkscape.org/namespaces/inkscape"
   sodipodi:docname="HVC.wmf"
   id="svg1953"
   height="292.66444mm"
   width="294.07556mm"
   version="1.0">
  <metadata
     id="metadata1957">
    <rdf:RDF>
      <cc:Work
         rdf:about="">
        <dc:format>image/svg+xml</dc:format>
        <dc:type
           rdf:resource="http://purl.org/dc/dcmitype/StillImage" />
      </cc:Work>
    </rdf:RDF>
  </metadata>
  <sodipodi:namedview
     id="namedview1955"
     inkscape:window-height="480"
     inkscape:window-width="640"
     inkscape:pageshadow="2"
     inkscape:pageopacity="0"
     guidetolerance="10"
     gridtolerance="10"
     objecttolerance="10"
     borderopacity="1"
     inkscape:document-rotation="0"
     bordercolor="#666666"
     pagecolor="#ffffff" />
  <defs
     id="defs1945">
    <pattern
       y="0"
       x="0"
       height="6"
       width="6"
       patternUnits="userSpaceOnUse"
       id="WMFhbasepattern" />
  </defs>
  <path
     id="path1947"
     d="  M 1089,552.46667   L 1078.3333,442.6   L 1043.1333,335.93333   L 987.66667,239.93333   L 913,156.73333   L 822.33333,90.6   L 721,45.8   L 612.2,22.333333   L 500.2,22.333333   L 391.4,45.8   L 290.06667,90.6   L 199.4,156.73333   L 124.73333,239.93333   L 69.266667,335.93333   L 34.066667,442.6   L 22.333333,552.46667   L 34.066667,663.4   L 69.266667,770.06667   L 124.73333,866.06667   L 199.4,949.26667   L 289,1015.4   L 391.4,1060.2   L 500.2,1083.6667   L 612.2,1083.6667   L 721,1060.2   L 822.33333,1015.4   L 913,949.26667   L 987.66667,866.06667   L 1043.1333,770.06667   L 1078.3333,663.4  z "
     style="fill:none;stroke:#000000;stroke-width:4.2666669px;stroke-linecap:round;stroke-linejoin:round;stroke-miterlimit:4;stroke-dasharray:none;stroke-opacity:1;" />
  <path
     id="path1949"
     d="  M 664.46667,340.2   L 449,339.13333   L 450.06667,764.73333   L 663.4,765.8  z "
     style="fill:none;stroke:#000000;stroke-width:4.2666669px;stroke-linecap:round;stroke-linejoin:round;stroke-miterlimit:4;stroke-dasharray:none;stroke-opacity:1;" />
  <path
     id="path1951"
     d="  M 663.4,659.13333   L 661.26667,637.8   L 654.86667,616.46667   L 643.13333,597.26667   L 628.2,580.2   L 610.06667,567.4   L 589.8,557.8   L 568.46667,553.53333   L 546.06667,553.53333   L 524.73333,557.8   L 503.4,567.4   L 486.33333,580.2   L 471.4,597.26667   L 459.66667,616.46667   L 453.26667,637.8   L 450.06667,659.13333   L 453.26667,681.53333   L 459.66667,702.86667   L 471.4,722.06667   L 486.33333,739.13333   L 503.4,751.93333   L 524.73333,761.53333   L 546.06667,765.8   L 568.46667,765.8   L 589.8,761.53333   L 610.06667,751.93333   L 628.2,739.13333   L 643.13333,722.06667   L 654.86667,702.86667   L 661.26667,681.53333  z "
     style="fill:none;stroke:#000000;stroke-width:4.2666669px;stroke-linecap:round;stroke-linejoin:round;stroke-miterlimit:4;stroke-dasharray:none;stroke-opacity:1;" />
</svg>
