<?xml version="1.0" encoding="UTF-8" standalone="no"?>
<svg
   xmlns:dc="http://purl.org/dc/elements/1.1/"
   xmlns:cc="http://creativecommons.org/ns#"
   xmlns:rdf="http://www.w3.org/1999/02/22-rdf-syntax-ns#"
   xmlns:svg="http://www.w3.org/2000/svg"
   xmlns="http://www.w3.org/2000/svg"
   xmlns:sodipodi="http://sodipodi.sourceforge.net/DTD/sodipodi-0.dtd"
   xmlns:inkscape="http://www.inkscape.org/namespaces/inkscape"
   sodipodi:docname="HVF.wmf"
   id="svg1998"
   height="294.07556mm"
   width="294.07556mm"
   version="1.0">
  <metadata
     id="metadata2002">
    <rdf:RDF>
      <cc:Work
         rdf:about="">
        <dc:format>image/svg+xml</dc:format>
        <dc:type
           rdf:resource="http://purl.org/dc/dcmitype/StillImage" />
      </cc:Work>
    </rdf:RDF>
  </metadata>
  <sodipodi:namedview
     id="namedview2000"
     inkscape:window-height="480"
     inkscape:window-width="640"
     inkscape:pageshadow="2"
     inkscape:pageopacity="0"
     guidetolerance="10"
     gridtolerance="10"
     objecttolerance="10"
     borderopacity="1"
     inkscape:document-rotation="0"
     bordercolor="#666666"
     pagecolor="#ffffff" />
  <defs
     id="defs1988">
    <pattern
       y="0"
       x="0"
       height="6"
       width="6"
       patternUnits="userSpaceOnUse"
       id="WMFhbasepattern" />
  </defs>
  <path
     id="path1990"
     d="  M 1089,1089   L 1089,22.333333   L 22.333333,22.333333   L 22.333333,1089  z "
     style="fill:none;stroke:#000000;stroke-width:4.2666669px;stroke-linecap:round;stroke-linejoin:round;stroke-miterlimit:4;stroke-dasharray:none;stroke-opacity:1;" />
  <path
     id="path1992"
     d="  M 876.73333,555.66667   L 870.33333,489.53333   L 850.06667,426.6   L 817,367.93333   L 772.2,318.86667   L 718.86667,279.4   L 658.06667,251.66667   L 591.93333,237.8   L 525.8,237.8   L 459.66667,250.6   L 398.86667,278.33333   L 344.46667,316.73333   L 299.66667,366.86667   L 266.6,424.46667   L 245.26667,487.4   L 237.8,554.6   L 245.26667,620.73333   L 265.53333,683.66667   L 298.6,742.33333   L 343.4,791.4   L 396.73333,830.86667   L 457.53333,858.6   L 523.66667,872.46667   L 589.8,872.46667   L 655.93333,859.66667   L 716.73333,831.93333   L 771.13333,793.53333   L 815.93333,743.4   L 849,685.8   L 870.33333,622.86667  z "
     style="fill:none;stroke:#000000;stroke-width:4.2666669px;stroke-linecap:round;stroke-linejoin:round;stroke-miterlimit:4;stroke-dasharray:none;stroke-opacity:1;" />
  <path
     id="path1994"
     d="  M 551.4,453.26667   L 553.53333,822.33333  "
     style="fill:none;stroke:#000000;stroke-width:4.2666669px;stroke-linecap:round;stroke-linejoin:round;stroke-miterlimit:4;stroke-dasharray:none;stroke-opacity:1;" />
  <path
     id="path1996"
     d="  M 715.66667,451.13333   L 388.2,449  "
     style="fill:none;stroke:#000000;stroke-width:4.2666669px;stroke-linecap:round;stroke-linejoin:round;stroke-miterlimit:4;stroke-dasharray:none;stroke-opacity:1;" />
</svg>
