<?xml version="1.0" encoding="UTF-8" standalone="no"?>
<svg
   xmlns:dc="http://purl.org/dc/elements/1.1/"
   xmlns:cc="http://creativecommons.org/ns#"
   xmlns:rdf="http://www.w3.org/1999/02/22-rdf-syntax-ns#"
   xmlns:svg="http://www.w3.org/2000/svg"
   xmlns="http://www.w3.org/2000/svg"
   xmlns:sodipodi="http://sodipodi.sourceforge.net/DTD/sodipodi-0.dtd"
   xmlns:inkscape="http://www.inkscape.org/namespaces/inkscape"
   sodipodi:docname="HVG.wmf"
   id="svg2011"
   height="294.07556mm"
   width="294.07556mm"
   version="1.0">
  <metadata
     id="metadata2015">
    <rdf:RDF>
      <cc:Work
         rdf:about="">
        <dc:format>image/svg+xml</dc:format>
        <dc:type
           rdf:resource="http://purl.org/dc/dcmitype/StillImage" />
      </cc:Work>
    </rdf:RDF>
  </metadata>
  <sodipodi:namedview
     id="namedview2013"
     inkscape:window-height="480"
     inkscape:window-width="640"
     inkscape:pageshadow="2"
     inkscape:pageopacity="0"
     guidetolerance="10"
     gridtolerance="10"
     objecttolerance="10"
     borderopacity="1"
     inkscape:document-rotation="0"
     bordercolor="#666666"
     pagecolor="#ffffff" />
  <defs
     id="defs2005">
    <pattern
       y="0"
       x="0"
       height="6"
       width="6"
       patternUnits="userSpaceOnUse"
       id="WMFhbasepattern" />
  </defs>
  <path
     id="path2007"
     d="  M 721,967.4   L 902.33333,972.73333   L 999.4,854.33333   L 988.73333,730.6   L 1089,652.73333   L 1017.5333,401   L 867.13333,316.73333   L 865,120.46667   L 646.33333,22.333333   L 382.86667,126.86667   L 251.66667,98.066667   L 63.933333,323.13333   L 157.8,510.86667   L 22.333333,693.26667   L 141.8,920.46667   L 326.33333,926.86667   L 443.66667,1058.0667   L 651.66667,1089  z "
     style="fill:none;stroke:#000000;stroke-width:4.2666669px;stroke-linecap:round;stroke-linejoin:round;stroke-miterlimit:4;stroke-dasharray:none;stroke-opacity:1;" />
  <path
     id="path2009"
     d="  M 662.33333,555.66667   L 647.4,502.33333   L 609,462.86667   L 555.66667,449   L 502.33333,462.86667   L 462.86667,502.33333   L 449,555.66667   L 462.86667,609   L 502.33333,647.4   L 555.66667,662.33333   L 609,647.4   L 647.4,609  z "
     style="fill:none;stroke:#000000;stroke-width:4.2666669px;stroke-linecap:round;stroke-linejoin:round;stroke-miterlimit:4;stroke-dasharray:none;stroke-opacity:1;" />
</svg>
