<?xml version="1.0" encoding="UTF-8" standalone="no"?>
<svg
   xmlns:dc="http://purl.org/dc/elements/1.1/"
   xmlns:cc="http://creativecommons.org/ns#"
   xmlns:rdf="http://www.w3.org/1999/02/22-rdf-syntax-ns#"
   xmlns:svg="http://www.w3.org/2000/svg"
   xmlns="http://www.w3.org/2000/svg"
   xmlns:sodipodi="http://sodipodi.sourceforge.net/DTD/sodipodi-0.dtd"
   xmlns:inkscape="http://www.inkscape.org/namespaces/inkscape"
   inkscape:version="1.0 (4035a4fb49, 2020-05-01)"
   height="1020"
   width="1020"
   sodipodi:docname="HVH.svg"
   id="svg15"
   version="1.1">
  <metadata
     id="metadata21">
    <rdf:RDF>
      <cc:Work
         rdf:about="">
        <dc:format>image/svg+xml</dc:format>
        <dc:type
           rdf:resource="http://purl.org/dc/dcmitype/StillImage" />
        <dc:title></dc:title>
      </cc:Work>
    </rdf:RDF>
  </metadata>
  <defs
     id="defs19" />
  <sodipodi:namedview
     inkscape:current-layer="svg15"
     inkscape:window-maximized="1"
     inkscape:window-y="-8"
     inkscape:window-x="-8"
     inkscape:cy="85"
     inkscape:cx="160"
     inkscape:zoom="0.36150834"
     fit-margin-bottom="0"
     fit-margin-right="0"
     fit-margin-left="0"
     fit-margin-top="0"
     showgrid="false"
     id="namedview17"
     inkscape:window-height="1137"
     inkscape:window-width="1920"
     inkscape:pageshadow="2"
     inkscape:pageopacity="0"
     guidetolerance="10"
     gridtolerance="10"
     objecttolerance="10"
     borderopacity="1"
     bordercolor="#666666"
     pagecolor="#ffffff" />
  <g
     transform="translate(10,10)"
     id="HVH">
    <g
       id="dim">
      <path
         id="path2"
         fill="none"
         stroke-opacity="0"
         stroke-width="20"
         stroke="#000000"
         d="M 0,0 H 1000" />
    </g>
    <g
       id="L350">
      <path
         id="path5"
         fill="none"
         stroke-width="20"
         stroke="#000000"
         d="M 0,0 V 1000 H 1000 V 0 Z" />
    </g>
    <g
       id="F0000001">
      <path
         id="path8"
         fill="none"
         stroke-width="20"
         stroke="#000000"
         d="m 362,190 -136,-4 -73,88 7,93 -75,58 53,189 112,64 1,147 164,75 197,-78 99,22 L 852,676 783,535 885,399 796,228 658,222 570,123 415,99 Z" />
    </g>
    <g
       id="FROND100">
      <path
         id="path11"
         fill="none"
         stroke-width="20"
         stroke="#000000"
         d="m 405,499 10,41 29,29 40,11 40,-10 30,-30 10,-40 -10,-40 -29,-29 -40,-11 -40,11 -29,29 z" />
    </g>
  </g>
</svg>
