<?xml version="1.0" encoding="UTF-8" standalone="no"?>
<svg
   xmlns:dc="http://purl.org/dc/elements/1.1/"
   xmlns:cc="http://creativecommons.org/ns#"
   xmlns:rdf="http://www.w3.org/1999/02/22-rdf-syntax-ns#"
   xmlns:svg="http://www.w3.org/2000/svg"
   xmlns="http://www.w3.org/2000/svg"
   xmlns:sodipodi="http://sodipodi.sourceforge.net/DTD/sodipodi-0.dtd"
   xmlns:inkscape="http://www.inkscape.org/namespaces/inkscape"
   sodipodi:docname="HVK.wmf"
   id="svg2063"
   height="179.77556mm"
   width="180.90445mm"
   version="1.0">
  <metadata
     id="metadata2067">
    <rdf:RDF>
      <cc:Work
         rdf:about="">
        <dc:format>image/svg+xml</dc:format>
        <dc:type
           rdf:resource="http://purl.org/dc/dcmitype/StillImage" />
      </cc:Work>
    </rdf:RDF>
  </metadata>
  <sodipodi:namedview
     id="namedview2065"
     inkscape:window-height="480"
     inkscape:window-width="640"
     inkscape:pageshadow="2"
     inkscape:pageopacity="0"
     guidetolerance="10"
     gridtolerance="10"
     objecttolerance="10"
     borderopacity="1"
     inkscape:document-rotation="0"
     bordercolor="#666666"
     pagecolor="#ffffff" />
  <defs
     id="defs2055">
    <pattern
       y="0"
       x="0"
       height="6"
       width="6"
       patternUnits="userSpaceOnUse"
       id="WMFhbasepattern" />
  </defs>
  <path
     id="path2057"
     d="  M 661.26667,340.2   L 654.86667,274.06667   L 634.6,211.13333   L 601.53333,152.46667   L 556.73333,103.4   L 503.4,63.933333   L 442.6,36.2   L 376.46667,22.333333   L 310.33333,22.333333   L 244.2,35.133333   L 183.4,62.866667   L 129,101.26667   L 84.2,151.4   L 51.133333,209   L 29.8,271.93333   L 22.333333,339.13333   L 29.8,405.26667   L 50.066667,468.2   L 83.133333,526.86667   L 127.93333,575.93333   L 181.26667,615.4   L 242.06667,643.13333   L 308.2,657   L 374.33333,657   L 440.46667,644.2   L 501.26667,616.46667   L 555.66667,578.06667   L 600.46667,527.93333   L 633.53333,470.33333   L 654.86667,407.4  z "
     style="fill:none;stroke:#000000;stroke-width:4.2666669px;stroke-linecap:round;stroke-linejoin:round;stroke-miterlimit:4;stroke-dasharray:none;stroke-opacity:1;" />
  <path
     id="path2059"
     d="  M 335.93333,237.8   L 338.06667,606.86667  "
     style="fill:none;stroke:#000000;stroke-width:4.2666669px;stroke-linecap:round;stroke-linejoin:round;stroke-miterlimit:4;stroke-dasharray:none;stroke-opacity:1;" />
  <path
     id="path2061"
     d="  M 500.2,235.66667   L 172.73333,233.53333  "
     style="fill:none;stroke:#000000;stroke-width:4.2666669px;stroke-linecap:round;stroke-linejoin:round;stroke-miterlimit:4;stroke-dasharray:none;stroke-opacity:1;" />
</svg>
