<?xml version="1.0" encoding="UTF-8" standalone="no"?>
<svg
   xmlns:dc="http://purl.org/dc/elements/1.1/"
   xmlns:cc="http://creativecommons.org/ns#"
   xmlns:rdf="http://www.w3.org/1999/02/22-rdf-syntax-ns#"
   xmlns:svg="http://www.w3.org/2000/svg"
   xmlns="http://www.w3.org/2000/svg"
   xmlns:sodipodi="http://sodipodi.sourceforge.net/DTD/sodipodi-0.dtd"
   xmlns:inkscape="http://www.inkscape.org/namespaces/inkscape"
   sodipodi:docname="HVN.wmf"
   id="svg2108"
   height="180.33999mm"
   width="181.46888mm"
   version="1.0">
  <metadata
     id="metadata2112">
    <rdf:RDF>
      <cc:Work
         rdf:about="">
        <dc:format>image/svg+xml</dc:format>
        <dc:type
           rdf:resource="http://purl.org/dc/dcmitype/StillImage" />
      </cc:Work>
    </rdf:RDF>
  </metadata>
  <sodipodi:namedview
     id="namedview2110"
     inkscape:window-height="480"
     inkscape:window-width="640"
     inkscape:pageshadow="2"
     inkscape:pageopacity="0"
     guidetolerance="10"
     gridtolerance="10"
     objecttolerance="10"
     borderopacity="1"
     inkscape:document-rotation="0"
     bordercolor="#666666"
     pagecolor="#ffffff" />
  <defs
     id="defs2096">
    <pattern
       y="0"
       x="0"
       height="6"
       width="6"
       patternUnits="userSpaceOnUse"
       id="WMFhbasepattern" />
  </defs>
  <path
     id="path2098"
     d="  M 663.4,340.2   L 657,274.06667   L 636.73333,210.06667   L 602.6,152.46667   L 557.8,102.33333   L 503.4,62.866667   L 442.6,36.2   L 376.46667,22.333333   L 310.33333,22.333333   L 244.2,36.2   L 183.4,62.866667   L 129,102.33333   L 84.2,152.46667   L 50.066667,210.06667   L 29.8,274.06667   L 22.333333,340.2   L 29.8,407.4   L 50.066667,471.4   L 84.2,529   L 129,579.13333   L 183.4,618.6   L 244.2,645.26667   L 310.33333,659.13333   L 376.46667,659.13333   L 442.6,645.26667   L 503.4,618.6   L 557.8,579.13333   L 602.6,529   L 636.73333,471.4   L 657,407.4  z "
     style="fill:none;stroke:#000000;stroke-width:4.2666669px;stroke-linecap:round;stroke-linejoin:round;stroke-miterlimit:4;stroke-dasharray:none;stroke-opacity:1;" />
  <path
     id="path2100"
     d="  M 46.866667,233.53333   L 450.06667,643.13333  "
     style="fill:none;stroke:#000000;stroke-width:4.2666669px;stroke-linecap:round;stroke-linejoin:round;stroke-miterlimit:4;stroke-dasharray:none;stroke-opacity:1;" />
  <path
     id="path2102"
     d="  M 235.66667,38.333333   L 657,408.46667  "
     style="fill:none;stroke:#000000;stroke-width:4.2666669px;stroke-linecap:round;stroke-linejoin:round;stroke-miterlimit:4;stroke-dasharray:none;stroke-opacity:1;" />
  <path
     id="path2104"
     d="  M 643.13333,235.66667   L 237.8,643.13333  "
     style="fill:none;stroke:#000000;stroke-width:4.2666669px;stroke-linecap:round;stroke-linejoin:round;stroke-miterlimit:4;stroke-dasharray:none;stroke-opacity:1;" />
  <path
     id="path2106"
     d="  M 402.06667,26.6   L 24.466667,395.66667  "
     style="fill:none;stroke:#000000;stroke-width:4.2666669px;stroke-linecap:round;stroke-linejoin:round;stroke-miterlimit:4;stroke-dasharray:none;stroke-opacity:1;" />
</svg>
