<?xml version="1.0" encoding="UTF-8" standalone="no"?>
<svg
   xmlns:dc="http://purl.org/dc/elements/1.1/"
   xmlns:cc="http://creativecommons.org/ns#"
   xmlns:rdf="http://www.w3.org/1999/02/22-rdf-syntax-ns#"
   xmlns:svg="http://www.w3.org/2000/svg"
   xmlns="http://www.w3.org/2000/svg"
   xmlns:sodipodi="http://sodipodi.sourceforge.net/DTD/sodipodi-0.dtd"
   xmlns:inkscape="http://www.inkscape.org/namespaces/inkscape"
   sodipodi:docname="HVS.wmf"
   id="svg2173"
   height="124.74222mm"
   width="125.02444mm"
   version="1.0">
  <metadata
     id="metadata2177">
    <rdf:RDF>
      <cc:Work
         rdf:about="">
        <dc:format>image/svg+xml</dc:format>
        <dc:type
           rdf:resource="http://purl.org/dc/dcmitype/StillImage" />
      </cc:Work>
    </rdf:RDF>
  </metadata>
  <sodipodi:namedview
     id="namedview2175"
     inkscape:window-height="480"
     inkscape:window-width="640"
     inkscape:pageshadow="2"
     inkscape:pageopacity="0"
     guidetolerance="10"
     gridtolerance="10"
     objecttolerance="10"
     borderopacity="1"
     inkscape:document-rotation="0"
     bordercolor="#666666"
     pagecolor="#ffffff" />
  <defs
     id="defs2167">
    <pattern
       y="0"
       x="0"
       height="6"
       width="6"
       patternUnits="userSpaceOnUse"
       id="WMFhbasepattern" />
  </defs>
  <path
     id="path2169"
     d="  M 24.466667,235.66667   L 28.733333,191.93333   L 42.6,149.26667   L 65,110.86667   L 94.866667,77.8   L 130.06667,52.2   L 170.6,34.066667   L 214.33333,24.466667   L 259.13333,24.466667   L 302.86667,34.066667   L 343.4,52.2   L 378.6,77.8   L 408.46667,110.86667   L 430.86667,149.26667   L 444.73333,191.93333   L 450.06667,235.66667   L 444.73333,280.46667   L 430.86667,323.13333   L 408.46667,361.53333   L 378.6,394.6   L 343.4,420.2   L 302.86667,438.33333   L 259.13333,447.93333   L 214.33333,447.93333   L 170.6,438.33333   L 130.06667,420.2   L 94.866667,394.6   L 65,361.53333   L 42.6,323.13333   L 28.733333,280.46667  z "
     style="fill:none;stroke:#000000;stroke-width:4.2666669px;stroke-linecap:round;stroke-linejoin:round;stroke-miterlimit:4;stroke-dasharray:none;stroke-opacity:1;" />
  <path
     id="path2171"
     d="  M 22.333333,449   L 449,22.333333  "
     style="fill:none;stroke:#000000;stroke-width:4.2666669px;stroke-linecap:round;stroke-linejoin:round;stroke-miterlimit:4;stroke-dasharray:none;stroke-opacity:1;" />
</svg>
