<?xml version="1.0" encoding="UTF-8" standalone="no"?>
<svg
   xmlns:dc="http://purl.org/dc/elements/1.1/"
   xmlns:cc="http://creativecommons.org/ns#"
   xmlns:rdf="http://www.w3.org/1999/02/22-rdf-syntax-ns#"
   xmlns:svg="http://www.w3.org/2000/svg"
   xmlns="http://www.w3.org/2000/svg"
   xmlns:sodipodi="http://sodipodi.sourceforge.net/DTD/sodipodi-0.dtd"
   xmlns:inkscape="http://www.inkscape.org/namespaces/inkscape"
   sodipodi:docname="HVU.wmf"
   id="svg2199"
   height="292.66444mm"
   width="294.07556mm"
   version="1.0">
  <metadata
     id="metadata2203">
    <rdf:RDF>
      <cc:Work
         rdf:about="">
        <dc:format>image/svg+xml</dc:format>
        <dc:type
           rdf:resource="http://purl.org/dc/dcmitype/StillImage" />
      </cc:Work>
    </rdf:RDF>
  </metadata>
  <sodipodi:namedview
     id="namedview2201"
     inkscape:window-height="480"
     inkscape:window-width="640"
     inkscape:pageshadow="2"
     inkscape:pageopacity="0"
     guidetolerance="10"
     gridtolerance="10"
     objecttolerance="10"
     borderopacity="1"
     inkscape:document-rotation="0"
     bordercolor="#666666"
     pagecolor="#ffffff" />
  <defs
     id="defs2193">
    <pattern
       y="0"
       x="0"
       height="6"
       width="6"
       patternUnits="userSpaceOnUse"
       id="WMFhbasepattern" />
  </defs>
  <path
     id="path2195"
     d="  M 1089,552.46667   L 1078.3333,442.6   L 1043.1333,335.93333   L 987.66667,239.93333   L 913,156.73333   L 822.33333,90.6   L 721,45.8   L 612.2,22.333333   L 500.2,22.333333   L 391.4,45.8   L 290.06667,90.6   L 199.4,156.73333   L 124.73333,239.93333   L 69.266667,335.93333   L 34.066667,442.6   L 22.333333,552.46667   L 34.066667,663.4   L 69.266667,770.06667   L 124.73333,866.06667   L 199.4,949.26667   L 289,1015.4   L 391.4,1060.2   L 500.2,1083.6667   L 612.2,1083.6667   L 721,1060.2   L 822.33333,1015.4   L 913,949.26667   L 987.66667,866.06667   L 1043.1333,770.06667   L 1078.3333,663.4  z "
     style="fill:none;stroke:#000000;stroke-width:4.2666669px;stroke-linecap:round;stroke-linejoin:round;stroke-miterlimit:4;stroke-dasharray:none;stroke-opacity:1;" />
  <path
     id="path2197"
     d="  M 798.86667,653.8   L 310.33333,653.8   L 310.33333,449   L 802.06667,454.33333  z "
     style="fill:none;stroke:#000000;stroke-width:4.2666669px;stroke-linecap:round;stroke-linejoin:round;stroke-miterlimit:4;stroke-dasharray:none;stroke-opacity:1;" />
</svg>
