<?xml version="1.0" encoding="UTF-8" standalone="no"?>
<svg
   xmlns:dc="http://purl.org/dc/elements/1.1/"
   xmlns:cc="http://creativecommons.org/ns#"
   xmlns:rdf="http://www.w3.org/1999/02/22-rdf-syntax-ns#"
   xmlns:svg="http://www.w3.org/2000/svg"
   xmlns="http://www.w3.org/2000/svg"
   xmlns:sodipodi="http://sodipodi.sourceforge.net/DTD/sodipodi-0.dtd"
   xmlns:inkscape="http://www.inkscape.org/namespaces/inkscape"
   sodipodi:docname="HW3.wmf"
   id="svg2292"
   height="294.07556mm"
   width="294.07556mm"
   version="1.0">
  <metadata
     id="metadata2296">
    <rdf:RDF>
      <cc:Work
         rdf:about="">
        <dc:format>image/svg+xml</dc:format>
        <dc:type
           rdf:resource="http://purl.org/dc/dcmitype/StillImage" />
      </cc:Work>
    </rdf:RDF>
  </metadata>
  <sodipodi:namedview
     id="namedview2294"
     inkscape:window-height="480"
     inkscape:window-width="640"
     inkscape:pageshadow="2"
     inkscape:pageopacity="0"
     guidetolerance="10"
     gridtolerance="10"
     objecttolerance="10"
     borderopacity="1"
     inkscape:document-rotation="0"
     bordercolor="#666666"
     pagecolor="#ffffff" />
  <defs
     id="defs2286">
    <pattern
       y="0"
       x="0"
       height="6"
       width="6"
       patternUnits="userSpaceOnUse"
       id="WMFhbasepattern" />
  </defs>
  <path
     id="path2288"
     d="  M 1089,1089   L 1089,22.333333   L 22.333333,22.333333   L 22.333333,1089  z "
     style="fill:none;stroke:#000000;stroke-width:4.2666669px;stroke-linecap:round;stroke-linejoin:round;stroke-miterlimit:4;stroke-dasharray:none;stroke-opacity:1;" />
  <path
     id="path2290"
     d="  M 876.73333,553.53333   L 869.26667,487.4   L 849,423.4   L 814.86667,365.8   L 769,316.73333   L 714.6,278.33333   L 652.73333,250.6   L 587.66667,237.8   L 520.46667,237.8   L 455.4,252.73333   L 394.6,280.46667   L 340.2,319.93333   L 295.4,370.06667   L 262.33333,428.73333   L 243.13333,492.73333   L 235.66667,558.86667   L 244.2,626.06667   L 264.46667,690.06667   L 298.6,747.66667   L 344.46667,796.73333   L 398.86667,835.13333   L 460.73333,862.86667   L 525.8,875.66667   L 593,875.66667   L 658.06667,860.73333   L 718.86667,833   L 773.26667,793.53333   L 818.06667,743.4   L 851.13333,684.73333   L 870.33333,620.73333  z "
     style="fill:none;stroke:#000000;stroke-width:4.2666669px;stroke-linecap:round;stroke-linejoin:round;stroke-miterlimit:4;stroke-dasharray:none;stroke-opacity:1;" />
</svg>
