<?xml version="1.0" encoding="UTF-8" standalone="no"?>
<svg
   xmlns:dc="http://purl.org/dc/elements/1.1/"
   xmlns:cc="http://creativecommons.org/ns#"
   xmlns:rdf="http://www.w3.org/1999/02/22-rdf-syntax-ns#"
   xmlns:svg="http://www.w3.org/2000/svg"
   xmlns="http://www.w3.org/2000/svg"
   xmlns:sodipodi="http://sodipodi.sourceforge.net/DTD/sodipodi-0.dtd"
   xmlns:inkscape="http://www.inkscape.org/namespaces/inkscape"
   sodipodi:docname="HW5.wmf"
   id="svg2320"
   height="294.07556mm"
   width="294.07556mm"
   version="1.0">
  <metadata
     id="metadata2324">
    <rdf:RDF>
      <cc:Work
         rdf:about="">
        <dc:format>image/svg+xml</dc:format>
        <dc:type
           rdf:resource="http://purl.org/dc/dcmitype/StillImage" />
      </cc:Work>
    </rdf:RDF>
  </metadata>
  <sodipodi:namedview
     id="namedview2322"
     inkscape:window-height="480"
     inkscape:window-width="640"
     inkscape:pageshadow="2"
     inkscape:pageopacity="0"
     guidetolerance="10"
     gridtolerance="10"
     objecttolerance="10"
     borderopacity="1"
     inkscape:document-rotation="0"
     bordercolor="#666666"
     pagecolor="#ffffff" />
  <defs
     id="defs2310">
    <pattern
       y="0"
       x="0"
       height="6"
       width="6"
       patternUnits="userSpaceOnUse"
       id="WMFhbasepattern" />
  </defs>
  <path
     id="path2312"
     d="  M 1089,1089   L 1089,22.333333   L 22.333333,22.333333   L 22.333333,1089  z "
     style="fill:none;stroke:#000000;stroke-width:4.2666669px;stroke-linecap:round;stroke-linejoin:round;stroke-miterlimit:4;stroke-dasharray:none;stroke-opacity:1;" />
  <path
     id="path2314"
     d="  M 751.93333,555.66667   L 747.66667,515.13333   L 734.86667,475.66667   L 714.6,439.4   L 686.86667,408.46667   L 652.73333,383.93333   L 615.4,366.86667   L 573.8,358.33333   L 533.26667,358.33333   L 491.66667,366.86667   L 454.33333,383.93333   L 420.2,408.46667   L 392.46667,439.4   L 372.2,475.66667   L 359.4,515.13333   L 354.06667,555.66667   L 359.4,597.26667   L 372.2,636.73333   L 392.46667,673   L 420.2,703.93333   L 454.33333,728.46667   L 491.66667,745.53333   L 533.26667,754.06667   L 573.8,754.06667   L 615.4,745.53333   L 652.73333,728.46667   L 686.86667,703.93333   L 714.6,673   L 734.86667,636.73333   L 747.66667,597.26667  z "
     style="fill:none;stroke:#000000;stroke-width:4.2666669px;stroke-linecap:round;stroke-linejoin:round;stroke-miterlimit:4;stroke-dasharray:none;stroke-opacity:1;" />
  <path
     id="path2316"
     d="  M 464.66667,551.06667   L 563.86667,552.13333  "
     style="fill:none;stroke:#000000;stroke-width:4.2666669px;stroke-linecap:round;stroke-linejoin:round;stroke-miterlimit:4;stroke-dasharray:none;stroke-opacity:1;" />
  <path
     id="path2318"
     d="  M 636.73333,450.06667   L 461.8,449   L 462.86667,663.4  "
     style="fill:none;stroke:#000000;stroke-width:4.2666669px;stroke-linecap:round;stroke-linejoin:round;stroke-miterlimit:4;stroke-dasharray:none;stroke-opacity:1;" />
</svg>
