<?xml version="1.0" encoding="UTF-8" standalone="no"?>
<svg
   xmlns:dc="http://purl.org/dc/elements/1.1/"
   xmlns:cc="http://creativecommons.org/ns#"
   xmlns:rdf="http://www.w3.org/1999/02/22-rdf-syntax-ns#"
   xmlns:svg="http://www.w3.org/2000/svg"
   xmlns="http://www.w3.org/2000/svg"
   xmlns:sodipodi="http://sodipodi.sourceforge.net/DTD/sodipodi-0.dtd"
   xmlns:inkscape="http://www.inkscape.org/namespaces/inkscape"
   sodipodi:docname="HW6.wmf"
   id="svg2335"
   height="294.07556mm"
   width="294.07556mm"
   version="1.0">
  <metadata
     id="metadata2339">
    <rdf:RDF>
      <cc:Work
         rdf:about="">
        <dc:format>image/svg+xml</dc:format>
        <dc:type
           rdf:resource="http://purl.org/dc/dcmitype/StillImage" />
      </cc:Work>
    </rdf:RDF>
  </metadata>
  <sodipodi:namedview
     id="namedview2337"
     inkscape:window-height="480"
     inkscape:window-width="640"
     inkscape:pageshadow="2"
     inkscape:pageopacity="0"
     guidetolerance="10"
     gridtolerance="10"
     objecttolerance="10"
     borderopacity="1"
     inkscape:document-rotation="0"
     bordercolor="#666666"
     pagecolor="#ffffff" />
  <defs
     id="defs2327">
    <pattern
       y="0"
       x="0"
       height="6"
       width="6"
       patternUnits="userSpaceOnUse"
       id="WMFhbasepattern" />
  </defs>
  <path
     id="path2329"
     d="  M 1089,1089   L 1089,22.333333   L 22.333333,22.333333   L 22.333333,1089  z "
     style="fill:none;stroke:#000000;stroke-width:4.2666669px;stroke-linecap:round;stroke-linejoin:round;stroke-miterlimit:4;stroke-dasharray:none;stroke-opacity:1;" />
  <path
     id="path2331"
     d="  M 662.33333,553.53333   L 660.2,532.2   L 653.8,510.86667   L 642.06667,491.66667   L 627.13333,474.6   L 609,461.8   L 588.73333,453.26667   L 566.33333,447.93333   L 545,449   L 522.6,453.26667   L 502.33333,462.86667   L 484.2,475.66667   L 469.26667,492.73333   L 458.6,511.93333   L 452.2,533.26667   L 449,555.66667   L 452.2,577   L 458.6,598.33333   L 470.33333,617.53333   L 485.26667,634.6   L 503.4,647.4   L 523.66667,655.93333   L 546.06667,661.26667   L 567.4,660.2   L 589.8,655.93333   L 610.06667,646.33333   L 628.2,633.53333   L 643.13333,616.46667   L 653.8,597.26667   L 660.2,575.93333  z "
     style="fill:none;stroke:#000000;stroke-width:4.2666669px;stroke-linecap:round;stroke-linejoin:round;stroke-miterlimit:4;stroke-dasharray:none;stroke-opacity:1;" />
  <path
     id="path2333"
     d="  M 632.46667,482.06667   L 478.86667,484.2   L 481,627.13333   L 633.53333,626.06667   L 634.6,483.13333  "
     style="fill:none;stroke:#000000;stroke-width:4.2666669px;stroke-linecap:round;stroke-linejoin:round;stroke-miterlimit:4;stroke-dasharray:none;stroke-opacity:1;" />
</svg>
