<?xml version="1.0" encoding="UTF-8" standalone="no"?>
<svg
   xmlns:dc="http://purl.org/dc/elements/1.1/"
   xmlns:cc="http://creativecommons.org/ns#"
   xmlns:rdf="http://www.w3.org/1999/02/22-rdf-syntax-ns#"
   xmlns:svg="http://www.w3.org/2000/svg"
   xmlns="http://www.w3.org/2000/svg"
   xmlns:sodipodi="http://sodipodi.sourceforge.net/DTD/sodipodi-0.dtd"
   xmlns:inkscape="http://www.inkscape.org/namespaces/inkscape"
   inkscape:version="1.0 (4035a4fb49, 2020-05-01)"
   height="617.7085"
   width="617.7085"
   sodipodi:docname="HW9.svg"
   id="svg13"
   version="1.1">
  <metadata
     id="metadata19">
    <rdf:RDF>
      <cc:Work
         rdf:about="">
        <dc:format>image/svg+xml</dc:format>
        <dc:type
           rdf:resource="http://purl.org/dc/dcmitype/StillImage" />
        <dc:title></dc:title>
      </cc:Work>
    </rdf:RDF>
  </metadata>
  <defs
     id="defs17">
    <inkscape:path-effect
       effect="spiro"
       id="path-effect914"
       is_visible="true"
       lpeversion="1" />
    <inkscape:path-effect
       lpeversion="1"
       is_visible="true"
       id="path-effect895"
       effect="spiro" />
    <inkscape:path-effect
       only_selected="false"
       apply_with_weight="true"
       apply_no_weight="true"
       helper_size="0"
       steps="2"
       weight="33.333333"
       lpeversion="1"
       is_visible="true"
       id="path-effect891"
       effect="bspline" />
  </defs>
  <sodipodi:namedview
     inkscape:current-layer="svg13"
     inkscape:window-maximized="1"
     inkscape:window-y="-8"
     inkscape:window-x="-8"
     inkscape:cy="428.47969"
     inkscape:cx="147.90484"
     inkscape:zoom="1.0824912"
     fit-margin-bottom="0"
     fit-margin-right="0"
     fit-margin-left="0"
     fit-margin-top="0"
     showgrid="false"
     id="namedview15"
     inkscape:window-height="1137"
     inkscape:window-width="1920"
     inkscape:pageshadow="2"
     inkscape:pageopacity="0"
     guidetolerance="10"
     gridtolerance="10"
     objecttolerance="10"
     borderopacity="1"
     bordercolor="#666666"
     pagecolor="#ffffff" />
  <ellipse
     ry="263.72452"
     rx="256.57755"
     cy="347.63397"
     cx="309.82224"
     id="path844"
     style="opacity:1;fill:#fffdfd;fill-opacity:1;stroke:#000000;stroke-width:12.7;stroke-miterlimit:4;stroke-dasharray:none;stroke-opacity:1" />
  <path
     sodipodi:nodetypes="csc"
     inkscape:original-d="M 132.59665,154.33296 C 146.76251,104.44903 111.04243,57.335475 125.20629,7.4495451 139.37015,-42.436395 206.8092,98.90626 211.11924,102.60044"
     inkscape:path-effect="#path-effect895"
     id="path893"
     d="M 132.59665,154.33296 C 115.09483,152.54869 98.323336,144.31581 86.206832,131.56091 74.090329,118.80601 66.728717,101.63423 65.844677,84.063921 64.960636,66.493614 70.561456,48.669638 81.336496,34.762958 92.111535,20.856278 107.97196,10.98155 125.20629,7.4495451 c 12.61384,-2.5850807 25.89843,-1.820537 38.13241,2.1945657 12.23399,4.0151022 23.38812,11.2711582 32.01708,20.8279652 8.62896,9.556807 14.71212,21.391501 17.46125,33.970604 2.74913,12.579103 2.15765,25.87252 -1.69779,38.15776"
     style="fill:none;stroke:#000000;stroke-width:12.7;stroke-linecap:butt;stroke-linejoin:miter;stroke-miterlimit:4;stroke-dasharray:none;stroke-opacity:1" />
  <path
     style="fill:none;stroke:#000000;stroke-width:12.7;stroke-linecap:butt;stroke-linejoin:miter;stroke-miterlimit:4;stroke-dasharray:none;stroke-opacity:1"
     d="m 398.23931,98.925146 c -3.8037,-12.291797 -4.20392,-25.617954 -1.14473,-38.115863 3.0592,-12.497909 9.56925,-24.132594 18.62024,-33.277866 9.05098,-9.145272 20.61758,-15.775537 33.08312,-18.9640777 12.46554,-3.1885406 25.79513,-2.9264335 38.12568,0.7496863 15.15395,4.5178614 28.70762,14.2280184 37.85964,27.1235114 9.15202,12.895493 13.84439,28.894578 13.10725,44.69046 -0.73714,15.795882 -6.89912,31.288433 -17.21233,43.275543 -10.31321,11.98712 -24.71228,20.39282 -40.22112,23.47975"
     id="path893-7"
     inkscape:path-effect="#path-effect914"
     inkscape:original-d="M 398.23931,98.925146 C 412.40517,49.041216 444.00856,38.429206 486.92362,9.3170256 3503.2546,-2036.8641 490.5707,136.74382 480.45706,147.88629"
     sodipodi:nodetypes="csc" />
</svg>
