<?xml version="1.0" encoding="UTF-8" standalone="no"?>
<svg
   xmlns:dc="http://purl.org/dc/elements/1.1/"
   xmlns:cc="http://creativecommons.org/ns#"
   xmlns:rdf="http://www.w3.org/1999/02/22-rdf-syntax-ns#"
   xmlns:svg="http://www.w3.org/2000/svg"
   xmlns="http://www.w3.org/2000/svg"
   xmlns:sodipodi="http://sodipodi.sourceforge.net/DTD/sodipodi-0.dtd"
   xmlns:inkscape="http://www.inkscape.org/namespaces/inkscape"
   sodipodi:docname="HWC.wmf"
   id="svg2407"
   height="180.62223mm"
   width="181.46888mm"
   version="1.0">
  <metadata
     id="metadata2411">
    <rdf:RDF>
      <cc:Work
         rdf:about="">
        <dc:format>image/svg+xml</dc:format>
        <dc:type
           rdf:resource="http://purl.org/dc/dcmitype/StillImage" />
      </cc:Work>
    </rdf:RDF>
  </metadata>
  <sodipodi:namedview
     id="namedview2409"
     inkscape:window-height="480"
     inkscape:window-width="640"
     inkscape:pageshadow="2"
     inkscape:pageopacity="0"
     guidetolerance="10"
     gridtolerance="10"
     objecttolerance="10"
     borderopacity="1"
     inkscape:document-rotation="0"
     bordercolor="#666666"
     pagecolor="#ffffff" />
  <defs
     id="defs2403">
    <pattern
       y="0"
       x="0"
       height="6"
       width="6"
       patternUnits="userSpaceOnUse"
       id="WMFhbasepattern" />
  </defs>
  <path
     id="path2405"
     d="  M 663.4,338.06667   L 655.93333,271.93333   L 635.66667,207.93333   L 601.53333,150.33333   L 555.66667,101.26667   L 501.26667,62.866667   L 439.4,35.133333   L 374.33333,22.333333   L 307.13333,22.333333   L 242.06667,37.266667   L 181.26667,65   L 126.86667,104.46667   L 82.066667,154.6   L 49,213.26667   L 29.8,277.26667   L 22.333333,343.4   L 30.866667,410.6   L 51.133333,474.6   L 85.266667,532.2   L 131.13333,581.26667   L 185.53333,619.66667   L 247.4,647.4   L 312.46667,660.2   L 379.66667,660.2   L 444.73333,645.26667   L 505.53333,617.53333   L 559.93333,578.06667   L 604.73333,527.93333   L 637.8,469.26667   L 657,405.26667  z "
     style="fill:none;stroke:#000000;stroke-width:4.2666669px;stroke-linecap:round;stroke-linejoin:round;stroke-miterlimit:4;stroke-dasharray:none;stroke-opacity:1;" />
</svg>
