<?xml version="1.0" encoding="UTF-8" standalone="no"?>
<svg
   xmlns:dc="http://purl.org/dc/elements/1.1/"
   xmlns:cc="http://creativecommons.org/ns#"
   xmlns:rdf="http://www.w3.org/1999/02/22-rdf-syntax-ns#"
   xmlns:svg="http://www.w3.org/2000/svg"
   xmlns="http://www.w3.org/2000/svg"
   xmlns:sodipodi="http://sodipodi.sourceforge.net/DTD/sodipodi-0.dtd"
   xmlns:inkscape="http://www.inkscape.org/namespaces/inkscape"
   sodipodi:docname="HWE.wmf"
   id="svg2435"
   height="288.71332mm"
   width="290.40666mm"
   version="1.0">
  <metadata
     id="metadata2439">
    <rdf:RDF>
      <cc:Work
         rdf:about="">
        <dc:format>image/svg+xml</dc:format>
        <dc:type
           rdf:resource="http://purl.org/dc/dcmitype/StillImage" />
      </cc:Work>
    </rdf:RDF>
  </metadata>
  <sodipodi:namedview
     id="namedview2437"
     inkscape:window-height="480"
     inkscape:window-width="640"
     inkscape:pageshadow="2"
     inkscape:pageopacity="0"
     guidetolerance="10"
     gridtolerance="10"
     objecttolerance="10"
     borderopacity="1"
     inkscape:document-rotation="0"
     bordercolor="#666666"
     pagecolor="#ffffff" />
  <defs
     id="defs2427">
    <pattern
       y="0"
       x="0"
       height="6"
       width="6"
       patternUnits="userSpaceOnUse"
       id="WMFhbasepattern" />
  </defs>
  <path
     id="path2429"
     d="  M 22.333333,545   L 34.066667,436.2   L 67.133333,331.66667   L 122.6,235.66667   L 196.2,154.6   L 284.73333,89.533333   L 386.06667,44.733333   L 493.8,22.333333   L 603.66667,22.333333   L 711.4,44.733333   L 811.66667,89.533333   L 900.2,154.6   L 973.8,235.66667   L 1029.2667,331.66667   L 1063.4,436.2   L 1075.1333,545   L 1063.4,654.86667   L 1029.2667,759.4   L 973.8,855.4   L 900.2,936.46667   L 811.66667,1001.5333   L 711.4,1046.3333   L 603.66667,1068.7333   L 493.8,1068.7333   L 386.06667,1046.3333   L 284.73333,1001.5333   L 196.2,936.46667   L 122.6,855.4   L 67.133333,759.4   L 34.066667,654.86667  z "
     style="fill:none;stroke:#000000;stroke-width:4.2666669px;stroke-linecap:round;stroke-linejoin:round;stroke-miterlimit:4;stroke-dasharray:none;stroke-opacity:1;" />
  <path
     id="path2431"
     d="  M 332.73333,545   L 595.13333,542.86667  "
     style="fill:none;stroke:#000000;stroke-width:4.2666669px;stroke-linecap:round;stroke-linejoin:round;stroke-miterlimit:4;stroke-dasharray:none;stroke-opacity:1;" />
  <path
     id="path2433"
     d="  M 789.26667,266.6   L 326.33333,263.4   L 329.53333,830.86667  "
     style="fill:none;stroke:#000000;stroke-width:4.2666669px;stroke-linecap:round;stroke-linejoin:round;stroke-miterlimit:4;stroke-dasharray:none;stroke-opacity:1;" />
</svg>
