<?xml version="1.0" encoding="UTF-8" standalone="no"?>
<!DOCTYPE svg PUBLIC "-//W3C//DTD SVG 1.1//EN" "http://www.w3.org/Graphics/SVG/1.1/DTD/svg11.dtd">
<svg width="100%" height="100%" viewBox="0 0 661 661" version="1.1" xmlns="http://www.w3.org/2000/svg" xmlns:xlink="http://www.w3.org/1999/xlink" xml:space="preserve" xmlns:serif="http://www.serif.com/" style="fill-rule:evenodd;clip-rule:evenodd;stroke-linecap:round;stroke-linejoin:round;stroke-miterlimit:2;">
    <g transform="matrix(1,0,0,1,-5.33235,-5.34613)">
        <g transform="matrix(0.0666544,0,0,0.0668266,0,0)">
            <path d="M9993,5046L9894,4023L9581,3033L9069,2126L8393,1367L7552,740L6612,311L5589,96L4566,80L3544,294L2587,707L1746,1317L1053,2076L525,2967L195,3957L80,4996L195,6019L509,7009L1020,7916L1696,8675L2538,9302L3478,9731L4500,9946L5523,9962L6546,9748L7502,9335L8344,8725L9036,7966L9564,7075L9894,6085L9993,5046Z" style="fill:none;stroke:black;stroke-width:159.79px;"/>
        </g>
        <g transform="matrix(0.0666544,0,0,0.0668266,0,0)">
            <path d="M8541,5046L1539,5046" style="fill:none;stroke:black;stroke-width:159.79px;"/>
        </g>
        <g transform="matrix(0.0666544,0,0,0.0668266,0,0)">
            <path d="M8619,5035L8548,4291L8322,3571L7953,2912L7466,2360L6860,1903L6182,1591L5445,1435L4708,1423L3971,1579L3282,1879L2675,2323L2176,2875L1796,3523L1558,4243L1475,4999L1558,5743L1784,6463L2152,7123L2639,7675L3246,8131L3924,8443L4660,8600L5398,8611L6135,8456L6824,8155L7431,7711L7929,7159L8310,6511L8548,5791L8619,5035Z" style="fill:none;stroke:black;stroke-width:159.79px;"/>
        </g>
    </g>
</svg>
