<?xml version="1.0" encoding="UTF-8" standalone="no"?>
<svg
   xmlns:dc="http://purl.org/dc/elements/1.1/"
   xmlns:cc="http://creativecommons.org/ns#"
   xmlns:rdf="http://www.w3.org/1999/02/22-rdf-syntax-ns#"
   xmlns:svg="http://www.w3.org/2000/svg"
   xmlns="http://www.w3.org/2000/svg"
   xmlns:sodipodi="http://sodipodi.sourceforge.net/DTD/sodipodi-0.dtd"
   xmlns:inkscape="http://www.inkscape.org/namespaces/inkscape"
   sodipodi:docname="HL5.wmf"
   id="svg969"
   height="294.07556mm"
   width="294.07556mm"
   version="1.0">
  <metadata
     id="metadata973">
    <rdf:RDF>
      <cc:Work
         rdf:about="">
        <dc:format>image/svg+xml</dc:format>
        <dc:type
           rdf:resource="http://purl.org/dc/dcmitype/StillImage" />
      </cc:Work>
    </rdf:RDF>
  </metadata>
  <sodipodi:namedview
     id="namedview971"
     inkscape:window-height="480"
     inkscape:window-width="640"
     inkscape:pageshadow="2"
     inkscape:pageopacity="0"
     guidetolerance="10"
     gridtolerance="10"
     objecttolerance="10"
     borderopacity="1"
     inkscape:document-rotation="0"
     bordercolor="#666666"
     pagecolor="#ffffff" />
  <defs
     id="defs957">
    <pattern
       y="0"
       x="0"
       height="6"
       width="6"
       patternUnits="userSpaceOnUse"
       id="WMFhbasepattern" />
  </defs>
  <path
     id="path959"
     d="  M 1089,1089   L 1089,22.333333   L 22.333333,22.333333   L 22.333333,1089  z "
     style="fill:none;stroke:#000000;stroke-width:4.2666669px;stroke-linecap:round;stroke-linejoin:round;stroke-miterlimit:4;stroke-dasharray:none;stroke-opacity:1;" />
  <path
     id="path961"
     d="  M 882.06667,553.53333   L 230.33333,555.66667  "
     style="fill:none;stroke:#000000;stroke-width:4.2666669px;stroke-linecap:round;stroke-linejoin:round;stroke-miterlimit:4;stroke-dasharray:none;stroke-opacity:1;" />
  <path
     id="path963"
     d="  M 767.93333,767.93333   L 553.53333,555.66667   L 342.33333,767.93333  "
     style="fill:none;stroke:#000000;stroke-width:4.2666669px;stroke-linecap:round;stroke-linejoin:round;stroke-miterlimit:4;stroke-dasharray:none;stroke-opacity:1;" />
  <path
     id="path965"
     d="  M 239.93333,555.66667   L 878.86667,555.66667  "
     style="fill:none;stroke:#000000;stroke-width:4.2666669px;stroke-linecap:round;stroke-linejoin:round;stroke-miterlimit:4;stroke-dasharray:none;stroke-opacity:1;" />
  <path
     id="path967"
     d="  M 876.73333,553.53333   L 871.4,530.06667   L 865,506.6   L 858.6,483.13333   L 852.2,460.73333   L 844.73333,438.33333   L 836.2,417   L 826.6,396.73333   L 815.93333,377.53333   L 790.33333,342.33333   L 773.26667,325.26667   L 754.06667,309.26667   L 731.66667,293.26667   L 708.2,279.4   L 683.66667,266.6   L 659.13333,255.93333   L 632.46667,247.4   L 605.8,241   L 580.2,236.73333   L 553.53333,235.66667   L 524.73333,238.86667   L 494.86667,244.2   L 466.06667,251.66667   L 436.2,262.33333   L 408.46667,276.2   L 381.8,291.13333   L 356.2,309.26667   L 332.73333,329.53333   L 294.33333,374.33333   L 284.73333,391.4   L 276.2,408.46667   L 268.73333,426.6   L 262.33333,444.73333   L 257,462.86667   L 251.66667,482.06667   L 247.4,501.26667   L 243.13333,520.46667   L 239.93333,539.66667   L 235.66667,558.86667  "
     style="fill:none;stroke:#000000;stroke-width:4.2666669px;stroke-linecap:round;stroke-linejoin:round;stroke-miterlimit:4;stroke-dasharray:none;stroke-opacity:1;" />
</svg>
