<?xml version="1.0" encoding="UTF-8" standalone="no"?>
<svg
   xmlns:dc="http://purl.org/dc/elements/1.1/"
   xmlns:cc="http://creativecommons.org/ns#"
   xmlns:rdf="http://www.w3.org/1999/02/22-rdf-syntax-ns#"
   xmlns:svg="http://www.w3.org/2000/svg"
   xmlns="http://www.w3.org/2000/svg"
   xmlns:sodipodi="http://sodipodi.sourceforge.net/DTD/sodipodi-0.dtd"
   xmlns:inkscape="http://www.inkscape.org/namespaces/inkscape"
   sodipodi:docname="HNC.svg"
   id="svg1151"
   height="212.76167mm"
   width="212.76167mm"
   version="1.0"
   inkscape:version="1.0.2-2 (e86c870879, 2021-01-15)">
  <metadata
     id="metadata1155">
    <rdf:RDF>
      <cc:Work
         rdf:about="">
        <dc:format>image/svg+xml</dc:format>
        <dc:type
           rdf:resource="http://purl.org/dc/dcmitype/StillImage" />
        <dc:title />
      </cc:Work>
    </rdf:RDF>
  </metadata>
  <sodipodi:namedview
     id="namedview1153"
     inkscape:window-height="986"
     inkscape:window-width="1920"
     inkscape:pageshadow="2"
     inkscape:pageopacity="0"
     guidetolerance="10"
     gridtolerance="10"
     objecttolerance="10"
     borderopacity="1"
     inkscape:document-rotation="0"
     bordercolor="#666666"
     pagecolor="#ffffff"
     showgrid="false"
     fit-margin-top="0"
     fit-margin-left="0"
     fit-margin-right="0"
     fit-margin-bottom="0"
     inkscape:zoom="0.74642639"
     inkscape:cx="396.43334"
     inkscape:cy="440.25789"
     inkscape:window-x="-11"
     inkscape:window-y="-11"
     inkscape:window-maximized="1"
     inkscape:current-layer="svg1151" />
  <defs
     id="defs1133">
    <pattern
       y="0"
       x="0"
       height="6"
       width="6"
       patternUnits="userSpaceOnUse"
       id="WMFhbasepattern" />
  </defs>
  <path
     id="path1135"
     d="m 276.96684,714.43703 h 268.3401"
     style="fill:none;stroke:#000000;stroke-width:24.3599;stroke-linecap:round;stroke-linejoin:round;stroke-miterlimit:4;stroke-dasharray:none;stroke-opacity:1" />
  <path
     id="path1137"
     d="m 276.96684,44.870054 h 268.3401"
     style="fill:none;stroke:#000000;stroke-width:24.3599;stroke-linecap:round;stroke-linejoin:round;stroke-miterlimit:4;stroke-dasharray:none;stroke-opacity:1" />
  <path
     id="path1139"
     d="M 746.59023,245.75142 V 513.55568"
     style="fill:none;stroke:#000000;stroke-width:24.3599;stroke-linecap:round;stroke-linejoin:round;stroke-miterlimit:4;stroke-dasharray:none;stroke-opacity:1" />
  <path
     id="path1141"
     d="M 75.683542,245.75142 V 513.55568"
     style="fill:none;stroke:#000000;stroke-width:24.3599;stroke-linecap:round;stroke-linejoin:round;stroke-miterlimit:4;stroke-dasharray:none;stroke-opacity:1" />
  <path
     id="path1143"
     d="m 746.59023,245.75142 -6.32186,-0.11266 -6.32184,-0.28167 -6.32186,-0.50699 -6.26541,-0.73232 -6.2654,-0.84499 -6.20896,-1.12664 -6.20898,-1.23932 -6.15251,-1.46464 -6.09607,-1.68997 -6.03963,-1.85897 -5.98317,-2.02797 -5.92674,-2.2533 -5.81385,-2.42229 -5.75741,-2.59128 -5.70095,-2.7603 -5.58807,-2.92929 -5.47518,-3.15461 -5.41873,-3.32361 -5.2494,-3.43628 -5.19295,-3.60528 -5.08006,-3.8306 -4.91072,-3.94326 -4.79784,-4.05594 -4.68494,-4.28126 -4.51562,-4.39393 -4.40271,-4.50659 -4.28983,-4.67559 -4.12049,-4.78826 -3.95116,-4.95725 -3.78182,-5.01358 -3.61249,-5.18258 -3.4996,-5.29525 -3.27382,-5.35157 -3.16092,-5.46425 -2.93515,-5.57691 -2.82225,-5.68957 -2.59648,-5.74591 -2.3707,-5.85857 -2.2578,-5.85857 -2.03203,-5.97123 -1.86269,-6.02757 -1.69335,-6.140238 -1.46757,-6.083897 -1.29823,-6.196564 -1.07247,-6.196565 -0.90312,-6.252898 -0.67734,-6.309229 -0.50801,-6.252897 -0.28222,-6.309229 -0.11289,-6.309229"
     style="fill:none;stroke:#000000;stroke-width:24.3599;stroke-linecap:round;stroke-linejoin:round;stroke-miterlimit:4;stroke-dasharray:none;stroke-opacity:1" />
  <path
     id="path1145"
     d="m 545.30694,714.43703 0.11289,-6.30923 0.28222,-6.30923 0.50801,-6.30922 0.67734,-6.2529 0.90312,-6.2529 1.07247,-6.19656 1.29823,-6.19657 1.46757,-6.14023 1.69335,-6.0839 1.86269,-6.02757 2.03203,-5.97124 2.2578,-5.9149 2.3707,-5.80224 2.59648,-5.7459 2.82225,-5.68957 2.93515,-5.57691 3.16092,-5.46424 3.27382,-5.40792 3.4996,-5.23891 3.61249,-5.18258 3.78182,-5.06992 3.95116,-4.90092 4.12049,-4.78825 4.28983,-4.67559 4.40271,-4.5066 4.51562,-4.39393 4.68494,-4.28126 4.79784,-4.11226 4.91072,-3.94327 5.08006,-3.77427 5.19295,-3.60528 5.2494,-3.49259 5.41873,-3.26729 5.47518,-3.15461 5.58807,-2.92929 5.70095,-2.81662 5.75741,-2.5913 5.81385,-2.36596 5.92674,-2.25329 5.98317,-2.02797 6.03963,-1.85897 6.09607,-1.68997 6.15251,-1.46464 6.20898,-1.29564 6.20896,-1.07032 6.2654,-0.90132 6.26541,-0.67599 6.32186,-0.507 6.32184,-0.28165 h 6.32186"
     style="fill:none;stroke:#000000;stroke-width:24.3599;stroke-linecap:round;stroke-linejoin:round;stroke-miterlimit:4;stroke-dasharray:none;stroke-opacity:1" />
  <path
     id="path1147"
     d="m 75.683542,513.55568 6.321853,0.11266 6.321853,0.28165 6.265409,0.507 6.321853,0.67599 6.26541,0.90132 6.20896,1.07032 6.20897,1.29564 6.09607,1.46464 6.15252,1.68997 6.03962,1.85897 5.98318,2.02797 5.8703,2.25329 5.87029,2.36596 5.75741,2.5913 5.70095,2.81662 5.58807,2.92929 5.47518,3.15461 5.36228,3.26729 5.30585,3.49259 5.19294,3.60528 5.02362,3.77427 4.96717,3.94327 4.79784,4.11226 4.68494,4.28126 4.51561,4.39393 4.40273,4.5066 4.28981,4.67559 4.06406,4.78825 3.95116,4.90092 3.83826,5.06992 3.6125,5.18258 3.44315,5.23891 3.33026,5.40792 3.16092,5.46424 2.93515,5.57691 2.76582,5.68957 2.59646,5.7459 2.42714,5.80224 2.25781,5.9149 2.03203,5.97124 1.86268,6.02757 1.69336,6.0839 1.46757,6.14023 1.2418,6.19657 1.1289,6.19656 0.84668,6.2529 0.73379,6.2529 0.508,6.30922 0.28222,6.30923 0.11289,6.30923"
     style="fill:none;stroke:#000000;stroke-width:24.3599;stroke-linecap:round;stroke-linejoin:round;stroke-miterlimit:4;stroke-dasharray:none;stroke-opacity:1" />
  <path
     id="path1149"
     d="m 276.96684,44.870054 v 6.083899 l -0.16933,6.872553 -0.50801,6.309231 -0.67735,6.252896 -0.90311,6.252897 -1.12891,6.196564 -1.29823,6.196566 -1.46757,6.140227 -1.69336,6.083903 -1.86269,6.02757 -2.03202,5.97123 -2.25781,5.91491 -2.42714,5.80224 -2.59647,5.74591 -2.76582,5.68956 -2.99158,5.52059 -3.16093,5.52057 -3.27381,5.35158 -3.49961,5.29524 -3.61248,5.12626 -3.83828,5.06991 -3.95115,4.90093 -4.12049,4.78824 -4.23339,4.6756 -4.40272,4.50659 -4.57205,4.39393 -4.68495,4.22492 -4.79783,4.11227 -4.96718,3.94327 -5.02361,3.77427 -5.19295,3.60528 -5.30584,3.4926 -5.36229,3.26729 -5.53162,3.1546 -5.58807,2.92929 -5.70095,2.76029 -5.75741,2.59129 -5.81384,2.4223 -5.92675,2.19696 -5.98318,2.02797 -6.03962,1.85897 -6.09608,1.63363 -6.15251,1.46464 -6.20897,1.29565 -6.20896,1.07032 -6.26541,0.90132 -6.321853,0.67599 -6.265409,0.50698 -6.321853,0.28167 h -6.321853"
     style="fill:none;stroke:#000000;stroke-width:24.3599;stroke-linecap:round;stroke-linejoin:round;stroke-miterlimit:4;stroke-dasharray:none;stroke-opacity:1" />
</svg>
