<?xml version="1.0" encoding="UTF-8" standalone="no"?>
<svg
   xmlns:dc="http://purl.org/dc/elements/1.1/"
   xmlns:cc="http://creativecommons.org/ns#"
   xmlns:rdf="http://www.w3.org/1999/02/22-rdf-syntax-ns#"
   xmlns:svg="http://www.w3.org/2000/svg"
   xmlns="http://www.w3.org/2000/svg"
   xmlns:sodipodi="http://sodipodi.sourceforge.net/DTD/sodipodi-0.dtd"
   xmlns:inkscape="http://www.inkscape.org/namespaces/inkscape"
   inkscape:version="1.0 (4035a4fb49, 2020-05-01)"
   height="1020"
   width="1020"
   sodipodi:docname="HU1.svg"
   id="svg24"
   version="1.1">
  <metadata
     id="metadata30">
    <rdf:RDF>
      <cc:Work
         rdf:about="">
        <dc:format>image/svg+xml</dc:format>
        <dc:type
           rdf:resource="http://purl.org/dc/dcmitype/StillImage" />
        <dc:title></dc:title>
      </cc:Work>
    </rdf:RDF>
  </metadata>
  <defs
     id="defs28" />
  <sodipodi:namedview
     inkscape:current-layer="svg24"
     inkscape:window-maximized="1"
     inkscape:window-y="-8"
     inkscape:window-x="-8"
     inkscape:cy="585"
     inkscape:cx="660"
     inkscape:zoom="0.51125"
     fit-margin-bottom="0"
     fit-margin-right="0"
     fit-margin-left="0"
     fit-margin-top="0"
     showgrid="false"
     id="namedview26"
     inkscape:window-height="1137"
     inkscape:window-width="1920"
     inkscape:pageshadow="2"
     inkscape:pageopacity="0"
     guidetolerance="10"
     gridtolerance="10"
     objecttolerance="10"
     borderopacity="1"
     bordercolor="#666666"
     pagecolor="#ffffff" />
  <g
     transform="matrix(1,0,0,-1,10,1010)"
     id="-HU1">
    <g
       id="dim">
      <path
         id="path2"
         fill="none"
         stroke-opacity="0"
         stroke-width="1"
         stroke="#000000"
         d="M 0,0 H 1000" />
    </g>
    <g
       id="TCC">
      <path
         id="path5"
         fill="none"
         stroke-width="20"
         stroke="#000000"
         d="M 0,0 V 1000 H 1000 V 0 Z" />
    </g>
    <g
       id="G107">
      <path
         id="path8"
         fill="none"
         stroke-width="20"
         stroke="#000000"
         d="m 737,449 -4,-4 -5,-6 -6,-6 -8,-8 -7,-6 -7,-5 -7,-6 -7,-5 -8,-4 -8,-4 -9,-4 -6,-2 -6,-1 -6,-1 h -5 -5 -5 -5 l -6,1 -7,2 -7,2 -6,2 -5,3 -5,3 -5,4 -4,5 -4,6 -3,7 -3,8 -2,7 -1,7 1,5 v 153" />
    </g>
    <g
       id="g13">
      <path
         id="path11"
         fill="none"
         stroke-width="20"
         stroke="#000000"
         d="m 736,602 1,-153 v -58" />
    </g>
    <g
       id="g17">
      <path
         id="path15"
         fill="none"
         stroke-width="20"
         stroke="#000000"
         d="M 395,706 V 391" />
    </g>
    <g
       id="g21">
      <path
         id="path19"
         fill="none"
         stroke-width="20"
         stroke="#000000"
         d="M 285,706 H 395 504" />
    </g>
  </g>
</svg>
