<?xml version="1.0" encoding="UTF-8" standalone="no"?>
<!DOCTYPE svg PUBLIC "-//W3C//DTD SVG 1.1//EN" "http://www.w3.org/Graphics/SVG/1.1/DTD/svg11.dtd">
<svg width="100%" height="100%" viewBox="0 0 901 775" version="1.1" xmlns="http://www.w3.org/2000/svg" xmlns:xlink="http://www.w3.org/1999/xlink" xml:space="preserve" xmlns:serif="http://www.serif.com/" style="fill-rule:evenodd;clip-rule:evenodd;stroke-linecap:round;stroke-linejoin:round;">
    <g id="Plan-de-travail1" serif:id="Plan de travail1" transform="matrix(0.863027,0,0,0.949755,-30.2059,-90.2267)">
        <rect x="35" y="95" width="1044" height="816" style="fill:none;"/>
        <g id="path1781" transform="matrix(1.15871,0,0,1.0529,-53.0622,-59.7768)">
            <path d="M824.784,181.506L254.357,235.898L529.11,652.909L824.784,181.506Z" style="fill:none;fill-rule:nonzero;stroke:param(outline) black;stroke-width:param(outline-width) 32.69px;"/>
        </g>
        <g id="path1783" transform="matrix(1.15871,0,0,1.0529,-53.0622,-59.7768)">
            <path d="M946.121,477.179L941.938,413.023L926.596,348.868L901.492,287.501L597.45,746.353L457.982,746.353L155.335,287.501L130.23,348.868L114.889,413.023L110.704,477.179" style="fill:none;fill-rule:nonzero;stroke:param(outline) black;stroke-width:param(outline-width) 32.69px;"/>
        </g>
        <g id="path1785" transform="matrix(1.15871,0,0,1.0529,-53.0622,-59.7768)">
            <path d="M109.31,477.179L114.889,542.729L130.23,606.885L155.335,668.251L190.202,724.038L232.042,774.247L282.251,816.088L338.038,850.955L399.405,876.059L463.56,891.401L527.716,895.584L593.266,891.401L657.422,876.059L718.787,850.955L774.575,816.088L824.784,774.247L866.625,724.038L901.492,668.251L926.596,606.885L941.938,542.729L946.121,477.179" style="fill:none;fill-rule:nonzero;stroke:param(outline) black;stroke-width:param(outline-width) 32.69px;"/>
        </g>
    </g>
</svg>
