<?xml version="1.0" encoding="UTF-8" standalone="no"?>
<svg
   xmlns:dc="http://purl.org/dc/elements/1.1/"
   xmlns:cc="http://creativecommons.org/ns#"
   xmlns:rdf="http://www.w3.org/1999/02/22-rdf-syntax-ns#"
   xmlns:svg="http://www.w3.org/2000/svg"
   xmlns="http://www.w3.org/2000/svg"
   xmlns:sodipodi="http://sodipodi.sourceforge.net/DTD/sodipodi-0.dtd"
   xmlns:inkscape="http://www.inkscape.org/namespaces/inkscape"
   inkscape:version="1.0.2-2 (e86c870879, 2021-01-15)"
   version="1.0"
   width="283.3511mm"
   height="283.3511mm"
   id="svg1938"
   sodipodi:docname="HVB_sans_contour.svg">
  <metadata
     id="metadata1942">
    <rdf:RDF>
      <cc:Work
         rdf:about="">
        <dc:format>image/svg+xml</dc:format>
        <dc:type
           rdf:resource="http://purl.org/dc/dcmitype/StillImage" />
        <dc:title></dc:title>
      </cc:Work>
    </rdf:RDF>
  </metadata>
  <sodipodi:namedview
     inkscape:current-layer="svg1938"
     inkscape:window-maximized="1"
     inkscape:window-y="-11"
     inkscape:window-x="-11"
     inkscape:cy="634.6346"
     inkscape:cx="535.53335"
     inkscape:zoom="0.87272071"
     fit-margin-bottom="0"
     fit-margin-right="0"
     fit-margin-left="0"
     fit-margin-top="0"
     showgrid="false"
     pagecolor="#ffffff"
     bordercolor="#666666"
     inkscape:document-rotation="0"
     borderopacity="1"
     objecttolerance="10"
     gridtolerance="10"
     guidetolerance="10"
     inkscape:pageopacity="0"
     inkscape:pageshadow="2"
     inkscape:window-width="1920"
     inkscape:window-height="986"
     id="namedview1940" />
  <defs
     id="defs1930">
    <pattern
       id="WMFhbasepattern"
       patternUnits="userSpaceOnUse"
       width="6"
       height="6"
       x="0"
       y="0" />
  </defs>
  <path
     style="fill:none;stroke:#000000;stroke-width:35.0321;stroke-linecap:round;stroke-linejoin:round;stroke-miterlimit:4;stroke-dasharray:none;stroke-opacity:1"
     d="m 885.04003,29.936361 -584.72087,-2.430958 2.89467,969.949557 578.93153,2.43097 z"
     id="path1934" />
  <path
     style="fill:none;stroke:#000000;stroke-width:35.0321;stroke-linecap:round;stroke-linejoin:round;stroke-miterlimit:4;stroke-dasharray:none;stroke-opacity:1"
     d="m 882.14536,756.79078 -5.7893,-48.61902 -17.36795,-48.619 -31.84124,-43.75713 -40.52521,-38.89523 -49.20917,-29.17141 -54.99851,-21.87857 -57.89314,-9.72382 h -60.78782 l -57.89316,9.72382 -57.89316,21.87857 -46.31453,29.17141 -40.5252,38.89523 -31.84123,43.75713 -17.36795,48.619 -8.68396,48.61902 8.68396,51.04998 17.36795,48.61905 31.84123,43.75713 40.5252,38.89519 46.31453,29.17142 57.89316,21.87857 57.89316,9.72381 h 60.78782 l 57.89314,-9.72381 54.99851,-21.87857 49.20917,-29.17142 40.52521,-38.89519 31.84124,-43.75713 17.36795,-48.61905 z"
     id="path1936" />
</svg>
