<?xml version="1.0" encoding="UTF-8" standalone="no"?>
<svg
   xmlns:dc="http://purl.org/dc/elements/1.1/"
   xmlns:cc="http://creativecommons.org/ns#"
   xmlns:rdf="http://www.w3.org/1999/02/22-rdf-syntax-ns#"
   xmlns:svg="http://www.w3.org/2000/svg"
   xmlns="http://www.w3.org/2000/svg"
   xmlns:sodipodi="http://sodipodi.sourceforge.net/DTD/sodipodi-0.dtd"
   xmlns:inkscape="http://www.inkscape.org/namespaces/inkscape"
   sodipodi:docname="HWD.wmf"
   id="svg2420"
   height="292.94665mm"
   width="294.07556mm"
   version="1.0">
  <metadata
     id="metadata2424">
    <rdf:RDF>
      <cc:Work
         rdf:about="">
        <dc:format>image/svg+xml</dc:format>
        <dc:type
           rdf:resource="http://purl.org/dc/dcmitype/StillImage" />
      </cc:Work>
    </rdf:RDF>
  </metadata>
  <sodipodi:namedview
     id="namedview2422"
     inkscape:window-height="480"
     inkscape:window-width="640"
     inkscape:pageshadow="2"
     inkscape:pageopacity="0"
     guidetolerance="10"
     gridtolerance="10"
     objecttolerance="10"
     borderopacity="1"
     inkscape:document-rotation="0"
     bordercolor="#666666"
     pagecolor="#ffffff" />
  <defs
     id="defs2414">
    <pattern
       y="0"
       x="0"
       height="6"
       width="6"
       patternUnits="userSpaceOnUse"
       id="WMFhbasepattern" />
  </defs>
  <path
     id="path2416"
     d="  M 1089,546.06667   L 1076.2,435.13333   L 1039.9333,329.53333   L 982.33333,233.53333   L 906.6,151.4   L 815.93333,87.4   L 713.53333,43.666667   L 603.66667,22.333333   L 492.73333,24.466667   L 383.93333,49   L 282.6,95.933333   L 193,163.13333   L 120.46667,246.33333   L 66.066667,344.46667   L 33,450.06667   L 22.333333,562.06667   L 36.2,671.93333   L 72.466667,777.53333   L 129,873.53333   L 204.73333,955.66667   L 296.46667,1019.6667   L 398.86667,1063.4   L 508.73333,1084.7333   L 619.66667,1082.6   L 728.46667,1058.0667   L 829.8,1011.1333   L 919.4,943.93333   L 991.93333,860.73333   L 1046.3333,762.6   L 1079.4,657  z "
     style="fill:none;stroke:#000000;stroke-width:4.2666669px;stroke-linecap:round;stroke-linejoin:round;stroke-miterlimit:4;stroke-dasharray:none;stroke-opacity:1;" />
  <path
     id="path2418"
     d="  M 936.46667,189.8   L 168.46667,207.93333   L 186.6,922.6   L 949.26667,909.8   L 947.13333,195.13333  "
     style="fill:none;stroke:#000000;stroke-width:4.2666669px;stroke-linecap:round;stroke-linejoin:round;stroke-miterlimit:4;stroke-dasharray:none;stroke-opacity:1;" />
</svg>
