<?xml version="1.0" encoding="UTF-8" standalone="no"?>
<svg width="11.2889mm" height="11.2889mm"
 viewBox="0 0 32 32"
 xmlns="http://www.w3.org/2000/svg" xmlns:xlink="http://www.w3.org/1999/xlink"  version="1.2" baseProfile="tiny">
<title>Qt SVG Document</title>
<desc>Generated with Qt</desc>
<defs>
</defs>
<g fill="none" stroke="black" stroke-width="1" fill-rule="evenodd" stroke-linecap="square" stroke-linejoin="bevel" >

<g fill="#000000" fill-opacity="1" stroke="#232323" stroke-opacity="1" stroke-width="1" stroke-linecap="square" stroke-linejoin="bevel" transform="matrix(1,0,0,1,0,0)"
font-family="MS Shell Dlg 2" font-size="8.25" font-weight="400" font-style="normal" 
>
<path vector-effect="non-scaling-stroke" fill-rule="evenodd" d="M5.95276,16.2835 C5.95276,16.7531 5.57202,17.1339 5.10236,17.1339 C4.6327,17.1339 4.25197,16.7531 4.25197,16.2835 C4.25197,15.8138 4.6327,15.4331 5.10236,15.4331 C5.57202,15.4331 5.95276,15.8138 5.95276,16.2835 "/>
<path vector-effect="non-scaling-stroke" fill-rule="evenodd" d="M24.6614,16.2835 C24.6614,16.7531 24.2807,17.1339 23.811,17.1339 C23.3414,17.1339 22.9606,16.7531 22.9606,16.2835 C22.9606,15.8138 23.3414,15.4331 23.811,15.4331 C24.2807,15.4331 24.6614,15.8138 24.6614,16.2835 "/>
</g>

<g fill="none" stroke="#000000" stroke-opacity="1" stroke-width="1" stroke-linecap="square" stroke-linejoin="bevel" transform="matrix(1,0,0,1,0,0)"
font-family="MS Shell Dlg 2" font-size="8.25" font-weight="400" font-style="normal" 
>
</g>

<g fill="none" stroke="#232323" stroke-opacity="1" stroke-width="0.850394" stroke-linecap="square" stroke-linejoin="bevel" transform="matrix(1,0,0,1,0,0)"
font-family="MS Shell Dlg 2" font-size="8.25" font-weight="400" font-style="normal" 
>
<path vector-effect="none" fill-rule="evenodd" d="M7.37008,16 L-7.37008,16"/>
<path vector-effect="none" fill-rule="evenodd" d="M24.378,16 L9.6378,16"/>
</g>

<g fill="none" stroke="#000000" stroke-opacity="1" stroke-width="1" stroke-linecap="square" stroke-linejoin="bevel" transform="matrix(1,0,0,1,0,0)"
font-family="MS Shell Dlg 2" font-size="8.25" font-weight="400" font-style="normal" 
>
</g>
</g>
</svg>
