<?xml version="1.0" encoding="UTF-8" standalone="no"?>
<svg width="11.2889mm" height="11.2889mm"
 viewBox="0 0 32 32"
 xmlns="http://www.w3.org/2000/svg" xmlns:xlink="http://www.w3.org/1999/xlink"  version="1.2" baseProfile="tiny">
<title>Qt SVG Document</title>
<desc>Generated with Qt</desc>
<defs>
</defs>
<g fill="none" stroke="black" stroke-width="1" fill-rule="evenodd" stroke-linecap="square" stroke-linejoin="bevel" >

<g fill="none" stroke="#232323" stroke-opacity="1" stroke-dasharray="10.4458,4.17831" stroke-dashoffset="0" stroke-width="0.737008" stroke-linecap="butt" stroke-linejoin="miter" stroke-miterlimit="2" transform="matrix(1,0,0,1,0,0)"
font-family="MS Shell Dlg 2" font-size="8.25" font-weight="400" font-style="normal" 
>
<path vector-effect="none" fill-rule="evenodd" d="M0.708661,17.7008 L-0.708661,17.7008"/>
<path vector-effect="none" fill-rule="evenodd" d="M4.11024,17.7008 L2.69291,17.7008"/>
<path vector-effect="none" fill-rule="evenodd" d="M7.51181,17.7008 L6.09449,17.7008"/>
<path vector-effect="none" fill-rule="evenodd" d="M10.9134,17.7008 L9.49606,17.7008"/>
<path vector-effect="none" fill-rule="evenodd" d="M14.315,17.7008 L12.8976,17.7008"/>
<path vector-effect="none" fill-rule="evenodd" d="M17.7165,17.7008 L16.2992,17.7008"/>
<path vector-effect="none" fill-rule="evenodd" d="M21.1181,17.7008 L19.7008,17.7008"/>
<path vector-effect="none" fill-rule="evenodd" d="M24.5197,17.7008 L23.1024,17.7008"/>
<path vector-effect="none" fill-rule="evenodd" d="M27.9213,17.7008 L26.5039,17.7008"/>
<path vector-effect="none" fill-rule="evenodd" d="M31.3228,17.7008 L29.9055,17.7008"/>
</g>

<g fill="none" stroke="#000000" stroke-opacity="1" stroke-width="1" stroke-linecap="square" stroke-linejoin="bevel" transform="matrix(1,0,0,1,0,0)"
font-family="MS Shell Dlg 2" font-size="8.25" font-weight="400" font-style="normal" 
>
</g>

<g fill="none" stroke="#232323" stroke-opacity="1" stroke-width="1.13386" stroke-linecap="square" stroke-linejoin="bevel" transform="matrix(1,0,0,1,0,0)"
font-family="MS Shell Dlg 2" font-size="8.25" font-weight="400" font-style="normal" 
>
<path vector-effect="none" fill-rule="evenodd" d="M0,14.8661 L32,14.8661"/>
</g>
</g>
</svg>
